<?xml version="1.0" encoding="UTF-8"?>
<!DOCTYPE svg PUBLIC "-//W3C//DTD SVG 1.1//EN" "http://www.w3.org/Graphics/SVG/1.1/DTD/svg11.dtd">
<svg xmlns="http://www.w3.org/2000/svg" version="1.1" width="303px" height="260px" style="shape-rendering:geometricPrecision; text-rendering:geometricPrecision; image-rendering:optimizeQuality; fill-rule:evenodd; clip-rule:evenodd" xmlns:xlink="http://www.w3.org/1999/xlink">
<g><path style="opacity:1" fill="#17a8fb" d="M 59.5,19.5 C 58.6906,20.4687 57.6906,21.3021 56.5,22C 58.9011,22.805 58.7344,23.6383 56,24.5C 55.5172,25.448 55.3505,26.448 55.5,27.5C 52.1572,27.7714 49.8238,27.1047 48.5,25.5C 46.9559,25.7896 45.6226,26.4563 44.5,27.5C 41.5774,33.8572 39.9107,40.5238 39.5,47.5C 36.5617,46.3716 33.5617,45.2049 30.5,44C 24.5092,43.5005 18.5092,43.3338 12.5,43.5C 11.8333,43.8333 11.1667,44.1667 10.5,44.5C 9.66175,44.1583 9.32842,43.4916 9.5,42.5C 10.8333,31.8333 10.8333,21.1667 9.5,10.5C 9.33003,9.17793 9.66337,8.01127 10.5,7C 24.5,6.33333 38.5,6.33333 52.5,7C 55.4905,10.8176 57.8238,14.9842 59.5,19.5 Z"/></g>
<g><path style="opacity:0.341" fill="#3687a1" d="M 9.5,10.5 C 10.8333,21.1667 10.8333,31.8333 9.5,42.5C 8.16667,31.8333 8.16667,21.1667 9.5,10.5 Z"/></g>
<g><path style="opacity:0.999" fill="#6fe3fc" d="M 277.5,27.5 C 279.716,27.2746 281.383,28.1079 282.5,30C 278.295,37.577 273.962,45.077 269.5,52.5C 267.5,52.1667 265.5,51.8333 263.5,51.5C 263.66,53.1992 263.494,54.8659 263,56.5C 259.243,56.7572 255.41,56.4238 251.5,55.5C 251.5,59.5 251.5,63.5 251.5,67.5C 249.508,67.6715 247.842,67.0049 246.5,65.5C 244.46,68.281 242.793,71.281 241.5,74.5C 236.923,76.1443 232.256,77.4776 227.5,78.5C 238.087,80.1357 238.087,81.1357 227.5,81.5C 227.212,91.1251 222.546,95.7917 213.5,95.5C 213.5,97.5 213.5,99.5 213.5,101.5C 211.508,101.328 209.842,101.995 208.5,103.5C 207.503,110.859 203.503,113.859 196.5,112.5C 196.5,111.5 196.5,110.5 196.5,109.5C 199.88,109.821 200.713,108.821 199,106.5C 198.503,104.19 198.337,101.857 198.5,99.5C 204.514,88.8014 210.514,78.1347 216.5,67.5C 218.505,66.746 219.172,65.5793 218.5,64C 220.134,63.5065 221.801,63.3398 223.5,63.5C 223.5,60.8333 223.5,58.1667 223.5,55.5C 224.833,55.5 226.167,55.5 227.5,55.5C 227.5,52.8333 227.5,50.1667 227.5,47.5C 230.167,47.5 232.833,47.5 235.5,47.5C 236.167,44.8333 236.833,42.1667 237.5,39.5C 241.725,38.9418 244.391,36.6085 245.5,32.5C 250.565,32.219 255.565,32.5524 260.5,33.5C 263.461,32.8169 263.795,31.9836 261.5,31C 262.167,30.3333 262.833,29.6667 263.5,29C 268.351,28.8255 273.018,28.3255 277.5,27.5 Z"/></g>
<g><path style="opacity:0.999" fill="#5accf6" d="M 176.5,28.5 C 192.662,29.3315 208.995,29.8315 225.5,30C 226.167,30.3333 226.833,30.6667 227.5,31C 218.5,31.3333 209.5,31.6667 200.5,32C 199.594,33.6995 199.261,35.5328 199.5,37.5C 193.905,38.4332 191.238,41.7665 191.5,47.5C 190.167,47.5 188.833,47.5 187.5,47.5C 187.5,48.8333 187.5,50.1667 187.5,51.5C 186.167,51.5 184.833,51.5 183.5,51.5C 183.5,54.1667 183.5,56.8333 183.5,59.5C 182.127,59.3433 180.793,59.51 179.5,60C 181.158,60.7253 181.658,61.892 181,63.5C 180.667,63.1667 180.333,62.8333 180,62.5C 173.965,63.9636 167.799,64.7969 161.5,65C 179.005,65.1684 196.338,65.6684 213.5,66.5C 196.154,66.1672 178.821,66.5005 161.5,67.5C 154.733,78.7024 148.233,90.0357 142,101.5C 140.987,103.846 139.321,105.513 137,106.5C 133.214,102.863 130.381,98.5299 128.5,93.5C 129.79,92.0652 131.456,91.0652 133.5,90.5C 130.895,84.1411 130.895,77.8078 133.5,71.5C 136.012,71.5772 138.012,70.5772 139.5,68.5C 136.833,67.1667 136.833,65.8333 139.5,64.5C 140.689,63.5713 142.022,63.238 143.5,63.5C 143.423,60.9876 144.423,58.9876 146.5,57.5C 148.328,59.8073 149.994,59.474 151.5,56.5C 150.975,55.8076 150.308,55.3076 149.5,55C 151.307,54.0723 152.974,52.9056 154.5,51.5C 155.696,51.8457 155.696,52.3457 154.5,53C 155.448,53.4828 156.448,53.6495 157.5,53.5C 157.201,51.396 157.534,49.396 158.5,47.5C 159.086,47.7093 159.586,48.0426 160,48.5C 160.898,46.3736 162.065,44.3736 163.5,42.5C 164.689,41.5713 166.022,41.238 167.5,41.5C 167.36,39.8762 168.027,38.7096 169.5,38C 172.882,37.8236 176.215,37.3236 179.5,36.5C 181.104,34.8211 181.771,32.8211 181.5,30.5C 172.922,31.1435 164.588,31.4768 156.5,31.5C 152.628,30.1598 148.628,29.3264 144.5,29C 155.161,28.5002 165.828,28.3335 176.5,28.5 Z"/></g>
<g><path style="opacity:0.998" fill="#6bdbfd" d="M 182.5,27.5 C 214.167,27.5 245.833,27.5 277.5,27.5C 273.018,28.3255 268.351,28.8255 263.5,29C 262.833,29.6667 262.167,30.3333 261.5,31C 263.795,31.9836 263.461,32.8169 260.5,33.5C 255.565,32.5524 250.565,32.219 245.5,32.5C 244.391,36.6085 241.725,38.9418 237.5,39.5C 236.833,42.1667 236.167,44.8333 235.5,47.5C 232.833,47.5 230.167,47.5 227.5,47.5C 227.5,50.1667 227.5,52.8333 227.5,55.5C 226.167,55.5 224.833,55.5 223.5,55.5C 223.5,58.1667 223.5,60.8333 223.5,63.5C 221.801,63.3398 220.134,63.5065 218.5,64C 219.172,65.5793 218.505,66.746 216.5,67.5C 215.791,66.596 214.791,66.2627 213.5,66.5C 196.338,65.6684 179.005,65.1684 161.5,65C 167.799,64.7969 173.965,63.9636 180,62.5C 180.333,62.8333 180.667,63.1667 181,63.5C 181.658,61.892 181.158,60.7253 179.5,60C 180.793,59.51 182.127,59.3433 183.5,59.5C 183.5,56.8333 183.5,54.1667 183.5,51.5C 184.833,51.5 186.167,51.5 187.5,51.5C 187.5,50.1667 187.5,48.8333 187.5,47.5C 188.833,47.5 190.167,47.5 191.5,47.5C 191.238,41.7665 193.905,38.4332 199.5,37.5C 199.261,35.5328 199.594,33.6995 200.5,32C 209.5,31.6667 218.5,31.3333 227.5,31C 226.833,30.6667 226.167,30.3333 225.5,30C 208.995,29.8315 192.662,29.3315 176.5,28.5C 178.735,28.7947 180.735,28.4614 182.5,27.5 Z"/></g>
<g><path style="opacity:0.999" fill="#50c8fa" d="M 182.5,27.5 C 180.735,28.4614 178.735,28.7947 176.5,28.5C 165.828,28.3335 155.161,28.5002 144.5,29C 148.628,29.3264 152.628,30.1598 156.5,31.5C 164.588,31.4768 172.922,31.1435 181.5,30.5C 181.771,32.8211 181.104,34.8211 179.5,36.5C 176.215,37.3236 172.882,37.8236 169.5,38C 168.027,38.7096 167.36,39.8762 167.5,41.5C 166.022,41.238 164.689,41.5713 163.5,42.5C 162.065,44.3736 160.898,46.3736 160,48.5C 159.586,48.0426 159.086,47.7093 158.5,47.5C 157.534,49.396 157.201,51.396 157.5,53.5C 156.448,53.6495 155.448,53.4828 154.5,53C 155.696,52.3457 155.696,51.8457 154.5,51.5C 152.974,52.9056 151.307,54.0723 149.5,55C 150.308,55.3076 150.975,55.8076 151.5,56.5C 149.994,59.474 148.328,59.8073 146.5,57.5C 144.423,58.9876 143.423,60.9876 143.5,63.5C 142.022,63.238 140.689,63.5713 139.5,64.5C 136.833,65.8333 136.833,67.1667 139.5,68.5C 138.012,70.5772 136.012,71.5772 133.5,71.5C 130.895,77.8078 130.895,84.1411 133.5,90.5C 131.456,91.0652 129.79,92.0652 128.5,93.5C 123.792,86.1055 119.459,78.4389 115.5,70.5C 123.078,56.3437 130.911,42.3437 139,28.5C 153.421,27.5096 167.921,27.1763 182.5,27.5 Z"/></g>
<g><path style="opacity:1" fill="#2db4fb" d="M 59.5,19.5 C 66.3223,29.8008 72.6556,40.4675 78.5,51.5C 77.0755,53.1443 75.4089,54.6443 73.5,56C 75.291,58.1062 75.9577,60.6062 75.5,63.5C 70.2716,63.0542 66.9382,65.3875 65.5,70.5C 62.5674,71.7709 59.9007,73.4376 57.5,75.5C 55.2351,75.9397 53.0684,76.6064 51,77.5C 50.7879,74.6685 50.6213,72.0018 50.5,69.5C 47.2126,71.0767 46.5459,73.4101 48.5,76.5C 41.9158,66.3337 35.5824,56.0003 29.5,45.5C 23.8333,44.8333 18.1667,44.1667 12.5,43.5C 18.5092,43.3338 24.5092,43.5005 30.5,44C 33.5617,45.2049 36.5617,46.3716 39.5,47.5C 39.9107,40.5238 41.5774,33.8572 44.5,27.5C 45.6226,26.4563 46.9559,25.7896 48.5,25.5C 49.8238,27.1047 52.1572,27.7714 55.5,27.5C 55.3505,26.448 55.5172,25.448 56,24.5C 58.7344,23.6383 58.9011,22.805 56.5,22C 57.6906,21.3021 58.6906,20.4687 59.5,19.5 Z"/></g>
<g><path style="opacity:0.047" fill="#033562" d="M 12.5,43.5 C 18.1667,44.1667 23.8333,44.8333 29.5,45.5C 22.9779,45.8235 16.6446,45.4902 10.5,44.5C 11.1667,44.1667 11.8333,43.8333 12.5,43.5 Z"/></g>
<g><path style="opacity:1" fill="#72e5f9" d="M 269.5,52.5 C 255.682,77.47 241.349,102.137 226.5,126.5C 226.179,124.952 225.179,124.285 223.5,124.5C 223.11,121.534 223.777,118.868 225.5,116.5C 223.604,115.534 221.604,115.201 219.5,115.5C 218.833,118.167 218.167,120.833 217.5,123.5C 215.5,123.5 213.5,123.5 211.5,123.5C 211.5,124.833 211.5,126.167 211.5,127.5C 208.833,127.5 206.167,127.5 203.5,127.5C 203.5,130.167 203.5,132.833 203.5,135.5C 200.833,135.5 198.167,135.5 195.5,135.5C 195.768,139.426 194.935,143.093 193,146.5C 191.844,145.007 191.01,145.174 190.5,147C 190.905,147.945 191.572,148.612 192.5,149C 191.748,149.671 191.414,150.504 191.5,151.5C 187.454,145.245 183.788,138.745 180.5,132C 185.852,120.795 191.852,109.961 198.5,99.5C 198.337,101.857 198.503,104.19 199,106.5C 200.713,108.821 199.88,109.821 196.5,109.5C 196.5,110.5 196.5,111.5 196.5,112.5C 203.503,113.859 207.503,110.859 208.5,103.5C 209.842,101.995 211.508,101.328 213.5,101.5C 213.5,99.5 213.5,97.5 213.5,95.5C 222.546,95.7917 227.212,91.1251 227.5,81.5C 238.087,81.1357 238.087,80.1357 227.5,78.5C 232.256,77.4776 236.923,76.1443 241.5,74.5C 242.793,71.281 244.46,68.281 246.5,65.5C 247.842,67.0049 249.508,67.6715 251.5,67.5C 251.5,63.5 251.5,59.5 251.5,55.5C 255.41,56.4238 259.243,56.7572 263,56.5C 263.494,54.8659 263.66,53.1992 263.5,51.5C 265.5,51.8333 267.5,52.1667 269.5,52.5 Z"/></g>
<g><path style="opacity:0.999" fill="#44c0fb" d="M 78.5,51.5 C 85.9296,63.5946 92.9296,75.9279 99.5,88.5C 97.4508,88.7058 97.1175,89.5391 98.5,91C 96.1925,91.3542 95.8592,92.3542 97.5,94C 96.7597,96.9427 95.7597,97.1093 94.5,94.5C 90.9472,93.0344 87.6138,93.3677 84.5,95.5C 83.8333,94.8333 83.1667,94.1667 82.5,93.5C 81.5344,95.396 81.2011,97.396 81.5,99.5C 80.0222,99.238 78.6888,99.5713 77.5,100.5C 76.3383,105.34 73.8383,106.34 70,103.5C 69.1268,103.735 68.2935,104.069 67.5,104.5C 65.217,103.029 63.217,101.362 61.5,99.5C 57.4343,92.8584 53.2676,86.1917 49,79.5C 48.5172,78.552 48.3505,77.552 48.5,76.5C 46.5459,73.4101 47.2126,71.0767 50.5,69.5C 50.6213,72.0018 50.7879,74.6685 51,77.5C 53.0684,76.6064 55.2351,75.9397 57.5,75.5C 59.9007,73.4376 62.5674,71.7709 65.5,70.5C 66.9382,65.3875 70.2716,63.0542 75.5,63.5C 75.9577,60.6062 75.291,58.1062 73.5,56C 75.4089,54.6443 77.0755,53.1443 78.5,51.5 Z"/></g>
<g><path style="opacity:0.997" fill="#51c7f8" d="M 99.5,88.5 C 101.766,92.0337 103.766,95.7004 105.5,99.5C 103.952,99.8212 103.285,100.821 103.5,102.5C 104.552,102.351 105.552,102.517 106.5,103C 105.745,105.133 104.412,106.8 102.5,108C 104.464,109.794 105.964,109.294 107,106.5C 110.526,109.929 110.192,111.263 106,110.5C 105,111.167 104,111.833 103,112.5C 99.4878,111.687 95.9878,110.687 92.5,109.5C 89.9774,110.018 87.9774,111.352 86.5,113.5C 85.8333,118.167 85.1667,122.833 84.5,127.5C 83.2798,128.711 82.1131,128.711 81,127.5C 80.5831,128.756 79.7498,129.423 78.5,129.5C 72.8347,119.503 67.1681,109.503 61.5,99.5C 63.217,101.362 65.217,103.029 67.5,104.5C 68.2935,104.069 69.1268,103.735 70,103.5C 73.8383,106.34 76.3383,105.34 77.5,100.5C 78.6888,99.5713 80.0222,99.238 81.5,99.5C 81.2011,97.396 81.5344,95.396 82.5,93.5C 83.1667,94.1667 83.8333,94.8333 84.5,95.5C 87.6138,93.3677 90.9472,93.0344 94.5,94.5C 95.7597,97.1093 96.7597,96.9427 97.5,94C 95.8592,92.3542 96.1925,91.3542 98.5,91C 97.1175,89.5391 97.4508,88.7058 99.5,88.5 Z"/></g>
<g><path style="opacity:0.999" fill="#5bcffb" d="M 105.5,99.5 C 110.643,107.104 115.309,115.104 119.5,123.5C 117.058,123.119 116.391,123.786 117.5,125.5C 114.491,126.023 111.491,125.523 108.5,124C 105.518,123.502 102.518,123.335 99.5,123.5C 99.5,126.833 99.5,130.167 99.5,133.5C 97.5,133.5 95.5,133.5 93.5,133.5C 91.5884,135.822 90.255,138.488 89.5,141.5C 88.1667,141.5 86.8333,141.5 85.5,141.5C 84.1667,144.833 82.8333,148.167 81.5,151.5C 78.1066,151.062 75.1066,151.895 72.5,154C 72.8333,154.333 73.1667,154.667 73.5,155C 70.8941,155.45 69.5608,156.95 69.5,159.5C 68.5,159.5 67.5,159.5 66.5,159.5C 66.3243,163.265 64.3243,165.265 60.5,165.5C 66.8092,154.221 73.1425,142.888 79.5,131.5C 79.1373,130.817 78.8039,130.15 78.5,129.5C 79.7498,129.423 80.5831,128.756 81,127.5C 82.1131,128.711 83.2798,128.711 84.5,127.5C 85.1667,122.833 85.8333,118.167 86.5,113.5C 87.9774,111.352 89.9774,110.018 92.5,109.5C 95.9878,110.687 99.4878,111.687 103,112.5C 104,111.833 105,111.167 106,110.5C 110.192,111.263 110.526,109.929 107,106.5C 105.964,109.294 104.464,109.794 102.5,108C 104.412,106.8 105.745,105.133 106.5,103C 105.552,102.517 104.552,102.351 103.5,102.5C 103.285,100.821 103.952,99.8212 105.5,99.5 Z"/></g>
<g><path style="opacity:0.999" fill="#75ecf9" d="M 226.5,126.5 C 226.131,128.441 225.464,130.275 224.5,132C 227.304,136.445 229.971,140.945 232.5,145.5C 231.883,145.611 231.383,145.944 231,146.5C 228.816,142.96 226.816,139.293 225,135.5C 222.891,136.035 222.391,137.035 223.5,138.5C 222.311,139.429 220.978,139.762 219.5,139.5C 219.82,142.898 219.487,146.232 218.5,149.5C 217.158,151.005 215.492,151.672 213.5,151.5C 213.5,152.833 213.5,154.167 213.5,155.5C 212.167,155.5 210.833,155.5 209.5,155.5C 209.421,157.666 208.754,159.666 207.5,161.5C 207.919,162.672 208.585,163.672 209.5,164.5C 207.333,165.948 205,167.115 202.5,168C 203.191,169.067 203.691,170.234 204,171.5C 205.281,171.381 206.448,171.881 207.5,173C 206.263,173.232 205.263,173.732 204.5,174.5C 199.915,166.999 195.582,159.332 191.5,151.5C 191.414,150.504 191.748,149.671 192.5,149C 191.572,148.612 190.905,147.945 190.5,147C 191.01,145.174 191.844,145.007 193,146.5C 194.935,143.093 195.768,139.426 195.5,135.5C 198.167,135.5 200.833,135.5 203.5,135.5C 203.5,132.833 203.5,130.167 203.5,127.5C 206.167,127.5 208.833,127.5 211.5,127.5C 211.5,126.167 211.5,124.833 211.5,123.5C 213.5,123.5 215.5,123.5 217.5,123.5C 218.167,120.833 218.833,118.167 219.5,115.5C 221.604,115.201 223.604,115.534 225.5,116.5C 223.777,118.868 223.11,121.534 223.5,124.5C 225.179,124.285 226.179,124.952 226.5,126.5 Z"/></g>
<g><path style="opacity:0.999" fill="#63d0f3" d="M 119.5,123.5 C 122.378,126.597 123.545,130.263 123,134.5C 116.059,146.729 108.892,158.729 101.5,170.5C 100.766,169.292 100.433,167.959 100.5,166.5C 98.8333,166.5 97.1667,166.5 95.5,166.5C 95.5,165.5 95.5,164.5 95.5,163.5C 94.1667,163.5 92.8333,163.5 91.5,163.5C 91.5,164.833 91.5,166.167 91.5,167.5C 90.1667,167.5 88.8333,167.5 87.5,167.5C 87.1357,178.087 86.1357,178.087 84.5,167.5C 83.5091,171.445 83.1758,175.445 83.5,179.5C 82.1667,179.5 80.8333,179.5 79.5,179.5C 79.5,178.167 79.5,176.833 79.5,175.5C 77.5082,175.672 75.8415,175.005 74.5,173.5C 73.359,175.421 73.1923,177.421 74,179.5C 74.8893,178.112 75.3893,178.278 75.5,180C 74.2375,182.464 72.2375,183.63 69.5,183.5C 69.3285,185.492 69.9951,187.158 71.5,188.5C 70.1667,189.833 68.8333,191.167 67.5,192.5C 62.7682,193.379 58.1016,194.379 53.5,195.5C 53.1293,198.892 51.4626,201.558 48.5,203.5C 47.513,206.768 47.1796,210.102 47.5,213.5C 45.5082,213.328 43.8415,213.995 42.5,215.5C 41.513,218.768 41.1796,222.102 41.5,225.5C 38.3546,225.269 35.3546,224.769 32.5,224C 33.0219,224.561 33.3552,225.228 33.5,226C 31.3852,227.399 29.7185,229.232 28.5,231.5C 28.9186,232.672 29.5853,233.672 30.5,234.5C 39.7797,235.473 49.113,235.807 58.5,235.5C 93.1667,235.5 127.833,235.5 162.5,235.5C 116.335,236.665 70.0018,236.832 23.5,236C 22.6433,235.311 21.9767,234.478 21.5,233.5C 34.1327,210.577 47.1327,187.91 60.5,165.5C 64.3243,165.265 66.3243,163.265 66.5,159.5C 67.5,159.5 68.5,159.5 69.5,159.5C 69.5608,156.95 70.8941,155.45 73.5,155C 73.1667,154.667 72.8333,154.333 72.5,154C 75.1066,151.895 78.1066,151.062 81.5,151.5C 82.8333,148.167 84.1667,144.833 85.5,141.5C 86.8333,141.5 88.1667,141.5 89.5,141.5C 90.255,138.488 91.5884,135.822 93.5,133.5C 95.5,133.5 97.5,133.5 99.5,133.5C 99.5,130.167 99.5,126.833 99.5,123.5C 102.518,123.335 105.518,123.502 108.5,124C 111.491,125.523 114.491,126.023 117.5,125.5C 116.391,123.786 117.058,123.119 119.5,123.5 Z"/></g>
<g><path style="opacity:1" fill="#7af4fb" d="M 232.5,145.5 C 235.1,149.701 237.434,154.034 239.5,158.5C 237.797,157.34 237.131,158.007 237.5,160.5C 233.249,160.887 229.915,162.887 227.5,166.5C 225.01,168.083 222.343,169.083 219.5,169.5C 219.824,173.555 219.491,177.555 218.5,181.5C 217.476,182.853 216.143,183.52 214.5,183.5C 214.923,185.781 214.256,187.448 212.5,188.5C 209.469,184.113 206.803,179.446 204.5,174.5C 205.263,173.732 206.263,173.232 207.5,173C 206.448,171.881 205.281,171.381 204,171.5C 203.691,170.234 203.191,169.067 202.5,168C 205,167.115 207.333,165.948 209.5,164.5C 208.585,163.672 207.919,162.672 207.5,161.5C 208.754,159.666 209.421,157.666 209.5,155.5C 210.833,155.5 212.167,155.5 213.5,155.5C 213.5,154.167 213.5,152.833 213.5,151.5C 215.492,151.672 217.158,151.005 218.5,149.5C 219.487,146.232 219.82,142.898 219.5,139.5C 220.978,139.762 222.311,139.429 223.5,138.5C 222.391,137.035 222.891,136.035 225,135.5C 226.816,139.293 228.816,142.96 231,146.5C 231.383,145.944 231.883,145.611 232.5,145.5 Z"/></g>
<g><path style="opacity:0.999" fill="#7efafb" d="M 239.5,158.5 C 245.336,167.5 250.669,176.833 255.5,186.5C 254.549,187.919 254.216,189.585 254.5,191.5C 253.5,191.5 252.5,191.5 251.5,191.5C 251.5,194.167 251.5,196.833 251.5,199.5C 248.833,199.5 246.167,199.5 243.5,199.5C 243.5,203.5 243.5,207.5 243.5,211.5C 242.167,211.5 240.833,211.5 239.5,211.5C 239.5,208.833 239.5,206.167 239.5,203.5C 238.167,203.5 236.833,203.5 235.5,203.5C 235.5,204.833 235.5,206.167 235.5,207.5C 234.5,207.5 233.5,207.5 232.5,207.5C 233.029,210.604 232.029,212.937 229.5,214.5C 228.888,210.227 226.554,207.56 222.5,206.5C 218.649,200.798 215.315,194.798 212.5,188.5C 214.256,187.448 214.923,185.781 214.5,183.5C 216.143,183.52 217.476,182.853 218.5,181.5C 219.491,177.555 219.824,173.555 219.5,169.5C 222.343,169.083 225.01,168.083 227.5,166.5C 229.915,162.887 233.249,160.887 237.5,160.5C 237.131,158.007 237.797,157.34 239.5,158.5 Z"/></g>
<g><path style="opacity:1" fill="#6bdcfc" d="M 101.5,170.5 C 96.8458,179.14 92.1792,187.806 87.5,196.5C 87.5299,197.497 87.0299,198.164 86,198.5C 84.9895,198.108 84.4895,197.441 84.5,196.5C 83.8869,197.98 83.5536,199.313 83.5,200.5C 82.2638,199.754 80.9305,199.421 79.5,199.5C 78.4517,204.876 75.1184,207.876 69.5,208.5C 67.9951,209.842 67.3285,211.508 67.5,213.5C 66.1667,213.5 64.8333,213.5 63.5,213.5C 63.5,214.833 63.5,216.167 63.5,217.5C 62.0222,217.238 60.6888,217.571 59.5,218.5C 61.223,220.868 61.8897,223.534 61.5,226.5C 55.9012,226.41 55.2346,228.077 59.5,231.5C 58.9747,232.192 58.3081,232.692 57.5,233C 64.6787,233.171 71.6787,233.671 78.5,234.5C 71.6457,234.176 64.979,234.509 58.5,235.5C 49.113,235.807 39.7797,235.473 30.5,234.5C 29.5853,233.672 28.9186,232.672 28.5,231.5C 29.7185,229.232 31.3852,227.399 33.5,226C 33.3552,225.228 33.0219,224.561 32.5,224C 35.3546,224.769 38.3546,225.269 41.5,225.5C 41.1796,222.102 41.513,218.768 42.5,215.5C 43.8415,213.995 45.5082,213.328 47.5,213.5C 47.1796,210.102 47.513,206.768 48.5,203.5C 51.4626,201.558 53.1293,198.892 53.5,195.5C 58.1016,194.379 62.7682,193.379 67.5,192.5C 68.8333,191.167 70.1667,189.833 71.5,188.5C 69.9951,187.158 69.3285,185.492 69.5,183.5C 72.2375,183.63 74.2375,182.464 75.5,180C 75.3893,178.278 74.8893,178.112 74,179.5C 73.1923,177.421 73.359,175.421 74.5,173.5C 75.8415,175.005 77.5082,175.672 79.5,175.5C 79.5,176.833 79.5,178.167 79.5,179.5C 80.8333,179.5 82.1667,179.5 83.5,179.5C 83.1758,175.445 83.5091,171.445 84.5,167.5C 86.1357,178.087 87.1357,178.087 87.5,167.5C 88.8333,167.5 90.1667,167.5 91.5,167.5C 91.5,166.167 91.5,164.833 91.5,163.5C 92.8333,163.5 94.1667,163.5 95.5,163.5C 95.5,164.5 95.5,165.5 95.5,166.5C 97.1667,166.5 98.8333,166.5 100.5,166.5C 100.433,167.959 100.766,169.292 101.5,170.5 Z"/></g>
<g><path style="opacity:1" fill="#76eefb" d="M 186.5,196.5 C 186.66,194.801 186.494,193.134 186,191.5C 183.787,189.751 182.787,187.751 183,185.5C 182.667,185.833 182.333,186.167 182,186.5C 178.647,184.462 175.147,183.795 171.5,184.5C 173.332,185.248 174.999,186.248 176.5,187.5C 177.965,186.391 178.965,186.891 179.5,189C 177.192,190.936 174.525,191.769 171.5,191.5C 171.5,192.833 171.5,194.167 171.5,195.5C 170.167,195.5 168.833,195.5 167.5,195.5C 167.112,200.324 164.445,202.324 159.5,201.5C 160.324,206.445 158.324,209.112 153.5,209.5C 153.5,211.5 153.5,213.5 153.5,215.5C 151.5,215.5 149.5,215.5 147.5,215.5C 147.5,218.167 147.5,220.833 147.5,223.5C 142.203,224.032 142.203,224.866 147.5,226C 143.749,226.749 140.082,227.749 136.5,229C 138.9,229.186 141.234,229.686 143.5,230.5C 134.397,233.15 125.064,234.483 115.5,234.5C 112.695,233.681 109.695,233.181 106.5,233C 110.5,232 114.5,231 118.5,230C 117.167,229.667 115.833,229.333 114.5,229C 116.731,227.853 119.065,226.853 121.5,226C 118.127,223.385 116.794,219.885 117.5,215.5C 120.734,214.424 124.068,213.757 127.5,213.5C 127.5,212.167 127.5,210.833 127.5,209.5C 130.247,209.813 132.914,209.48 135.5,208.5C 137.245,205.096 139.745,202.429 143,200.5C 143.718,201.451 144.551,201.617 145.5,201C 144.809,199.933 144.309,198.766 144,197.5C 143.23,198.598 142.397,198.598 141.5,197.5C 140.833,197.5 140.5,197.167 140.5,196.5C 142.785,195.043 144.618,193.043 146,190.5C 151.587,180.994 156.92,171.327 162,161.5C 164.521,155.383 167.521,155.05 171,160.5C 176.266,170.757 181.933,180.757 188,190.5C 188.738,192.881 188.238,194.881 186.5,196.5 Z"/></g>
<g><path style="opacity:0.993" fill="#7af2fa" d="M 186.5,196.5 C 180.531,208.435 174.031,220.102 167,231.5C 166.124,233.635 164.624,234.969 162.5,235.5C 127.833,235.5 93.1667,235.5 58.5,235.5C 64.979,234.509 71.6457,234.176 78.5,234.5C 86.8333,234.5 95.1667,234.5 103.5,234.5C 107.5,234.5 111.5,234.5 115.5,234.5C 125.064,234.483 134.397,233.15 143.5,230.5C 141.234,229.686 138.9,229.186 136.5,229C 140.082,227.749 143.749,226.749 147.5,226C 142.203,224.866 142.203,224.032 147.5,223.5C 147.5,220.833 147.5,218.167 147.5,215.5C 149.5,215.5 151.5,215.5 153.5,215.5C 153.5,213.5 153.5,211.5 153.5,209.5C 158.324,209.112 160.324,206.445 159.5,201.5C 164.445,202.324 167.112,200.324 167.5,195.5C 168.833,195.5 170.167,195.5 171.5,195.5C 171.5,194.167 171.5,192.833 171.5,191.5C 174.525,191.769 177.192,190.936 179.5,189C 178.965,186.891 177.965,186.391 176.5,187.5C 174.999,186.248 173.332,185.248 171.5,184.5C 175.147,183.795 178.647,184.462 182,186.5C 182.333,186.167 182.667,185.833 183,185.5C 182.787,187.751 183.787,189.751 186,191.5C 186.494,193.134 186.66,194.801 186.5,196.5 Z"/></g>
<g><path style="opacity:0.995" fill="#84f7f6" d="M 255.5,186.5 C 261.046,195.239 266.379,204.239 271.5,213.5C 276.792,214.495 282.125,214.828 287.5,214.5C 287.577,218.215 287.244,221.881 286.5,225.5C 281.679,227.135 276.679,227.802 271.5,227.5C 269.068,217.231 267.735,217.231 267.5,227.5C 264.833,227.5 262.167,227.5 259.5,227.5C 259.5,228.833 259.5,230.167 259.5,231.5C 262.167,231.5 264.833,231.5 267.5,231.5C 267.833,234.5 266.5,235.833 263.5,235.5C 263.5,236.833 263.5,238.167 263.5,239.5C 262.167,239.5 260.833,239.5 259.5,239.5C 259.5,238.167 259.5,236.833 259.5,235.5C 258.167,235.5 256.833,235.5 255.5,235.5C 255.5,234.167 255.5,232.833 255.5,231.5C 252.15,231.335 248.817,231.502 245.5,232C 247.41,232.408 248.41,233.575 248.5,235.5C 246.897,237.581 245.564,239.915 244.5,242.5C 245.325,243.386 246.325,243.719 247.5,243.5C 247.054,247.377 248.554,250.044 252,251.5C 252.5,251.167 253,250.833 253.5,250.5C 251.711,249.377 251.378,248.044 252.5,246.5C 253.287,247.242 253.953,248.075 254.5,249C 267.649,250.948 280.649,250.781 293.5,248.5C 293.376,250.582 292.376,252.082 290.5,253C 276.833,253.667 263.167,253.667 249.5,253C 240.098,237.691 231.098,222.191 222.5,206.5C 226.554,207.56 228.888,210.227 229.5,214.5C 232.029,212.937 233.029,210.604 232.5,207.5C 233.5,207.5 234.5,207.5 235.5,207.5C 235.5,206.167 235.5,204.833 235.5,203.5C 236.833,203.5 238.167,203.5 239.5,203.5C 239.5,206.167 239.5,208.833 239.5,211.5C 240.833,211.5 242.167,211.5 243.5,211.5C 243.5,207.5 243.5,203.5 243.5,199.5C 246.167,199.5 248.833,199.5 251.5,199.5C 251.5,196.833 251.5,194.167 251.5,191.5C 252.5,191.5 253.5,191.5 254.5,191.5C 254.216,189.585 254.549,187.919 255.5,186.5 Z"/></g>
<g><path style="opacity:0.999" fill="#73eafe" d="M 141.5,197.5 C 142.397,198.598 143.23,198.598 144,197.5C 144.309,198.766 144.809,199.933 145.5,201C 144.551,201.617 143.718,201.451 143,200.5C 139.745,202.429 137.245,205.096 135.5,208.5C 132.914,209.48 130.247,209.813 127.5,209.5C 127.5,210.833 127.5,212.167 127.5,213.5C 124.068,213.757 120.734,214.424 117.5,215.5C 116.794,219.885 118.127,223.385 121.5,226C 119.065,226.853 116.731,227.853 114.5,229C 115.833,229.333 117.167,229.667 118.5,230C 114.5,231 110.5,232 106.5,233C 109.695,233.181 112.695,233.681 115.5,234.5C 111.5,234.5 107.5,234.5 103.5,234.5C 101.369,233.686 99.0356,233.186 96.5,233C 96.8333,232.667 97.1667,232.333 97.5,232C 95.8442,230.171 93.8442,228.837 91.5,228C 94.8438,227.43 95.1772,226.264 92.5,224.5C 94.756,223.579 95.756,221.912 95.5,219.5C 94.0222,219.762 92.6888,219.429 91.5,218.5C 96.5065,216.454 101.173,214.121 105.5,211.5C 105.5,210.167 105.5,208.833 105.5,207.5C 109.5,206.833 113.5,206.167 117.5,205.5C 117.323,203.019 118.323,201.186 120.5,200C 117.833,199.667 115.167,199.333 112.5,199C 121.96,198.282 131.127,198.449 140,199.5C 140.717,198.956 141.217,198.289 141.5,197.5 Z"/></g>
<g><path style="opacity:0.997" fill="#88fdfd" d="M 287.5,214.5 C 290.238,213.965 292.072,214.965 293,217.5C 293.5,227.828 293.666,238.161 293.5,248.5C 280.649,250.781 267.649,250.948 254.5,249C 253.953,248.075 253.287,247.242 252.5,246.5C 251.378,248.044 251.711,249.377 253.5,250.5C 253,250.833 252.5,251.167 252,251.5C 248.554,250.044 247.054,247.377 247.5,243.5C 246.325,243.719 245.325,243.386 244.5,242.5C 245.564,239.915 246.897,237.581 248.5,235.5C 248.41,233.575 247.41,232.408 245.5,232C 248.817,231.502 252.15,231.335 255.5,231.5C 255.5,232.833 255.5,234.167 255.5,235.5C 256.833,235.5 258.167,235.5 259.5,235.5C 259.5,236.833 259.5,238.167 259.5,239.5C 260.833,239.5 262.167,239.5 263.5,239.5C 263.5,238.167 263.5,236.833 263.5,235.5C 266.5,235.833 267.833,234.5 267.5,231.5C 264.833,231.5 262.167,231.5 259.5,231.5C 259.5,230.167 259.5,228.833 259.5,227.5C 262.167,227.5 264.833,227.5 267.5,227.5C 267.735,217.231 269.068,217.231 271.5,227.5C 276.679,227.802 281.679,227.135 286.5,225.5C 287.244,221.881 287.577,218.215 287.5,214.5 Z"/></g>
<g><path style="opacity:0.996" fill="#6ee0fd" d="M 87.5,196.5 C 105.167,196.5 122.833,196.5 140.5,196.5C 140.5,197.167 140.833,197.5 141.5,197.5C 141.217,198.289 140.717,198.956 140,199.5C 131.127,198.449 121.96,198.282 112.5,199C 115.167,199.333 117.833,199.667 120.5,200C 118.323,201.186 117.323,203.019 117.5,205.5C 113.5,206.167 109.5,206.833 105.5,207.5C 105.5,208.833 105.5,210.167 105.5,211.5C 101.173,214.121 96.5065,216.454 91.5,218.5C 92.6888,219.429 94.0222,219.762 95.5,219.5C 95.756,221.912 94.756,223.579 92.5,224.5C 95.1772,226.264 94.8438,227.43 91.5,228C 93.8442,228.837 95.8442,230.171 97.5,232C 97.1667,232.333 96.8333,232.667 96.5,233C 99.0356,233.186 101.369,233.686 103.5,234.5C 95.1667,234.5 86.8333,234.5 78.5,234.5C 71.6787,233.671 64.6787,233.171 57.5,233C 58.3081,232.692 58.9747,232.192 59.5,231.5C 55.2346,228.077 55.9012,226.41 61.5,226.5C 61.8897,223.534 61.223,220.868 59.5,218.5C 60.6888,217.571 62.0222,217.238 63.5,217.5C 63.5,216.167 63.5,214.833 63.5,213.5C 64.8333,213.5 66.1667,213.5 67.5,213.5C 67.3285,211.508 67.9951,209.842 69.5,208.5C 75.1184,207.876 78.4517,204.876 79.5,199.5C 80.9305,199.421 82.2638,199.754 83.5,200.5C 83.5536,199.313 83.8869,197.98 84.5,196.5C 84.4895,197.441 84.9895,198.108 86,198.5C 87.0299,198.164 87.5299,197.497 87.5,196.5 Z"/></g>
</svg>
