<svg width="304.000000pt" height="260.000000pt" viewBox="0 0 304.000000 260.000000" xmlns="http://www.w3.org/2000/svg">
  <g transform="translate(0.000000,260.000000) scale(0.100000,-0.100000)" fill="#fefefe" stroke="none">
    <path d="M0 1300 l0 -1300 1520 0 1520 0 0 1300 0 1300 -1520 0 -1520 0 0
-1300z m499 1211 l24 -6 55 -95 c30 -52 70 -120 87 -150 17 -30 65 -111 105
-180 40 -69 110 -192 155 -275 46 -82 117 -208 159 -280 42 -71 90 -157 108
-190 l31 -60 -118 -205 c-210 -365 -245 -428 -245 -442 l0 -14 289 1 290 0 37
63 c20 35 42 69 49 75 7 7 42 65 79 130 37 64 71 117 76 117 9 0 78 -108 98
-155 7 -16 16 -32 20 -35 5 -3 25 -36 46 -74 l38 -70 -20 -35 c-31 -59 -59
-107 -86 -150 -15 -22 -26 -43 -26 -46 0 -3 -16 -31 -35 -61 -19 -30 -35 -58
-35 -62 0 -4 -11 -19 -24 -34 l-23 -28 -690 0 c-379 0 -693 3 -696 6 -7 7 14
47 103 199 29 50 62 108 75 130 12 22 38 67 57 100 19 33 83 145 142 249 59
104 125 217 147 252 21 36 39 75 39 89 0 13 -8 39 -18 57 -58 102 -72 128
-102 178 -36 61 -51 86 -102 175 -19 33 -46 78 -60 100 -13 22 -64 112 -113
200 -48 88 -90 162 -92 165 -3 3 -50 7 -106 10 l-102 5 0 170 0 169 25 7 c32
9 327 9 359 0z m2289 -208 c12 -3 22 -9 22 -14 0 -6 -19 -42 -42 -82 -87 -150
-161 -283 -172 -304 -6 -13 -14 -23 -18 -23 -5 0 -8 -5 -8 -10 0 -6 -11 -27
-23 -48 -23 -36 -55 -92 -102 -177 -12 -22 -31 -57 -43 -77 -12 -21 -31 -55
-43 -75 -12 -21 -24 -42 -29 -48 -24 -33 -80 -148 -80 -166 0 -20 40 -98 100
-199 99 -166 224 -383 338 -590 14 -25 27 -47 29 -50 3 -3 50 -7 106 -10 l102
-5 3 -164 3 -165 -13 -8 c-7 -4 -99 -8 -204 -8 l-192 0 -43 72 c-24 40 -51 86
-60 103 -18 34 -38 68 -103 178 -25 43 -46 82 -46 86 0 5 -4 11 -8 13 -9 3
-36 49 -110 188 -24 47 -48 90 -52 95 -8 11 -27 44 -86 152 -21 37 -58 102
-83 143 -26 41 -57 96 -71 123 l-25 47 21 38 c46 83 115 203 178 311 36 62 66
115 66 116 0 2 23 41 50 88 28 47 50 89 50 95 0 5 -10 12 -22 16 -29 7 -496 8
-534 0 l-29 -6 -49 -89 c-27 -49 -53 -89 -57 -89 -4 0 -33 -45 -64 -100 -32
-55 -61 -102 -65 -105 -5 -3 -23 21 -41 52 -17 32 -40 72 -49 88 -10 17 -39
68 -65 113 l-47 84 10 21 c6 12 58 103 116 202 l104 179 19 7 c21 9 1329 11
1361 2z" />
  </g>
  <g transform="translate(0.000000,260.000000) scale(0.100000,-0.100000)" fill="#73dafd" stroke="none">
    <path d="M2300 2285 l0 -15 20 0 20 0 0 15 0 15 -20 0 -20 0 0 -15z" />
    <path d="M2440 2285 l0 -15 88 0 c48 0 94 -5 102 -10 l15 -10 -62 0 -63 0 0
-20 0 -20 -40 0 -40 0 0 -40 0 -40 -40 0 -40 0 0 -40 0 -40 -40 0 -40 0 0 -60
0 -60 -10 0 c-5 0 -10 6 -10 14 0 8 -4 17 -8 20 -5 3 -32 8 -60 12 l-52 7 0
-17 0 -16 30 0 30 0 -1 -17 c0 -10 -9 -31 -20 -48 -10 -16 -21 -37 -24 -45 -3
-8 -13 -28 -21 -43 -7 -16 -14 -37 -14 -48 l0 -19 -14 0 -14 0 -28 -57 c-15
-32 -30 -60 -34 -63 -7 -5 -58 -97 -91 -162 -10 -20 -23 -40 -29 -43 -5 -3
-10 -14 -10 -23 0 -9 -9 -28 -20 -42 l-20 -25 0 -36 0 -36 23 -21 c13 -12 31
-22 40 -22 l17 0 0 35 0 35 11 0 12 0 -5 50 -5 50 19 0 c21 0 48 22 48 40 0 6
11 22 25 35 l24 25 26 0 25 0 0 40 0 40 30 0 30 0 0 30 0 30 20 0 c11 0 20 5
20 10 l0 10 40 0 40 0 0 40 0 40 30 0 30 0 0 40 0 40 30 0 30 0 0 20 0 20 30
0 30 0 0 -20 c0 -11 -4 -20 -9 -20 -4 0 -19 -21 -32 -47 -13 -27 -27 -49 -31
-51 -14 -6 -8 -32 7 -32 8 0 15 7 15 15 0 8 3 15 8 15 4 0 18 20 32 45 14 25
28 45 32 45 3 0 10 10 14 23 4 12 15 33 25 46 11 13 19 32 19 42 0 11 6 19 14
19 7 0 21 16 30 35 9 19 21 35 26 35 6 0 10 6 10 13 0 18 24 67 33 67 4 0 7 5
7 12 0 6 17 34 38 62 43 56 68 115 59 138 l-5 15 -69 6 c-37 4 -112 7 -165 7
l-98 0 0 -15z" />
    <path d="M2040 1965 c0 -8 7 -15 15 -15 8 0 15 7 15 15 0 8 -7 15 -15 15 -8 0
-15 -7 -15 -15z" />
    <path d="M2340 1565 c0 -8 7 -15 15 -15 8 0 15 7 15 15 0 8 -7 15 -15 15 -8 0
-15 -7 -15 -15z" />
    <path d="M2320 1505 c0 -8 7 -15 15 -15 8 0 15 7 15 15 0 8 -7 15 -15 15 -8 0
-15 -7 -15 -15z" />
    <path d="M2240 1355 c0 -8 7 -15 15 -15 8 0 15 7 15 15 0 8 -7 15 -15 15 -8 0
-15 -7 -15 -15z" />
    <path d="M1110 1145 c0 -8 7 -15 15 -15 8 0 15 7 15 15 0 8 -7 15 -15 15 -8 0
-15 -7 -15 -15z" />
    <path d="M1060 1045 c0 -8 7 -15 15 -15 8 0 15 7 15 15 0 8 -7 15 -15 15 -8 0
-15 -7 -15 -15z" />
    <path d="M1630 908 l0 -20 30 4 c17 3 30 1 30 -4 0 -4 7 -8 15 -8 16 0 20 18
7 36 -4 6 -24 11 -44 11 l-38 1 0 -20z" />
    <path d="M980 906 c0 -8 -7 -16 -15 -20 -8 -3 -15 -12 -15 -21 0 -22 31 -18
37 5 3 11 9 20 14 20 5 0 9 7 9 15 0 8 -7 15 -15 15 -8 0 -15 -6 -15 -14z" />
    <path d="M920 814 c-14 -35 -13 -44 5 -44 8 0 15 7 15 15 0 8 5 15 10 15 6 0
10 9 10 20 l0 20 -15 0 c-9 0 -20 -12 -25 -26z" />
    <path d="M880 735 c0 -8 -4 -15 -8 -15 -5 0 -18 -22 -30 -49 l-22 -48 6 -17
c8 -20 36 -36 63 -36 l21 0 0 -20 0 -20 -60 0 -60 0 0 -20 0 -20 -20 0 -20 0
0 -20 0 -20 -40 0 -40 0 0 -40 0 -40 -36 0 c-19 0 -42 -6 -50 -14 -16 -17 -19
-46 -4 -46 6 0 10 -4 10 -8 0 -5 -8 -9 -17 -9 -10 1 -33 0 -50 -1 l-33 -2 0
-16 0 -15 235 5 c129 2 239 8 246 11 l11 7 -7 34 -6 34 11 0 c5 0 10 8 10 19
l0 19 -22 7 -23 8 23 4 c12 2 22 9 22 14 0 5 14 9 30 9 l30 0 0 20 0 20 40 0
40 0 0 19 0 19 40 7 40 7 0 14 0 14 80 0 80 0 0 14 c0 8 -7 17 -16 20 -8 3
-113 8 -232 12 -119 3 -227 7 -239 10 -13 2 -23 11 -23 19 0 18 32 89 43 93
13 6 7 32 -8 32 -8 0 -15 -7 -15 -15z" />
    <path d="M420 565 c0 -8 7 -15 15 -15 8 0 15 7 15 15 0 8 -7 15 -15 15 -8 0
-15 -7 -15 -15z" />
    <path d="M270 315 c0 -8 7 -15 15 -15 8 0 15 7 15 15 0 8 -7 15 -15 15 -8 0
-15 -7 -15 -15z" />
    <path d="M1020 295 c0 -8 7 -15 15 -15 8 0 15 7 15 15 0 8 -7 15 -15 15 -8 0
-15 -7 -15 -15z" />
  </g>
  <g transform="translate(0.000000,260.000000) scale(0.100000,-0.100000)" fill="#76e0fd" stroke="none">
    <path d="M2720 2290 c0 -5 5 -11 10 -11 6 -1 14 -2 19 -3 17 -2 23 -14 16 -35
l-6 -21 -11 6 -11 7 5 -13 c8 -24 24 -21 36 5 16 34 15 40 -4 59 -17 18 -54
22 -54 6z" />
    <path d="M2706 2141 c-16 -23 -32 -41 -37 -41 -5 0 -5 -7 -2 -17 l6 -16 -11 7
-12 7 0 -20 c0 -11 -4 -23 -10 -26 -12 -8 -13 -45 -1 -45 5 0 14 15 22 33 7
17 16 34 19 37 14 12 61 102 58 112 -2 5 -17 -8 -32 -31z" />
    <path d="M2530 1985 c0 -19 5 -35 10 -35 6 0 9 3 9 8 -3 18 2 33 9 28 4 -2 9
4 9 15 l2 19 -20 0 -19 0 0 -35z" />
    <path d="M2596 1960 l-17 -40 -29 0 -29 0 6 -17 6 -16 -13 8 -13 8 8 -13 8
-13 14 18 13 19 0 -15 c0 -8 -8 -26 -17 -39 -10 -14 -24 -36 -31 -50 l-12 -25
4 28 3 27 -12 0 -13 0 5 23 6 22 -20 -22 c-11 -13 -28 -23 -37 -23 l-16 0 0
-20 0 -20 -30 0 -30 0 0 -40 0 -40 -30 0 -30 0 0 -40 0 -40 -19 0 c-11 0 -21
6 -24 13 l-4 12 -20 -22 c-11 -13 -28 -23 -37 -23 l-16 0 0 -30 0 -30 -30 0
-30 0 0 -40 0 -40 -25 0 -26 0 -24 -25 c-14 -13 -25 -29 -25 -35 0 -18 -27
-40 -49 -40 -25 0 -37 -18 -22 -33 14 -14 15 -67 1 -67 -5 0 -10 -9 -10 -19 0
-11 -6 -22 -12 -24 l-13 -5 15 -11 c8 -6 10 -11 4 -11 -6 0 -20 10 -32 23 -24
25 -29 66 -10 85 17 17 2 28 -17 12 l-15 -12 0 -34 c0 -39 27 -91 89 -169 l43
-56 17 3 16 4 -1 22 -1 22 24 0 23 0 0 40 0 40 40 0 40 0 0 40 0 40 20 0 20 0
0 -25 0 -26 15 -5 c8 -4 22 0 31 7 l15 13 -2 37 -3 37 13 16 c7 8 10 20 6 26
l-6 10 11 -2 c7 -2 20 11 29 29 10 17 25 43 35 58 l18 27 -5 19 c-3 10 -1 17
3 14 5 -3 16 5 25 17 46 66 65 97 86 138 12 25 26 47 29 50 4 3 18 25 30 50
12 25 31 57 42 72 10 15 24 41 30 59 6 18 19 40 30 51 19 19 24 43 10 52 -5 3
-16 -13 -26 -34z m-126 -204 c0 -3 -5 -8 -12 -12 l-11 -7 7 11 c7 12 16 16 16
8z" />
    <path d="M2190 1955 c0 -8 4 -15 9 -15 5 0 11 7 15 15 l5 15 -14 0 c-8 0 -15
-7 -15 -15z" />
    <path d="M2052 1661 c-23 -40 -28 -61 -14 -61 6 1 52 83 52 95 0 3 -4 5 -8 5
-5 0 -18 -17 -30 -39z" />
    <path d="M1991 1556 c-8 -13 -11 -30 -9 -38 l5 -13 16 32 c19 36 20 43 9 43
-5 0 -14 -11 -21 -24z" />
    <path d="M1934 1455 c-7 -19 -14 -40 -14 -47 l0 -13 19 25 c11 13 17 28 15 32
-2 3 0 9 6 13 13 8 13 25 -1 25 -5 0 -17 -16 -25 -35z" />
    <path d="M1900 1376 c0 -9 5 -16 10 -16 6 0 10 4 10 9 0 6 -4 13 -10 16 l-10
6 0 -15z" />
    <path d="M1150 1215 c0 -8 7 -15 15 -15 8 0 15 7 15 15 0 8 -7 15 -15 15 -8 0
-15 -7 -15 -15z" />
    <path d="M2010 1031 c0 -21 13 -41 26 -41 15 0 17 10 8 34 -7 17 -34 22 -34 7z" />
    <path d="M1650 955 l-12 -14 6 -23 c3 -13 3 -17 0 -10 -9 20 -21 14 -33 -18
-5 -16 -15 -30 -21 -30 l-12 0 7 -30 7 -30 -14 0 c-7 0 -24 -17 -38 -38 -14
-20 -30 -43 -37 -49 -6 -7 -19 -32 -28 -57 l-17 -44 -30 -6 c-17 -3 -87 -6
-156 -6 -69 0 -122 -3 -118 -7 11 -11 37 -15 111 -14 39 1 77 -3 85 -9 l15
-10 -105 -1 c-58 -1 -95 -4 -82 -6 35 -7 26 -21 -18 -28 l-40 -7 0 -19 0 -19
-40 0 -40 0 0 -20 0 -20 -30 0 c-16 0 -30 -4 -30 -10 0 -5 -9 -10 -20 -10
l-20 0 0 -16 c0 -9 9 -18 20 -21 21 -6 28 -23 9 -23 l-11 0 4 -37 3 -38 -32
-3 c-18 -2 -33 -7 -33 -12 l0 -8 203 3 c111 1 217 6 235 10 17 4 32 13 32 19
0 7 -17 17 -37 22 -20 5 -38 15 -41 22 l-4 12 41 0 41 0 0 20 0 20 -40 0 -40
0 0 20 0 20 40 0 40 0 0 30 0 30 16 0 c9 0 29 14 44 30 15 17 35 30 44 30 l16
0 6 24 6 24 39 -5 39 -6 0 22 0 21 20 0 20 0 0 20 c0 11 5 20 10 20 l10 0 0
40 0 40 30 0 30 0 0 30 0 30 14 0 c8 0 17 -12 20 -26 l7 -25 22 3 22 3 3 27 3
27 -20 11 -21 11 0 33 0 34 -15 12 c-8 7 -15 18 -15 25 0 13 -21 25 -45 25 -7
0 -18 -7 -25 -15z" />
    <path d="M2030 950 c0 -11 4 -20 9 -20 21 0 41 13 41 26 l0 14 -25 0 -25 0 0
-20z" />
    <path d="M910 797 c0 -8 7 -14 15 -14 8 0 15 6 15 14 0 7 -7 13 -15 13 -8 0
-15 -6 -15 -13z" />
    <path d="M1800 725 c0 -8 7 -15 15 -15 8 0 15 7 15 15 0 8 -7 15 -15 15 -8 0
-15 -7 -15 -15z" />
  </g>
  <g transform="translate(0.000000,260.000000) scale(0.100000,-0.100000)" fill="#7ae7fd" stroke="none">
    <path d="M2615 1980 c3 -5 8 -10 11 -10 2 0 4 5 4 10 0 6 -5 10 -11 10 -5 0
-7 -4 -4 -10z" />
    <path d="M2571 1900 c-5 -17 -19 -44 -31 -59 -22 -33 -25 -41 -10 -41 6 0 10
7 10 15 0 8 5 15 10 15 6 0 10 7 10 15 0 8 3 15 8 15 7 0 32 47 32 62 0 4 -4
8 -9 8 -5 0 -14 -14 -20 -30z" />
    <path d="M2460 1705 c0 -8 5 -15 10 -15 6 0 10 7 10 15 0 8 -4 15 -10 15 -5 0
-10 -7 -10 -15z" />
    <path d="M2436 1661 c-4 -7 -5 -15 -2 -18 9 -9 19 4 14 18 l-4 13 -8 -13z" />
    <path d="M2040 1644 l0 -15 10 6 c6 3 10 10 10 16 0 5 -4 9 -10 9 -5 0 -10 -7
-10 -16z" />
    <path d="M2412 1633 c1 -4 -6 -21 -16 -36 -21 -31 -13 -51 8 -21 20 26 26 53
15 60 -5 3 -8 2 -7 -3z" />
    <path d="M2347 1520 c-19 -28 -21 -40 -7 -40 6 0 10 6 10 14 0 8 5 16 12 18 6
2 9 10 6 18 l-4 14 -17 -24z" />
    <path d="M2318 1465 c-19 -31 -48 -86 -48 -90 0 -3 4 -5 10 -5 12 0 52 78 47
93 l-3 11 -6 -9z" />
    <path d="M1900 1364 l0 -15 10 6 c6 4 8 11 5 16 -9 14 -15 11 -15 -7z" />
    <path d="M2231 1329 l-24 -20 15 -16 16 -15 12 21 c6 12 10 28 8 36 l-3 14
-24 -20z" />
    <path d="M2130 1241 l0 -41 -40 0 -40 0 0 -40 0 -40 -37 0 -36 0 17 -19 17
-19 -9 -6 c-5 -3 -17 3 -27 14 -10 11 -15 20 -12 20 3 0 -7 12 -21 28 -15 15
-35 38 -44 52 l-17 25 0 -17 c-1 -10 4 -18 9 -18 6 0 10 -7 10 -15 0 -8 5 -15
10 -15 6 0 10 -6 10 -13 0 -8 14 -33 30 -55 17 -23 30 -47 30 -54 0 -6 10 -27
23 -45 l22 -33 13 5 12 4 -6 -23 -5 -23 40 -51 c23 -28 41 -58 41 -65 0 -8 7
-20 15 -27 8 -7 15 -25 15 -41 l0 -29 15 0 c8 0 20 10 26 23 7 12 25 34 41 49
l28 26 0 36 0 36 40 0 40 0 0 40 0 40 10 0 c6 0 10 -7 10 -14 0 -18 43 -66 59
-66 15 0 14 19 -4 54 -8 15 -15 36 -15 46 0 10 -7 23 -15 30 -8 7 -15 18 -15
25 0 7 -20 46 -45 87 -24 40 -52 90 -61 111 -9 20 -19 37 -23 37 -3 0 -12 -9
-19 -20 -15 -25 -34 -17 -30 13 l3 22 -32 3 -33 3 0 -40z" />
    <path d="M1685 960 c3 -5 10 -10 16 -10 5 0 9 5 9 10 0 6 -7 10 -16 10 l-15 0
6 -10z" />
    <path d="M1635 939 c-10 -31 0 -33 19 -4 l16 25 -14 0 c-8 0 -18 -9 -21 -21z" />
    <path d="M1736 892 c-3 -5 -1 -25 5 -45 l10 -37 11 3 c16 3 16 -35 1 -40 -7
-3 -14 0 -14 6 -1 6 -2 17 -3 24 0 6 -13 13 -28 15 l-28 3 0 -30 0 -31 -30 0
-30 0 0 -40 0 -40 -10 0 c-5 0 -10 -9 -10 -20 l0 -20 -20 0 -20 0 0 -20 0 -20
-20 0 -20 0 0 20 c0 11 -4 20 -10 20 -5 0 -10 -6 -10 -14 0 -8 -7 -16 -15 -20
-8 -3 -15 -9 -14 -13 4 -21 -3 -33 -17 -33 -9 0 -29 -13 -44 -30 -15 -16 -35
-30 -44 -30 l-16 0 0 -30 0 -30 -40 0 -40 0 0 -30 0 -30 40 0 40 0 0 -10 0
-10 -41 0 -40 0 3 -22 3 -22 40 -12 39 -11 -33 -6 c-18 -4 -48 -7 -67 -7 -18
0 -35 -4 -38 -9 l-6 -9 204 3 204 2 26 20 c14 12 26 27 26 35 0 8 5 19 11 25
6 6 16 20 23 32 6 11 25 44 43 74 18 31 35 66 38 79 4 14 17 36 30 50 13 14
29 44 36 66 l12 40 -22 23 c-11 12 -21 31 -21 40 0 10 -5 21 -10 24 -6 4 -24
33 -40 66 -17 32 -32 59 -35 59 -2 0 -6 -4 -9 -8z" />
    <path d="M1600 864 l0 -15 10 6 c6 3 10 10 10 16 0 5 -4 9 -10 9 -5 0 -10 -7
-10 -16z" />
    <path d="M2450 855 c0 -8 7 -15 15 -15 8 0 15 7 15 15 0 8 -7 15 -15 15 -8 0
-15 -7 -15 -15z" />
    <path d="M1580 831 c0 -12 5 -21 10 -21 6 0 10 6 10 14 0 8 -4 18 -10 21 l-10
6 0 -20z" />
    <path d="M1474 673 c-16 -32 -30 -61 -32 -65 -2 -5 3 -8 10 -8 l14 0 23 55
c13 30 27 55 32 55 5 0 9 5 9 10 0 6 -6 10 -14 10 -7 0 -26 -26 -42 -57z" />
    <path d="M2190 645 c0 -8 7 -15 15 -15 8 0 15 7 15 15 0 8 -7 15 -15 15 -8 0
-15 -7 -15 -15z" />
    <path d="M2220 595 c0 -8 7 -15 15 -15 8 0 15 7 15 15 0 8 -7 15 -15 15 -8 0
-15 -7 -15 -15z" />
  </g>
  <g transform="translate(0.000000,260.000000) scale(0.100000,-0.100000)" fill="#6bcffe" stroke="none">
    <path d="M490 2505 c0 -8 7 -15 15 -15 8 0 15 7 15 15 0 8 -7 15 -15 15 -8 0
-15 -7 -15 -15z" />
    <path d="M540 2451 c0 -21 13 -41 26 -41 15 0 17 10 8 34 -7 17 -34 22 -34 7z" />
    <path d="M100 2380 l0 -50 15 0 15 0 0 50 0 50 -15 0 -15 0 0 -50z" />
    <path d="M1480 2295 c0 -8 7 -15 15 -15 8 0 15 7 15 15 0 8 -7 15 -15 15 -8 0
-15 -7 -15 -15z" />
    <path d="M1830 2286 l0 -16 63 -1 c34 0 82 -4 107 -8 l45 -7 -42 -8 -43 -8 0
-24 0 -24 -20 0 -20 0 0 -26 0 -26 -20 -5 -20 -5 0 -19 0 -19 -20 0 -20 0 0
-20 c0 -11 -4 -20 -10 -20 -5 0 -10 -7 -10 -16 0 -8 -6 -22 -14 -30 l-15 -14
-55 0 -56 0 0 -17 0 -16 183 7 c100 3 194 9 210 12 l27 6 0 14 0 14 -20 0
c-11 0 -20 5 -20 10 0 6 9 10 20 10 l20 0 0 40 0 40 20 0 c11 0 20 5 20 10 0
6 9 10 20 10 l20 0 0 30 0 30 40 0 40 0 0 19 0 19 31 6 c17 3 44 6 60 6 l29 0
0 19 0 18 -62 7 c-35 3 -159 9 -275 12 l-213 5 0 -15z" />
    <path d="M670 2215 c0 -8 7 -15 15 -15 8 0 15 7 15 15 0 8 -7 15 -15 15 -8 0
-15 -7 -15 -15z" />
    <path d="M1350 2205 c0 -8 -4 -15 -8 -15 -5 0 -17 -19 -28 -42 -10 -24 -24
-49 -31 -56 -18 -18 -16 -42 2 -42 l15 0 6 25 c3 14 10 25 14 25 4 0 16 20 27
45 10 25 21 45 26 45 4 0 7 7 7 15 0 8 -7 15 -15 15 -8 0 -15 -7 -15 -15z" />
    <path d="M710 2161 c0 -21 13 -41 26 -41 15 0 17 10 8 34 -7 17 -34 22 -34 7z" />
    <path d="M750 2091 c0 -21 13 -41 26 -41 15 0 17 10 8 34 -7 17 -34 22 -34 7z" />
    <path d="M360 2065 c0 -8 7 -15 15 -15 8 0 15 7 15 15 0 8 -7 15 -15 15 -8 0
-15 -7 -15 -15z" />
    <path d="M1232 2005 c-16 -34 -15 -45 1 -45 13 0 37 40 37 60 0 20 -27 9 -38
-15z" />
    <path d="M400 1995 c0 -8 7 -15 15 -15 8 0 15 7 15 15 0 8 -7 15 -15 15 -8 0
-15 -7 -15 -15z" />
    <path d="M800 1995 c0 -8 7 -15 15 -15 8 0 15 7 15 15 0 8 -7 15 -15 15 -8 0
-15 -7 -15 -15z" />
    <path d="M1613 1970 l-22 -9 -7 -26 c-3 -14 -10 -25 -15 -25 -5 0 -18 -18 -29
-40 -11 -22 -24 -40 -29 -40 -5 0 -26 -30 -46 -67 -21 -38 -49 -83 -62 -101
l-24 -32 -12 12 c-7 7 -25 32 -41 56 -16 23 -32 42 -35 42 -4 0 -13 16 -20 35
-7 19 -17 35 -22 35 -5 0 -9 6 -9 14 0 8 -7 22 -16 31 l-16 16 6 34 7 35 -14
0 c-8 0 -18 -7 -21 -16 -9 -25 -7 -64 4 -64 6 0 10 -6 10 -14 0 -8 6 -21 13
-28 7 -7 19 -28 26 -45 7 -18 17 -33 22 -33 5 0 9 -4 9 -9 0 -6 19 -39 41 -75
l41 -66 23 0 23 0 34 53 c19 28 47 75 63 102 16 28 34 55 40 60 7 6 23 30 36
55 32 60 59 90 81 90 l18 0 0 15 0 15 -17 -1 c-10 0 -28 -4 -40 -9z" />
    <path d="M830 1951 c0 -21 13 -41 26 -41 15 0 17 10 8 34 -7 17 -34 22 -34 7z" />
    <path d="M440 1915 c0 -8 7 -15 15 -15 8 0 15 7 15 15 0 8 -7 15 -15 15 -8 0
-15 -7 -15 -15z" />
    <path d="M870 1875 c0 -8 7 -15 15 -15 8 0 15 7 15 15 0 8 -7 15 -15 15 -8 0
-15 -7 -15 -15z" />
    <path d="M890 1830 c0 -20 24 -60 37 -60 16 0 17 11 1 45 -11 24 -38 35 -38
15z" />
    <path d="M520 1775 c0 -8 7 -15 15 -15 8 0 15 7 15 15 0 8 -7 15 -15 15 -8 0
-15 -7 -15 -15z" />
    <path d="M950 1715 c0 -8 5 -15 10 -15 6 0 10 -7 10 -15 0 -8 7 -15 15 -15 8
0 15 7 15 15 0 8 -4 15 -10 15 -5 0 -10 7 -10 15 0 8 -7 15 -15 15 -8 0 -15
-7 -15 -15z" />
    <path d="M990 1650 c0 -16 23 -60 32 -60 4 0 8 -6 8 -14 0 -18 32 -76 43 -76
4 0 7 -8 7 -17 1 -10 14 -43 30 -73 17 -30 30 -61 30 -67 l0 -13 -35 0 -35 0
0 -20 0 -20 -20 0 -20 0 0 -20 0 -20 -19 0 -20 0 -3 -37 -3 -38 -37 -3 -38 -3
0 -25 c0 -33 -22 -54 -54 -54 l-26 0 0 -20 0 -20 -15 0 c-9 0 -27 -11 -40 -25
l-25 -24 0 -26 0 -25 -16 0 c-20 0 -44 -24 -44 -44 l0 -16 -19 0 -20 0 -6 -20
c-7 -21 -25 -28 -25 -10 0 6 5 10 10 10 6 0 10 7 10 15 0 8 5 15 10 15 6 0 10
9 10 19 0 11 4 21 8 23 10 4 92 155 92 169 0 14 26 39 39 39 6 0 11 8 11 19 0
10 7 35 15 54 8 20 15 48 15 62 l0 25 -15 0 -15 0 0 -21 c0 -21 -28 -90 -41
-99 -3 -3 -10 -16 -14 -30 -4 -14 -11 -27 -14 -30 -7 -5 -80 -131 -139 -240
-19 -36 -41 -72 -48 -81 -8 -8 -14 -23 -14 -31 0 -9 -7 -21 -15 -28 -8 -7 -15
-21 -15 -30 0 -10 -4 -20 -9 -22 -15 -5 -72 -119 -65 -130 l7 -11 -10 6 -10 6
-34 -65 c-18 -36 -37 -68 -41 -70 -5 -3 -8 -13 -8 -22 0 -9 -14 -37 -30 -62
-16 -25 -30 -50 -30 -56 0 -18 20 -22 78 -16 l52 5 0 18 c0 9 -8 20 -17 22
l-18 5 18 1 c9 0 17 6 17 11 0 6 14 10 30 10 l30 0 0 40 0 40 10 0 c6 0 10 9
10 20 l0 20 20 0 20 0 0 40 0 40 40 0 40 0 0 40 0 40 40 0 40 0 0 20 0 20 20
0 20 0 0 40 0 40 58 0 c31 0 52 -4 46 -8 -13 -8 -34 -46 -34 -61 0 -6 11 -11
24 -11 l24 0 30 48 c39 60 92 163 92 180 0 6 7 12 15 12 8 0 15 5 15 11 0 7
17 34 37 60 20 27 38 54 39 62 1 7 13 30 28 51 14 22 24 41 21 44 -3 3 8 17
23 31 29 29 52 82 52 122 0 13 -6 36 -14 51 -59 113 -81 154 -86 158 -3 3 -14
24 -24 48 -11 23 -22 42 -26 42 -3 0 -12 16 -19 35 l-12 35 -15 0 c-8 0 -14
-4 -14 -10z m-41 -677 c-7 -10 -15 -20 -16 -22 -2 -2 -3 5 -3 17 l0 22 16 0
16 0 -13 -17z m-344 -178 c-10 -19 -20 -33 -23 -30 -3 2 3 20 13 40 25 45 32
37 10 -10z m275 29 c0 -3 -7 -12 -15 -20 l-15 -15 0 20 0 21 15 0 c8 0 15 -3
15 -6z" />
    <path d="M640 1585 c0 -8 7 -15 15 -15 8 0 15 7 15 15 0 8 -7 15 -15 15 -8 0
-15 -7 -15 -15z" />
    <path d="M670 1535 c0 -8 7 -15 15 -15 8 0 15 7 15 15 0 8 -7 15 -15 15 -8 0
-15 -7 -15 -15z" />
    <path d="M710 1465 c0 -8 5 -15 10 -15 6 0 10 -7 10 -15 0 -8 7 -15 15 -15 8
0 15 7 15 15 0 8 -4 15 -10 15 -5 0 -10 7 -10 15 0 8 -7 15 -15 15 -8 0 -15
-7 -15 -15z" />
    <path d="M770 1371 c0 -21 13 -41 26 -41 15 0 17 10 8 34 -7 17 -34 22 -34 7z" />
  </g>
  <g transform="translate(0.000000,260.000000) scale(0.100000,-0.100000)" fill="#70d3fd" stroke="none">
    <path d="M100 2422 l0 -39 15 0 15 0 0 39 0 38 -15 0 -15 0 0 -38z m17 -19
c-4 -3 -7 0 -7 7 0 7 3 10 7 7 3 -4 3 -10 0 -14z" />
    <path d="M100 2313 l0 -33 15 0 15 0 0 33 0 34 -15 0 -15 0 0 -34z" />
    <path d="M620 2305 c0 -8 7 -15 15 -15 8 0 15 7 15 15 0 8 -7 15 -15 15 -8 0
-15 -7 -15 -15z" />
    <path d="M1413 2303 c-7 -2 -13 -12 -13 -20 l0 -15 23 6 c12 3 61 6 110 6 l87
0 0 15 0 15 -97 -1 c-54 0 -104 -3 -110 -6z" />
    <path d="M2025 2290 l6 -10 97 1 c117 1 242 -10 242 -22 0 -5 -13 -9 -29 -9
-16 0 -43 -3 -60 -6 l-31 -6 0 -19 0 -19 -40 0 -40 0 0 -30 0 -30 -20 0 c-11
0 -20 -4 -20 -10 0 -5 -9 -10 -20 -10 l-20 0 0 -40 0 -40 -20 0 -20 0 0 -20 0
-20 23 -1 22 -1 -30 -10 c-16 -5 -116 -10 -221 -11 l-191 -2 0 -12 0 -13 204
0 c112 0 202 3 200 8 -3 4 26 7 64 8 37 1 66 -3 63 -7 -2 -4 9 -6 27 -4 l31 4
5 -20 5 -19 19 0 19 0 0 60 0 60 40 0 40 0 0 40 0 40 40 0 40 0 0 40 0 40 40
0 40 0 0 20 0 20 58 0 c31 0 63 4 70 8 l13 9 -26 11 -26 12 -85 0 -85 0 7 11
7 12 -59 -7 c-32 -4 -67 -10 -78 -13 l-19 -5 7 11 7 11 -151 0 -151 0 6 -10z" />
    <path d="M100 2235 l0 -25 15 0 15 0 0 25 0 25 -15 0 -15 0 0 -25z" />
    <path d="M1360 2225 c0 -8 7 -15 15 -15 8 0 15 7 15 15 0 8 -7 15 -15 15 -8 0
-15 -7 -15 -15z" />
    <path d="M330 2115 c0 -8 7 -15 15 -15 8 0 15 7 15 15 0 8 -7 15 -15 15 -8 0
-15 -7 -15 -15z" />
    <path d="M370 2045 c0 -8 7 -15 15 -15 8 0 15 7 15 15 0 8 -7 15 -15 15 -8 0
-15 -7 -15 -15z" />
    <path d="M1250 2035 c0 -8 7 -15 15 -15 8 0 15 7 15 15 0 8 -7 15 -15 15 -8 0
-15 -7 -15 -15z" />
    <path d="M1613 1958 c1 -7 -4 -12 -10 -10 -15 2 -17 -14 -3 -23 11 -7 40 18
40 34 0 6 -7 11 -15 11 -8 0 -14 -6 -12 -12z" />
    <path d="M1200 1945 c0 -8 7 -15 15 -15 8 0 15 7 15 15 0 8 -7 15 -15 15 -8 0
-15 -7 -15 -15z" />
    <path d="M2230 1930 c0 -29 -1 -34 -9 -45 -4 -5 -11 -19 -14 -30 l-7 -20 14
18 14 18 4 -11 c1 -5 4 12 5 40 1 27 0 50 -3 50 -2 0 -4 -9 -4 -20z" />
    <path d="M1550 1883 c-8 -21 -15 -45 -15 -53 l-1 -15 -16 1 -16 2 5 -16 6 -15
-11 7 -12 7 6 -14 c3 -8 0 -18 -7 -23 l-12 -7 7 11 c4 7 5 12 2 12 -3 0 -10
-10 -17 -21 l-11 -21 11 6 11 7 -6 -15 c-3 -9 -10 -14 -14 -11 -4 3 -7 -3 -6
-13 0 -9 -4 -16 -11 -15 -6 1 -14 -4 -17 -13 l-6 -15 11 7 11 6 -11 -20 c-6
-12 -17 -24 -24 -28 l-12 -8 15 20 15 19 -17 -13 -17 -13 6 -15 5 -14 -17 -7
-18 -6 -13 18 c-7 10 -11 22 -7 28 l6 10 -13 -8 -13 -8 6 17 7 17 -12 -7 -11
-7 6 16 6 17 -12 -3 -12 -2 3 16 2 16 -15 0 c-15 0 -21 -23 -7 -29 4 -1 18
-24 31 -51 l24 -47 25 -7 25 -6 24 29 c13 16 29 44 35 62 7 17 15 32 18 32 3
0 16 20 30 45 14 25 28 45 32 45 5 0 8 7 8 15 0 8 3 15 8 15 11 0 42 59 42 81
0 32 -25 21 -40 -18z m30 13 c0 -3 -5 -8 -12 -12 l-11 -7 7 11 c7 12 16 16 16
8z" />
    <path d="M1190 1858 c0 -22 17 -41 29 -34 6 4 11 12 11 17 0 6 -4 7 -10 4
l-10 -6 6 15 6 16 -16 0 c-9 0 -16 -6 -16 -12z" />
    <path d="M880 1845 c0 -8 7 -15 15 -15 8 0 15 7 15 15 0 8 -7 15 -15 15 -8 0
-15 -7 -15 -15z" />
    <path d="M2180 1818 c0 -8 7 -15 15 -15 18 0 15 19 -3 25 -7 2 -12 -3 -12 -10z" />
    <path d="M1220 1808 c0 -22 17 -41 29 -34 6 4 11 12 11 17 0 6 -4 7 -10 4
l-10 -6 6 15 6 16 -16 0 c-9 0 -16 -6 -16 -12z" />
    <path d="M2150 1811 c0 -5 5 -13 10 -16 6 -3 10 -2 10 4 0 5 -4 13 -10 16 -5
3 -10 2 -10 -4z" />
    <path d="M930 1761 c0 -21 13 -41 26 -41 15 0 17 10 8 34 -7 17 -34 22 -34 7z" />
    <path d="M2106 1744 c-3 -9 -4 -20 0 -25 l5 -9 20 10 19 11 0 -11 c0 -5 5 -10
10 -10 l10 0 -12 19 c-7 11 -16 17 -20 15 -4 -3 -8 0 -8 5 0 17 -17 13 -24 -5z" />
    <path d="M590 1665 c0 -8 7 -15 15 -15 8 0 15 7 15 15 0 8 -7 15 -15 15 -8 0
-15 -7 -15 -15z" />
    <path d="M980 1665 c0 -8 7 -15 15 -15 8 0 15 7 15 15 0 8 -7 15 -15 15 -8 0
-15 -7 -15 -15z" />
    <path d="M620 1615 c0 -8 7 -15 15 -15 8 0 15 7 15 15 0 8 -7 15 -15 15 -8 0
-15 -7 -15 -15z" />
    <path d="M1027 1603 c-12 -11 -8 -23 8 -23 8 0 15 7 15 15 0 16 -12 20 -23 8z" />
    <path d="M650 1565 c0 -8 7 -15 15 -15 8 0 15 7 15 15 0 8 -7 15 -15 15 -8 0
-15 -7 -15 -15z" />
    <path d="M1077 1513 c-12 -11 -8 -23 8 -23 8 0 15 7 15 15 0 16 -12 20 -23 8z" />
    <path d="M1097 1473 c-11 -11 -8 -23 6 -20 l12 2 -1 -17 c-1 -10 2 -16 6 -13
4 3 11 -2 14 -11 l6 -15 -10 6 -10 6 6 -15 6 -16 11 7 10 6 -6 -17 -7 -17 9 5
c7 5 17 -8 26 -34 1 -3 5 -13 10 -24 l8 -19 -12 -34 c-7 -19 -10 -37 -7 -41
12 -11 35 33 36 66 l0 34 -37 66 c-20 37 -41 69 -45 70 -4 2 -8 10 -8 18 0 15
-12 19 -23 7z" />
    <path d="M720 1444 c0 -17 22 -14 28 4 2 7 -3 12 -12 12 -9 0 -16 -7 -16 -16z" />
    <path d="M740 1421 c0 -21 13 -41 26 -41 15 0 17 10 8 34 -7 17 -34 22 -34 7z" />
    <path d="M790 1325 c0 -8 7 -15 15 -15 8 0 15 7 15 15 0 8 -7 15 -15 15 -8 0
-15 -7 -15 -15z" />
    <path d="M810 1280 c0 -9 7 -17 15 -17 8 0 15 8 15 17 0 9 -7 17 -15 17 -8 0
-15 -8 -15 -17z" />
    <path d="M790 1227 c0 -9 -5 -17 -12 -19 l-12 -4 7 -17 c9 -24 24 -21 23 6
l-1 22 13 -3 14 -3 -4 13 c-6 18 -28 22 -28 5z" />
    <path d="M1142 1187 c-6 -6 -12 -19 -14 -27 -4 -16 -14 -33 -44 -65 l-21 -23
7 -12 7 -12 -33 -36 c-19 -21 -40 -49 -47 -64 -6 -16 -19 -28 -28 -28 l-16 0
4 -24 5 -24 16 3 c10 1 16 10 16 19 -1 8 2 13 7 11 4 -3 16 9 25 27 9 18 45
81 80 141 35 59 64 112 64 117 0 14 -16 12 -28 -3z" />
    <path d="M744 1146 c-3 -14 -9 -26 -13 -26 -3 0 -24 -35 -46 -77 -22 -43 -43
-79 -47 -81 -14 -6 -8 -29 7 -29 l15 0 -2 16 -3 16 12 -2 12 -3 -6 17 -6 16
11 -7 12 -7 -7 17 -6 17 11 -7 12 -7 -6 14 c-3 8 0 18 7 23 l12 7 -7 -11 c-4
-7 -5 -12 -2 -12 3 0 13 14 22 31 8 17 11 28 5 25 l-11 -7 6 15 c3 9 10 13 15
10 l9 -5 -6 15 -6 16 17 0 17 0 -6 16 -6 15 11 -7 12 -7 -5 13 c-2 8 -9 15
-16 18 l-11 3 -7 -25z" />
    <path d="M920 970 l0 -30 14 0 c8 0 20 -2 28 -3 7 -2 10 -2 5 0 -4 3 -4 10 -1
15 l7 11 -14 -7 c-8 -4 -6 -1 3 7 10 8 14 18 10 22 l-7 8 18 -6 18 -7 -6 10
c-3 6 -22 10 -41 10 l-34 0 0 -30z" />
    <path d="M581 866 c-17 -31 -31 -60 -31 -65 0 -5 8 -8 18 -6 l17 2 -3 18 -3
17 10 -7 11 -6 -7 17 -6 17 11 -7 12 -7 -7 17 -6 17 12 -7 12 -8 -3 18 -3 19
13 -3 14 -3 -4 13 c-9 27 -27 16 -57 -36z" />
    <path d="M840 840 l0 -80 -60 0 -60 0 0 -40 0 -40 -20 0 -20 0 0 -20 0 -20
-40 0 -40 0 0 -40 0 -40 -40 0 -40 0 0 -40 0 -40 -20 0 -20 0 0 -20 c0 -11 -4
-20 -10 -20 l-10 0 0 -40 0 -40 -30 0 c-16 0 -30 -4 -30 -10 0 -5 -7 -10 -15
-10 -8 0 -15 -7 -15 -15 0 -8 7 -15 15 -15 8 0 15 -4 15 -9 0 -5 -21 -11 -47
-13 l-46 -3 -14 13 c-15 15 -17 26 -4 17 12 -7 61 63 61 87 0 9 4 19 8 22 5 3
25 38 46 78 45 88 58 111 69 119 5 3 9 10 9 15 1 17 21 54 30 54 4 0 8 5 8 10
0 21 -29 9 -43 -17 -7 -16 -41 -77 -75 -136 -34 -60 -62 -110 -62 -112 0 -1
-16 -29 -35 -61 -38 -63 -44 -98 -19 -108 9 -3 63 -6 120 -6 l105 0 -7 11 -7
12 14 -5 c8 -3 24 -1 36 3 l22 8 -6 -14 -5 -15 47 0 46 0 -6 10 c-3 6 -16 11
-28 12 -12 0 -2 4 23 8 l45 7 -38 1 c-21 1 -45 9 -53 17 l-15 15 15 15 15 15
35 0 36 0 0 40 0 40 40 0 40 0 0 20 0 20 20 0 20 0 0 20 0 20 60 0 60 0 0 20
0 20 33 1 32 1 -63 12 c-34 7 -68 19 -75 26 l-12 13 12 -7 13 -7 -6 15 c-3 9
-11 13 -17 9 l-10 -6 7 12 c4 6 12 8 18 5 l11 -7 -5 21 c-4 12 -3 20 2 17 10
-6 22 24 14 36 -3 5 0 8 8 7 l13 -3 -1 17 c-1 10 2 15 7 13 12 -8 30 31 23 49
l-6 16 16 -6 16 -6 0 11 c0 6 -5 11 -11 11 -5 0 -7 5 -4 11 4 6 10 8 13 5 7
-8 32 14 32 28 0 7 -8 12 -18 13 l-19 1 -26 -56 c-15 -31 -36 -68 -47 -82
l-20 -25 0 28 0 28 12 -7 11 -7 -6 17 -7 17 9 -6 c12 -7 24 13 26 42 l1 23
-18 0 -18 0 0 40 0 40 -10 0 -10 0 0 -80z m5 -148 c-3 -3 -12 -7 -20 -8 l-14
-2 6 13 5 14 14 -6 c8 -3 12 -8 9 -11z" />
    <path d="M920 910 c0 -5 5 -10 10 -10 6 0 10 5 10 10 0 6 -4 10 -10 10 -5 0
-10 -4 -10 -10z" />
    <path d="M916 853 l-7 -18 12 12 c7 7 10 15 7 18 -3 3 -9 -2 -12 -12z" />
    <path d="M526 764 c-3 -9 -6 -20 -6 -26 l0 -10 17 13 17 14 -9 -15 -8 -15 13
12 c13 12 7 43 -9 43 -5 0 -12 -7 -15 -16z" />
    <path d="M425 450 c3 -5 8 -10 11 -10 3 0 2 5 -1 10 -3 6 -8 10 -11 10 -3 0
-2 -4 1 -10z" />
    <path d="M334 328 l-7 -11 11 7 c7 4 12 9 12 12 0 8 -9 4 -16 -8z" />
  </g>
  <g transform="translate(0.000000,260.000000) scale(0.100000,-0.100000)" fill="#63c9fd" stroke="none">
    <path d="M120 2505 c0 -8 7 -15 15 -15 8 0 15 7 15 15 0 8 -7 15 -15 15 -8 0
-15 -7 -15 -15z" />
    <path d="M520 2475 c0 -8 7 -15 15 -15 8 0 15 7 15 15 0 8 -7 15 -15 15 -8 0
-15 -7 -15 -15z" />
    <path d="M590 2361 c0 -21 13 -41 26 -41 15 0 17 10 8 34 -7 17 -34 22 -34 7z" />
    <path d="M630 2290 c0 -20 24 -60 37 -60 16 0 17 11 1 45 -11 24 -38 35 -38
15z" />
    <path d="M1391 2274 c-12 -15 -19 -34 -16 -41 l5 -14 -11 7 -12 7 5 -13 c8
-24 23 -20 43 13 l20 32 23 3 c24 4 31 22 8 22 -8 0 -21 3 -29 6 l-15 5 -21
-27z" />
    <path d="M1610 2285 l0 -15 78 -2 c42 -1 85 -2 95 -1 l17 0 0 -19 0 -18 -20 0
c-11 0 -20 -4 -20 -10 0 -5 -9 -10 -20 -10 l-20 0 0 -20 0 -20 -20 0 -20 0 0
-20 0 -20 -20 0 -20 0 0 -20 0 -20 -20 0 -20 0 0 -20 0 -20 -20 0 -20 0 0 -20
0 -20 -20 0 -20 0 0 -40 0 -40 -25 0 -25 0 0 -20 0 -20 -39 0 -38 0 -7 -40 -6
-40 -15 0 -15 0 0 -17 0 -18 -35 0 -36 0 -14 25 c-7 14 -21 40 -31 59 l-17 33
11 32 c15 42 15 46 -4 46 l-16 0 6 -16 c3 -8 2 -13 -3 -10 -4 3 -13 -6 -20
-20 -14 -32 -14 -47 0 -38 l11 7 -6 -21 -7 -20 12 -8 12 -7 -7 11 c-4 7 -5 12
-2 12 3 0 10 -10 17 -21 l11 -21 -12 7 -12 7 11 -21 c7 -11 14 -21 17 -21 3 0
2 5 -1 10 -3 6 -4 10 -1 10 3 0 10 -10 17 -21 l11 -21 -11 6 -11 7 6 -15 c3
-9 10 -13 15 -10 5 3 6 -1 3 -9 -3 -8 3 -20 12 -28 l18 -14 -9 14 -8 14 12 -7
c6 -4 10 -15 9 -24 l-3 -17 12 2 c7 2 18 -7 24 -19 6 -12 20 -30 29 -40 l17
-19 28 33 c16 18 32 32 36 31 5 -2 5 5 2 14 l-6 16 13 -8 13 -8 -7 11 c-4 6
-2 21 4 32 l11 21 11 -7 11 -7 -7 11 c-4 6 0 25 9 42 l16 31 17 -3 17 -3 -3
19 -3 18 10 -7 11 -6 -7 17 -6 17 13 -8 13 -8 -6 11 c-10 15 3 41 18 36 7 -3
15 2 19 11 l6 16 -11 -7 -11 -6 12 21 11 22 21 -7 21 -6 -7 11 c-4 6 -4 11 1
11 70 3 159 14 161 21 2 5 13 9 25 10 12 0 16 3 10 6 -15 6 -17 33 -3 33 6 0
10 9 10 20 l0 20 20 0 20 0 0 19 0 19 20 5 20 5 0 26 0 26 20 0 20 0 0 24 0
24 40 7 40 7 0 14 0 14 -22 1 c-13 1 -27 2 -33 4 -5 1 -43 3 -83 3 l-73 2 6
10 6 10 -120 0 -121 0 0 -15z" />
    <path d="M680 2195 c0 -8 7 -15 15 -15 8 0 15 7 15 15 0 8 -7 15 -15 15 -8 0
-15 -7 -15 -15z" />
    <path d="M1344 2184 c3 -8 2 -13 -3 -10 -10 7 -33 -42 -25 -55 3 -5 0 -8 -8
-7 l-13 3 1 -17 2 -18 -10 6 -11 7 5 -13 c10 -30 26 -18 56 39 18 32 32 64 32
70 0 6 -7 11 -16 11 l-16 0 6 -16z" />
    <path d="M120 2165 c0 -8 7 -15 15 -15 8 0 15 7 15 15 0 8 -7 15 -15 15 -8 0
-15 -7 -15 -15z" />
    <path d="M320 2135 c0 -8 7 -15 15 -15 8 0 15 7 15 15 0 8 -7 15 -15 15 -8 0
-15 -7 -15 -15z" />
    <path d="M350 2085 c0 -8 7 -15 15 -15 8 0 15 7 15 15 0 8 -7 15 -15 15 -8 0
-15 -7 -15 -15z" />
    <path d="M770 2045 c0 -8 7 -15 15 -15 8 0 15 7 15 15 0 8 -7 15 -15 15 -8 0
-15 -7 -15 -15z" />
    <path d="M1264 2044 c3 -8 2 -13 -3 -10 -10 7 -33 -42 -26 -55 11 -17 23 -9
39 23 20 40 20 58 0 58 l-16 0 6 -16z" />
    <path d="M390 2015 c0 -8 7 -15 15 -15 8 0 15 7 15 15 0 8 -7 15 -15 15 -8 0
-15 -7 -15 -15z" />
    <path d="M810 1975 c0 -8 7 -15 15 -15 8 0 15 7 15 15 0 8 -7 15 -15 15 -8 0
-15 -7 -15 -15z" />
    <path d="M430 1935 c0 -8 7 -15 15 -15 8 0 15 7 15 15 0 8 -7 15 -15 15 -8 0
-15 -7 -15 -15z" />
    <path d="M470 1865 c0 -8 7 -15 15 -15 8 0 15 7 15 15 0 8 -7 15 -15 15 -8 0
-15 -7 -15 -15z" />
    <path d="M880 1836 c0 -6 5 -18 10 -26 l9 -15 11 11 c6 6 8 17 5 26 -7 17 -35
20 -35 4z" />
    <path d="M500 1821 c0 -21 13 -41 26 -41 15 0 17 10 8 34 -7 17 -34 22 -34 7z" />
    <path d="M537 1773 c-12 -11 -8 -23 8 -23 8 0 15 7 15 15 0 16 -12 20 -23 8z" />
    <path d="M920 1770 c0 -12 49 -113 59 -120 17 -13 72 -160 65 -171 -3 -5 -16
-9 -30 -9 -13 0 -24 -4 -24 -10 l0 -10 -40 0 -40 0 0 -40 0 -40 -20 0 -20 0 0
-19 c0 -10 -7 -22 -16 -25 -9 -4 -17 -5 -18 -4 -2 6 -26 45 -76 126 l-51 82
-14 0 c-19 0 -19 -15 1 -45 l16 -25 11 7 10 6 -7 -11 c-7 -12 27 -75 36 -66 3
3 5 -3 5 -13 l-2 -18 13 3 c8 1 11 -2 8 -7 -8 -12 4 -42 14 -36 4 3 7 -3 6
-13 l-1 -17 13 3 12 2 0 -21 0 -20 -12 7 -11 7 6 -16 c8 -20 -2 -49 -13 -42
-5 3 -6 -5 -2 -17 l5 -21 -19 6 -19 7 20 -16 20 -16 -22 5 -22 5 5 -13 c3 -7
0 -16 -7 -21 l-12 -7 8 13 8 13 -12 -7 c-7 -5 -10 -15 -7 -23 7 -18 -12 -56
-24 -48 l-10 6 7 -17 6 -17 -13 8 -13 8 7 -11 c3 -6 -4 -31 -16 -57 l-22 -46
-13 5 -12 5 6 -16 6 -16 -14 8 -14 9 15 -19 15 -19 -16 6 -17 7 6 -21 5 -21
-17 6 -17 7 7 -11 c9 -15 -38 -110 -51 -105 -5 2 -10 -6 -11 -18 0 -11 -4 -29
-8 -38 l-8 -18 28 1 29 0 -20 8 -19 8 28 7 c16 4 26 9 23 12 -9 9 32 82 50 88
l15 6 -6 15 c-3 8 -1 15 5 15 6 0 7 5 4 10 -4 6 -3 10 2 9 21 -4 33 2 33 17 0
20 24 44 44 44 l16 0 0 25 0 26 25 24 c13 14 31 25 40 25 l15 0 0 20 0 20 26
0 c32 0 54 21 54 54 l0 25 38 3 37 3 3 38 3 37 20 0 19 0 0 20 0 20 20 0 20 0
0 20 0 20 41 0 40 0 -7 23 c-5 12 -8 32 -9 44 0 11 -3 19 -7 17 -11 -7 -30 35
-22 48 l7 11 -10 -6 c-13 -8 -24 17 -17 37 3 8 0 17 -7 22 l-12 7 8 -13 8 -13
-11 7 c-6 4 -9 12 -6 19 2 7 -3 21 -12 32 -8 11 -12 14 -8 6 l7 -14 -12 7 c-7
5 -10 14 -7 22 6 17 -27 77 -37 67 -7 -7 -11 11 -8 36 2 7 -2 10 -7 7 l-10 -6
2 18 1 17 -13 -3 c-8 -1 -11 2 -8 7 8 13 -4 42 -15 35 l-9 -5 6 15 6 16 -16 0
c-9 0 -16 -5 -16 -10z m115 -170 c3 -5 4 -10 1 -10 -3 0 -8 5 -11 10 -3 6 -4
10 -1 10 3 0 8 -4 11 -10z m-290 -160 c3 -5 4 -10 1 -10 -3 0 -8 5 -11 10 -3
6 -4 10 -1 10 3 0 8 -4 11 -10z m-98 -607 c-4 -3 -10 -3 -14 0 -3 4 0 7 7 7 7
0 10 -3 7 -7z" />
    <path d="M560 1718 c1 -18 25 -48 39 -48 14 0 14 15 1 41 -12 21 -40 26 -40 7z" />
    <path d="M606 1661 c-9 -14 4 -41 20 -41 15 0 17 10 8 34 -7 18 -20 21 -28 7z" />
    <path d="M637 1613 c-12 -11 -8 -23 8 -23 8 0 15 7 15 15 0 16 -12 20 -23 8z" />
    <path d="M657 1583 c-11 -10 -8 -25 3 -18 l10 6 -6 -15 -6 -16 16 0 c17 0 20
9 10 34 -7 17 -16 20 -27 9z" />
    <path d="M965 870 c3 -5 8 -10 11 -10 3 0 2 5 -1 10 -3 6 -8 10 -11 10 -3 0
-2 -4 1 -10z" />
    <path d="M505 700 c3 -5 8 -10 11 -10 2 0 4 5 4 10 0 6 -5 10 -11 10 -5 0 -7
-4 -4 -10z" />
    <path d="M465 630 c3 -5 8 -10 11 -10 3 0 2 5 -1 10 -3 6 -8 10 -11 10 -3 0
-2 -4 1 -10z" />
  </g>
  <g transform="translate(0.000000,260.000000) scale(0.100000,-0.100000)" fill="#88fdfd" stroke="none">
    <path d="M2330 1081 c0 -6 5 -13 10 -16 l10 -6 0 15 c0 9 -4 16 -10 16 -5 0
-10 -4 -10 -9z" />
    <path d="M2465 853 c2 -10 4 -21 4 -25 1 -11 31 -10 31 1 0 20 -13 41 -25 41
l-13 0 3 -17z" />
    <path d="M2500 790 c0 -14 23 -64 37 -78 7 -7 13 -18 13 -23 0 -5 7 -9 15 -9
19 0 19 24 0 44 -9 8 -21 29 -26 46 -6 16 -17 30 -25 30 -8 0 -14 -4 -14 -10z" />
    <path d="M1850 655 c0 -8 5 -15 10 -15 6 0 10 7 10 15 0 8 -4 15 -10 15 -5 0
-10 -7 -10 -15z" />
    <path d="M2190 633 c0 -7 7 -13 15 -13 8 0 15 6 15 13 0 8 -7 14 -15 14 -8 0
-15 -6 -15 -14z" />
    <path d="M2550 635 c0 -8 7 -15 15 -15 8 0 15 -7 15 -15 l0 -15 -26 0 c-29 0
-54 -21 -54 -44 l0 -16 -20 0 -20 0 0 -20 0 -20 -30 0 -30 0 0 -30 0 -30 -20
0 c-11 0 -20 -6 -21 -12 0 -7 -5 -3 -11 10 -6 12 -15 22 -20 22 -4 0 -8 7 -8
15 0 8 -7 15 -15 15 -8 0 -15 -7 -15 -15 0 -8 4 -15 9 -15 5 0 12 -11 15 -25
l6 -25 15 0 c8 0 15 -6 15 -12 0 -7 25 -53 55 -103 30 -50 66 -114 80 -142
l26 -53 47 -1 c26 -1 110 0 187 1 l140 2 13 12 13 12 6 115 6 115 -12 36 -12
36 -22 6 c-12 3 -48 6 -80 6 -32 0 -66 4 -76 10 -10 5 -40 54 -67 109 l-49
100 -27 1 -28 0 0 -15z" />
  </g>
  <g transform="translate(0.000000,260.000000) scale(0.100000,-0.100000)" fill="#5ac4fd" stroke="none">
    <path d="M133 2505 c0 -8 6 -15 14 -15 7 0 13 7 13 15 0 8 -6 15 -13 15 -8 0
-14 -7 -14 -15z" />
    <path d="M470 2505 l0 -15 18 0 19 0 0 15 0 15 -19 0 -18 0 0 -15z" />
    <path d="M530 2454 c0 -17 22 -14 28 4 2 7 -3 12 -12 12 -9 0 -16 -7 -16 -16z" />
    <path d="M560 2411 c0 -21 13 -41 26 -41 15 0 17 10 8 34 -7 17 -34 22 -34 7z" />
    <path d="M1464 2291 c-15 -15 6 -21 79 -21 l84 0 0 13 0 12 -79 0 c-44 0 -81
-2 -84 -4z" />
    <path d="M1391 2265 c-4 -5 -12 -16 -16 -24 l-8 -14 12 8 13 7 -11 -21 c-7
-11 -14 -21 -17 -21 -3 0 -2 5 1 10 3 6 4 10 1 10 -3 0 -10 -10 -17 -21 l-11
-21 11 6 11 7 -6 -15 c-3 -9 -10 -13 -15 -10 l-9 5 7 -17 6 -17 -11 7 -12 7 7
-17 6 -17 -10 6 -11 7 2 -18 1 -17 -12 2 -12 3 5 -14 c3 -8 0 -17 -7 -22 l-12
-7 8 14 8 14 -9 -8 c-5 -5 -9 -19 -9 -30 l0 -22 -11 2 -12 2 5 -18 4 -17 -17
-15 -18 -14 8 13 c4 6 5 12 2 12 -3 0 -10 -10 -17 -21 l-11 -21 11 6 11 7 -6
-15 c-3 -9 -9 -14 -13 -12 -12 8 -5 -62 8 -78 7 -9 11 -23 7 -31 l-6 -16 9 5
c5 3 14 -1 21 -9 l12 -15 -6 -17 c-4 -10 -4 -14 -1 -11 4 4 17 3 30 -2 l22 -9
12 12 11 11 0 -12 0 -11 15 5 c8 4 15 15 15 25 l0 19 15 0 15 0 6 40 7 40 38
0 39 0 0 20 0 20 30 1 c42 2 47 3 56 11 3 4 -3 6 -15 3 l-21 -4 0 35 0 34 20
0 20 0 0 20 0 20 20 0 20 0 0 20 0 20 20 0 20 0 0 20 0 20 20 0 20 0 0 20 0
20 20 0 20 0 0 20 0 20 20 0 c11 0 20 5 20 10 0 6 9 10 20 10 l20 0 0 20 0 20
23 1 22 1 -26 8 c-14 4 -62 8 -107 9 l-82 2 0 -15 0 -14 -40 -7 -40 -7 0 -14
0 -14 -20 0 c-11 0 -20 -4 -20 -10 0 -5 -11 -10 -25 -10 l-25 0 0 -30 0 -30
-20 0 c-11 0 -20 -4 -20 -10 0 -5 -7 -10 -16 -10 -8 0 -42 -28 -75 -62 -32
-35 -59 -59 -59 -56 0 4 9 22 20 40 11 18 20 41 20 51 0 9 4 17 9 17 5 0 18
17 28 38 11 20 28 52 37 70 10 17 26 37 37 42 10 6 19 15 19 20 0 13 -49 9
-59 -5z m19 1 c0 -3 -5 -8 -12 -12 l-11 -7 7 11 c7 12 16 16 16 8z m-154 -358
l-16 -22 0 22 c0 13 6 33 12 45 l13 22 3 -22 c2 -13 -4 -33 -12 -45z" />
    <path d="M110 2174 l0 -16 16 6 15 6 -6 -10 c-3 -6 1 -10 9 -10 21 0 21 26 0
34 -25 10 -34 7 -34 -10z" />
    <path d="M730 2118 c0 -7 5 -20 10 -28 l9 -15 11 11 c6 6 8 18 4 27 -7 20 -34
23 -34 5z" />
    <path d="M347 2113 c-12 -11 -8 -23 8 -23 8 0 15 7 15 15 0 16 -12 20 -23 8z" />
    <path d="M410 1981 c0 -21 13 -41 26 -41 15 0 17 10 8 34 -7 17 -34 22 -34 7z" />
    <path d="M820 1954 c0 -17 22 -14 28 4 2 7 -3 12 -12 12 -9 0 -16 -7 -16 -16z" />
    <path d="M855 1898 c4 -13 9 -36 12 -53 3 -16 13 -39 23 -50 17 -18 49 -84 64
-127 l5 -18 -24 0 c-14 0 -25 -4 -25 -10 0 -5 -9 -10 -20 -10 l-20 0 0 -30 0
-30 -20 0 -20 0 0 -20 0 -20 -18 0 c-9 0 -26 -11 -36 -25 l-19 -25 -17 17 c-9
10 -25 33 -35 51 -11 17 -22 32 -26 32 -18 0 -15 -31 7 -69 14 -22 27 -41 30
-41 3 0 2 5 -2 12 l-7 11 12 -7 c7 -5 10 -14 7 -22 l-5 -14 12 3 12 2 -1 -17
-2 -18 11 7 10 6 -6 -16 -6 -17 12 3 12 2 -1 -17 -2 -18 11 7 10 6 -6 -17 -7
-17 9 5 c13 8 34 -21 28 -38 l-6 -14 22 5 22 5 -13 -10 -14 -9 16 -6 16 -6 0
19 c0 11 5 20 10 20 6 0 10 9 10 20 l0 20 20 0 20 0 0 40 0 40 39 0 c22 0 41
5 43 10 2 6 20 11 40 12 l37 1 -14 27 c-8 15 -11 30 -8 34 4 3 2 6 -4 6 -10 0
-27 51 -26 77 0 7 -3 11 -7 8 -11 -7 -21 22 -14 40 l6 15 -15 -5 -14 -6 -7 16
c-3 9 -3 22 1 27 l6 11 -13 -8 -13 -8 6 17 7 17 -12 -7 -11 -7 6 17 7 17 -9
-5 c-5 -3 -12 1 -15 10 l-6 15 11 -7 c6 -3 3 8 -5 25 -9 17 -19 31 -22 31 -3
0 -2 -6 1 -12 4 -7 -1 -4 -9 6 l-16 19 7 25 6 25 -13 -8 -13 -8 6 11 c10 15
-3 42 -20 42 l-15 0 7 -22z m-150 -388 c3 -5 4 -10 1 -10 -3 0 -8 5 -11 10 -3
6 -4 10 -1 10 3 0 8 -4 11 -10z" />
    <path d="M490 1835 c0 -8 7 -15 15 -15 8 0 15 7 15 15 0 8 -7 15 -15 15 -8 0
-15 -7 -15 -15z" />
    <path d="M540 1746 c0 -7 9 -16 21 -19 12 -3 19 -10 15 -15 -3 -5 1 -9 9 -9 8
0 15 6 15 14 0 7 -7 13 -15 13 -8 0 -15 7 -15 15 0 8 -7 15 -15 15 -8 0 -15
-6 -15 -14z" />
    <path d="M597 1683 c-11 -10 -8 -23 4 -20 6 1 13 -8 14 -21 1 -12 8 -28 15
-35 l13 -12 -8 15 -9 15 17 -14 17 -13 0 16 c0 9 -9 25 -20 36 -11 11 -20 25
-20 30 0 11 -13 13 -23 3z" />
    <path d="M832 1245 l0 -30 5 18 c2 9 2 23 0 30 -3 6 -5 -1 -5 -18z" />
  </g>
  <g transform="translate(0.000000,260.000000) scale(0.100000,-0.100000)" fill="#80f2fd" stroke="none">
    <path d="M2465 1710 c3 -5 8 -10 11 -10 2 0 4 5 4 10 0 6 -5 10 -11 10 -5 0
-7 -4 -4 -10z" />
    <path d="M2340 1065 c11 -20 20 -42 20 -49 0 -7 7 -19 15 -26 8 -7 15 -19 15
-26 l0 -13 -30 6 -30 6 0 -42 0 -41 -40 0 -40 0 0 -36 0 -36 -28 -26 c-16 -15
-34 -37 -41 -50 -7 -12 -16 -20 -22 -17 -15 10 -10 -22 6 -35 8 -7 15 -19 15
-27 l0 -15 16 6 15 6 -5 -18 c-7 -21 8 -47 22 -38 l10 6 -4 -17 c-5 -21 53
-126 65 -118 5 2 8 -3 7 -13 l-1 -17 12 2 12 3 -6 -17 -6 -16 10 6 11 7 -5
-20 -5 -20 16 0 c9 0 16 5 16 10 0 6 5 10 11 10 19 0 39 28 39 54 l0 26 30 0
30 0 0 20 0 20 20 0 20 0 0 16 c0 21 24 44 46 44 10 0 25 -7 34 -15 l17 -16
13 16 c7 9 9 15 4 14 -5 -1 -14 -1 -21 0 l-12 1 4 43 3 42 -13 17 c-6 10 -15
15 -19 11 -4 -4 -4 1 0 11 l7 19 -13 -8 -13 -8 7 11 c9 15 -12 54 -24 47 l-10
-6 7 17 6 17 -13 -8 -13 -8 7 11 c9 15 -12 54 -24 47 l-10 -6 6 15 6 14 -19
20 c-20 21 -29 35 -68 101 -14 24 -25 47 -25 52 0 5 -4 9 -9 9 -5 0 -12 14
-16 30 l-7 30 -14 0 -14 0 20 -35z m58 -137 c15 -15 16 -31 1 -26 -6 2 -10 7
-9 12 1 5 -4 13 -12 17 -7 5 -8 9 -2 9 5 0 15 -5 22 -12z m27 -48 c3 -5 4 -10
1 -10 -3 0 -8 5 -11 10 -3 6 -4 10 -1 10 3 0 8 -4 11 -10z m52 -27 c-4 -3 -10
-3 -14 0 -3 4 0 7 7 7 7 0 10 -3 7 -7z m100 -220 c-4 -3 -10 -3 -14 0 -3 4 0
7 7 7 7 0 10 -3 7 -7z" />
    <path d="M1980 1016 c0 -9 5 -16 10 -16 6 0 10 4 10 9 0 6 -4 13 -10 16 l-10
6 0 -15z" />
    <path d="M2080 860 c0 -18 49 -100 60 -100 5 0 10 -8 12 -17 l3 -18 8 11 7 12
-20 25 c-11 14 -20 32 -20 39 0 8 -11 25 -25 38 l-25 23 0 -13z" />
    <path d="M1780 811 c0 -6 5 -13 10 -16 l10 -6 0 15 c0 9 -4 16 -10 16 -5 0
-10 -4 -10 -9z" />
    <path d="M2166 804 l-6 -15 -11 7 -12 7 7 -12 8 -12 19 17 c21 19 23 24 10 24
-5 0 -12 -7 -15 -16z" />
    <path d="M1820 731 c0 -6 5 -13 10 -16 l10 -6 0 15 c0 9 -4 16 -10 16 -5 0
-10 -4 -10 -9z" />
    <path d="M1857 674 c-8 -8 1 -24 14 -24 5 0 9 7 9 15 0 15 -12 20 -23 9z" />
    <path d="M1776 511 c-4 -7 -5 -15 -2 -18 9 -9 19 4 14 18 l-4 13 -8 -13z" />
    <path d="M1746 461 c-4 -7 -5 -15 -2 -18 9 -9 19 4 14 18 l-4 13 -8 -13z" />
    <path d="M1706 404 c-11 -7 -16 -17 -13 -21 4 -3 0 -15 -10 -25 -19 -21 -10
-37 9 -17 17 19 42 68 37 73 -2 2 -13 -2 -23 -10z" />
    <path d="M1642 300 l-12 -20 14 0 c19 0 31 19 19 31 l-9 9 -12 -20z" />
    <path d="M1576 275 l-5 -15 14 0 c16 0 20 16 6 24 -5 3 -11 -1 -15 -9z" />
  </g>
  <g transform="translate(0.000000,260.000000) scale(0.100000,-0.100000)" fill="#23a4f2" stroke="none">
    <path d="M137 2504 l-17 -6 2 -161 3 -162 95 -6 c97 -6 130 -14 130 -31 0 -5
12 -8 28 -6 l27 3 3 38 3 37 20 0 19 0 0 30 0 30 19 0 c11 0 22 6 24 13 l5 12
9 -10 c4 -6 29 -11 56 -11 l47 -1 0 18 c0 9 -7 30 -15 46 -8 15 -26 53 -39 83
-13 31 -31 61 -39 68 l-15 13 -173 4 c-96 2 -182 1 -192 -1z" />
    <path d="M380 2076 c0 -13 20 -26 41 -26 15 0 10 27 -7 34 -24 9 -34 7 -34 -8z" />
  </g>
  <g transform="translate(0.000000,260.000000) scale(0.100000,-0.100000)" fill="#35aff9" stroke="none">
    <path d="M324 2501 l7 -11 80 1 80 1 14 -12 14 -12 13 8 13 8 -14 -17 -13 -17
11 0 c6 0 11 -7 11 -15 0 -8 4 -23 9 -33 19 -34 51 -108 51 -116 0 -5 -6 -4
-13 2 -14 12 -35 11 -54 -1 l-13 -8 0 10 c0 6 -9 11 -20 11 -11 0 -20 -4 -20
-10 0 -5 -9 -10 -20 -10 l-20 0 0 -30 0 -30 -19 0 -20 0 -3 -22 -3 -23 -13 3
-13 2 6 -10 c3 -6 11 -8 16 -5 5 4 9 1 9 -5 0 -18 -29 -23 -45 -6 -19 18 -55
25 -150 29 l-70 2 -3 153 c-1 83 -6 152 -10 152 -4 0 -7 -68 -7 -151 l1 -151
19 -14 19 -14 70 0 71 -1 25 -14 c14 -8 21 -14 16 -15 -6 0 -1 -7 10 -15 10
-8 15 -15 9 -15 l-10 0 11 -8 c17 -12 74 -118 67 -125 -3 -4 -1 -7 6 -7 7 0 9
-4 6 -10 -3 -5 -2 -10 4 -10 5 0 15 -16 21 -35 6 -19 16 -35 21 -35 6 0 8 -4
4 -9 -3 -6 1 -13 8 -18 7 -4 23 -25 36 -45 12 -21 27 -38 33 -38 l10 0 -7 33
c-9 41 -13 47 -31 47 l-15 0 6 10 c4 6 11 8 16 5 15 -10 49 5 49 21 0 8 5 14
10 14 6 0 10 7 10 15 0 18 64 85 80 85 17 0 40 26 40 44 0 9 5 16 10 16 6 0
10 -4 10 -10 0 -5 9 -10 20 -10 l20 0 -2 12 c-2 7 -8 17 -15 23 -7 5 -13 17
-15 25 -2 8 -9 21 -16 28 -7 8 -10 18 -7 23 4 5 1 9 -4 9 -6 0 -11 9 -11 20 0
11 -6 20 -12 20 -15 1 -47 48 -68 100 -8 19 -20 41 -27 48 -7 7 -13 20 -13 28
0 8 -5 14 -11 14 -5 0 -7 5 -4 10 3 6 1 10 -5 10 -6 0 -9 4 -6 9 4 5 2 11 -4
13 -6 2 -12 14 -15 27 -2 14 -11 31 -19 39 l-15 15 -102 5 -102 5 7 -12z" />
  </g>
  <g transform="translate(0.000000,260.000000) scale(0.100000,-0.100000)" fill="#53bffc" stroke="none">
    <path d="M145 2510 l6 -10 164 0 164 0 6 10 6 10 -176 0 -176 0 6 -10z" />
    <path d="M110 2495 c0 -9 5 -15 11 -13 6 2 11 8 11 13 0 5 -5 11 -11 13 -6 2
-11 -4 -11 -13z" />
    <path d="M506 2501 c-3 -5 1 -12 10 -15 20 -8 29 -1 19 13 -8 13 -22 14 -29 2z" />
    <path d="M555 2440 l-7 -12 11 -11 c15 -15 25 -2 13 19 l-9 17 -8 -13z" />
    <path d="M613 2319 c12 -21 25 -35 30 -30 11 11 -3 41 -19 41 l-13 0 5 13 5
14 -15 0 -15 0 22 -38z" />
    <path d="M1435 2271 c-22 -16 -43 -27 -47 -24 -4 2 -5 -3 -2 -11 3 -8 -5 -31
-18 -53 -13 -21 -29 -47 -35 -58 -6 -11 -16 -19 -21 -18 -5 1 -8 -5 -6 -15 3
-9 -6 -33 -18 -52 -12 -19 -22 -37 -23 -40 0 -3 -8 -17 -18 -31 -10 -15 -20
-43 -22 -63 l-5 -37 17 3 c22 4 52 57 47 84 l-4 21 25 13 c14 7 23 15 21 17
-2 2 7 15 21 29 14 14 28 22 31 19 4 -3 0 -10 -8 -15 -8 -5 -11 -12 -8 -16 4
-3 14 0 22 8 l15 15 -11 11 -11 11 16 15 c9 9 23 16 31 16 9 0 16 5 16 10 0 6
9 10 20 10 l20 0 0 30 0 30 25 0 c14 0 25 5 25 10 0 6 9 10 20 10 l20 0 0 14
0 14 40 7 40 7 0 19 0 19 -91 0 -90 0 6 10 c9 15 4 12 -40 -19z" />
    <path d="M640 2253 c0 -8 5 -13 12 -11 18 6 21 25 3 25 -8 0 -15 -7 -15 -14z" />
    <path d="M665 2223 c4 -10 10 -26 12 -36 l6 -18 13 5 14 5 0 -15 c0 -8 6 -17
14 -20 l15 -6 -6 -16 -6 -17 12 11 12 11 -12 26 c-7 15 -16 27 -20 27 -4 0
-11 9 -14 20 -4 11 -11 18 -16 15 l-9 -6 6 15 6 16 -17 0 -17 0 7 -17z" />
    <path d="M145 2160 l-6 -10 78 0 c43 0 89 -3 103 -6 l25 -5 -19 15 -20 16 -77
0 -78 0 -6 -10z" />
    <path d="M330 2122 c0 -5 7 -9 15 -9 8 0 12 4 9 9 -3 4 -9 8 -15 8 -5 0 -9 -4
-9 -8z" />
    <path d="M350 2096 c0 -3 5 -16 11 -30 7 -14 16 -23 20 -20 5 3 6 -2 3 -10
l-6 -16 17 0 c9 0 14 -4 11 -9 -4 -5 -3 -16 0 -24 l6 -16 13 5 14 6 -34 56
c-18 31 -38 58 -44 60 -6 2 -11 1 -11 -2z" />
    <path d="M750 2073 c0 -8 5 -13 12 -11 18 6 21 25 3 25 -8 0 -15 -7 -15 -14z" />
    <path d="M785 2008 c4 -18 9 -35 11 -37 6 -7 34 8 34 19 l0 11 -12 -7 -11 -7
6 11 c10 15 -3 42 -20 42 l-15 0 7 -32z" />
    <path d="M830 1938 c0 -5 6 -21 14 -36 7 -15 16 -51 18 -79 l5 -53 -38 0 -39
0 0 -40 0 -40 -40 0 -40 0 0 -56 0 -56 -15 12 c-8 7 -15 19 -15 26 0 8 -4 14
-9 14 -5 0 -12 9 -16 20 -3 11 -21 35 -38 53 -48 51 -67 76 -67 88 0 14 -23 6
-28 -9 l-4 -13 14 3 13 3 -3 -19 -3 -18 9 6 10 6 -2 -18 -1 -17 18 3 19 3 -7
-20 -6 -19 12 -8 12 -7 -8 13 -8 13 12 -7 c6 -4 10 -15 9 -24 -2 -9 3 -17 10
-17 18 0 33 -27 26 -47 -2 -9 1 -20 7 -24 l12 -7 -8 14 -9 14 18 -14 c9 -8 15
-20 12 -28 l-6 -14 10 6 c11 7 33 -32 25 -45 l-6 -10 13 5 13 5 20 -29 19 -29
18 1 c23 2 24 27 1 27 l-18 0 15 10 c8 5 11 10 7 10 -16 0 22 30 37 30 l16 0
0 20 0 20 20 0 20 0 0 30 0 30 19 0 c11 0 21 5 23 10 l3 11 20 -18 c23 -21 55
-29 55 -13 0 5 -5 10 -11 10 -6 0 -9 6 -6 14 3 8 -1 20 -9 26 -8 7 -14 18 -14
25 0 6 -7 26 -16 43 -8 18 -12 37 -8 43 l7 12 -13 -8 -13 -8 6 17 7 17 -9 -5
c-10 -7 -34 19 -37 40 -1 8 2 14 7 14 5 0 9 5 9 11 0 5 -4 8 -9 5 -5 -3 -12 1
-15 10 l-6 15 10 -6 c6 -4 3 9 -6 28 -9 18 -22 34 -30 34 -8 0 -14 -4 -14 -9z" />
    <path d="M460 1885 c0 -8 7 -15 15 -15 l14 0 -5 15 c-4 8 -10 15 -15 15 -5 0
-9 -7 -9 -15z" />
    <path d="M480 1850 c0 -5 7 -10 16 -10 l15 0 -6 10 c-3 6 -10 10 -16 10 -5 0
-9 -4 -9 -10z" />
    <path d="M894 1828 l-7 -11 11 7 c7 4 12 9 12 12 0 8 -9 4 -16 -8z" />
    <path d="M795 1400 c3 -5 8 -10 11 -10 3 0 2 5 -1 10 -3 6 -8 10 -11 10 -3 0
-2 -4 1 -10z" />
  </g>
  <g transform="translate(0.000000,260.000000) scale(0.100000,-0.100000)" fill="#46b8fd" stroke="none">
    <path d="M114 2495 c-9 -22 1 -29 15 -11 l12 14 -11 7 c-5 3 -13 -1 -16 -10z" />
    <path d="M504 2498 l-7 -11 11 7 c12 7 16 16 8 16 -3 0 -8 -5 -12 -12z" />
    <path d="M554 2428 l-7 -11 11 7 c12 7 16 16 8 16 -3 0 -8 -5 -12 -12z" />
    <path d="M575 2401 c-3 -6 -1 -11 4 -11 6 0 10 -3 10 -7 -1 -5 -1 -15 0 -22
l1 -15 11 11 11 11 -15 22 -15 21 -7 -10z" />
    <path d="M605 2340 c-3 -6 1 -13 9 -16 9 -3 13 -11 9 -17 l-6 -10 11 7 12 7
-10 20 c-12 22 -16 23 -25 9z" />
    <path d="M638 2294 c-8 -7 3 -54 13 -54 4 0 13 -16 20 -35 14 -37 23 -43 35
-23 l7 11 -13 -8 -13 -8 6 17 7 17 -11 -7 -12 -7 5 14 c7 19 -11 51 -24 43
l-10 -7 6 21 c6 19 -5 38 -16 26z" />
    <path d="M110 2193 c0 -23 15 -39 24 -25 3 5 -1 18 -9 28 l-14 19 -1 -22z" />
    <path d="M295 2160 c-3 -6 0 -10 9 -10 8 0 16 -5 18 -12 l4 -12 7 10 c3 5 -3
15 -13 22 l-19 12 -6 -10z" />
    <path d="M714 2158 l-7 -11 11 7 c12 7 16 16 8 16 -3 0 -8 -5 -12 -12z" />
    <path d="M736 2122 l-6 -11 17 -9 16 -10 -28 -26 c-15 -14 -25 -29 -22 -32 8
-8 -18 -34 -33 -34 -16 0 -80 -67 -80 -85 0 -8 -4 -15 -10 -15 -5 0 -10 -6
-10 -14 0 -17 -24 -28 -36 -16 l-9 9 -23 -19 -23 -19 16 -31 16 -31 11 7 11 7
-6 -16 -6 -16 11 -7 11 -7 -7 11 c-3 6 -2 13 2 16 5 3 9 -7 8 -22 l-1 -27 11
0 c15 0 71 -61 79 -86 4 -10 11 -19 16 -19 6 0 8 -4 5 -9 -3 -5 8 -23 24 -41
l30 -32 0 71 0 71 40 0 40 0 0 40 0 40 38 0 39 0 -1 69 -1 69 -9 -6 -9 -5 6
17 c4 9 3 15 -2 12 -4 -3 -13 6 -20 20 l-11 25 11 -7 11 -6 -11 21 c-7 11 -14
21 -17 21 -3 0 -2 -4 1 -10 l6 -10 -14 6 c-7 2 -14 11 -14 19 0 8 4 12 9 9 5
-4 0 12 -11 35 -21 40 -33 53 -28 29 1 -7 7 -16 12 -20 l10 -8 -17 0 -18 0 4
30 c2 16 -2 37 -9 46 l-12 17 -7 -11z m-189 -309 c2 -6 -3 -13 -11 -16 l-15
-6 6 16 6 16 -13 -8 -13 -8 7 12 c9 14 28 10 33 -6z" />
    <path d="M344 2108 l-7 -11 11 7 c12 7 16 16 8 16 -3 0 -8 -5 -12 -12z" />
    <path d="M364 2078 l-7 -11 11 7 c12 7 16 16 8 16 -3 0 -8 -5 -12 -12z" />
    <path d="M374 2058 l-7 -11 13 8 13 8 -5 -14 c-7 -18 10 -51 22 -44 l10 6 -15
30 c-9 16 -17 29 -20 29 -2 0 -7 -5 -11 -12z" />
    <path d="M416 1992 c-3 -5 1 -9 9 -9 8 0 12 4 9 9 -3 4 -7 8 -9 8 -2 0 -6 -4
-9 -8z" />
    <path d="M420 1964 c0 -4 12 -28 26 -55 15 -27 31 -46 36 -42 l10 6 -13 8 c-8
5 -11 9 -6 9 12 0 -22 60 -34 60 -6 0 -7 5 -4 10 3 6 1 10 -4 10 -6 0 -11 -3
-11 -6z" />
    <path d="M890 1770 c0 -7 3 -10 7 -7 3 4 3 10 0 14 -4 3 -7 0 -7 -7z" />
  </g>
  <g transform="translate(0.000000,260.000000) scale(0.100000,-0.100000)" fill="#eff9fc" stroke="none">
    <path d="M114 2515 c-11 -7 -16 -17 -11 -21 4 -4 13 -2 19 4 l12 12 189 0 188
0 12 -12 c7 -7 26 -39 42 -70 17 -32 33 -58 38 -58 13 0 8 13 -33 81 -22 37
-46 69 -54 72 -8 3 -98 6 -199 6 l-184 0 -19 -14z" />
    <path d="M620 2341 c0 -12 53 -105 62 -109 4 -2 8 -9 8 -15 0 -15 52 -89 58
-83 3 3 -15 38 -38 78 -24 40 -52 88 -63 106 -19 32 -27 39 -27 23z" />
    <path d="M1418 2313 c-9 -2 -37 -39 -62 -82 -25 -43 -46 -81 -46 -84 0 -4 4
-7 8 -7 4 0 21 26 37 57 17 31 39 67 49 80 l20 23 687 0 c378 0 690 -3 692 -8
4 -6 -107 -206 -178 -322 -9 -14 -24 -41 -33 -60 -9 -19 -20 -37 -23 -40 -13
-10 -40 -72 -37 -82 4 -12 48 56 48 73 0 5 3 9 8 9 4 0 12 10 18 23 11 22 94
169 168 297 21 36 42 75 47 88 l9 23 -25 9 -25 9 -672 0 c-370 -1 -681 -3
-690 -6z" />
    <path d="M102 2169 c2 -7 10 -15 17 -17 l14 -4 -5 13 c-2 7 -10 15 -17 17
l-13 5 4 -14z" />
    <path d="M295 2150 c3 -5 10 -10 16 -10 5 0 9 5 9 10 0 6 -7 10 -16 10 l-15 0
6 -10z" />
    <path d="M330 2113 c0 -5 7 -18 15 -29 l14 -19 1 16 c0 9 -7 22 -15 29 -8 7
-15 8 -15 3z" />
    <path d="M1248 2044 c-25 -43 -55 -95 -66 -114 l-21 -35 48 -85 c26 -47 57
-101 68 -120 11 -19 35 -61 53 -93 l32 -58 16 3 c9 2 28 23 43 48 30 50 34 60
19 60 -5 0 -10 -7 -10 -15 0 -8 -3 -15 -7 -15 -5 0 -16 -14 -26 -32 l-18 -31
-16 24 c-9 13 -19 26 -23 29 -3 3 -14 24 -24 48 -11 23 -23 42 -28 42 -4 0 -8
7 -8 15 0 8 -4 15 -8 15 -4 0 -14 16 -21 35 -7 19 -18 40 -24 47 -7 7 -19 29
-28 48 l-16 35 59 102 c33 56 58 108 56 114 -2 7 -25 -23 -50 -67z" />
    <path d="M760 2107 c0 -8 67 -135 80 -152 4 -5 33 -59 65 -120 31 -60 60 -112
65 -115 4 -3 10 -15 14 -27 4 -13 13 -29 19 -36 7 -7 25 -38 42 -70 16 -31 33
-57 37 -57 4 0 8 -5 8 -12 0 -15 110 -211 124 -220 l11 -7 -28 -51 c-16 -28
-27 -56 -25 -62 3 -7 19 13 36 44 l32 55 -58 104 c-32 57 -107 190 -167 294
-59 105 -137 242 -173 305 -63 112 -82 142 -82 127z" />
    <path d="M370 2043 c0 -14 41 -76 46 -70 7 6 -22 63 -36 72 -5 3 -10 3 -10 -2z" />
    <path d="M420 1955 c0 -14 112 -207 117 -202 4 5 -24 61 -75 149 -29 50 -42
66 -42 53z" />
    <path d="M1607 1927 c-10 -12 -20 -32 -23 -44 -4 -13 -10 -23 -14 -23 -4 0
-18 -20 -31 -45 -13 -25 -27 -45 -31 -45 -5 0 -8 -7 -8 -15 0 -8 -3 -15 -8
-15 -11 0 -46 -69 -39 -76 4 -4 14 8 24 26 10 18 28 44 41 58 12 14 42 61 65
104 l42 78 17 0 c9 0 20 5 23 10 l6 10 -23 0 -23 0 -18 -23z" />
    <path d="M2150 1945 c0 -3 9 -9 19 -13 l19 -7 -32 -56 c-18 -30 -45 -76 -59
-102 -62 -111 -122 -214 -142 -247 -49 -78 -127 -222 -129 -238 -2 -9 8 -34
21 -54 12 -21 23 -40 23 -42 0 -2 22 -40 48 -83 27 -43 65 -109 86 -146 59
-108 78 -141 86 -152 4 -5 28 -48 52 -95 74 -139 101 -185 110 -188 4 -2 8 -8
8 -13 0 -4 21 -43 46 -86 65 -110 85 -144 103 -178 45 -85 105 -175 117 -175
8 0 14 5 14 10 0 6 -4 10 -9 10 -4 0 -30 37 -56 82 -26 46 -51 85 -54 88 -4 3
-13 20 -20 37 -8 18 -17 33 -22 33 -5 0 -9 5 -9 10 0 9 -39 80 -100 180 -5 8
-28 49 -52 90 -23 41 -45 77 -49 80 -3 3 -10 16 -14 30 -8 26 -72 141 -84 150
-4 3 -15 24 -25 48 -11 23 -23 42 -28 42 -4 0 -8 6 -8 13 0 7 -38 79 -85 159
l-86 146 81 140 c44 77 83 148 87 158 3 11 9 21 12 24 14 11 59 87 66 110 4
14 11 27 15 30 11 9 110 185 110 198 l0 12 -30 0 c-16 0 -30 -2 -30 -5z" />
    <path d="M2500 1744 l0 -15 10 6 c6 3 10 10 10 16 0 5 -4 9 -10 9 -5 0 -10 -7
-10 -16z" />
    <path d="M560 1713 c0 -5 16 -35 35 -67 19 -32 35 -60 35 -61 0 -2 19 -33 41
-71 23 -37 53 -88 66 -113 14 -25 29 -50 34 -55 l9 -10 0 12 c0 18 -33 82 -42
82 -4 0 -8 5 -8 11 0 10 -78 149 -89 159 -3 3 -17 27 -31 53 -14 27 -31 53
-37 59 l-13 10 0 -9z" />
    <path d="M2470 1701 c-5 -11 -10 -26 -10 -33 l0 -13 20 25 c11 14 20 28 20 33
0 14 -20 7 -30 -12z" />
    <path d="M2422 1613 c-9 -21 -20 -40 -23 -43 -16 -13 -159 -274 -159 -290 0
-10 10 -36 22 -57 58 -103 133 -229 138 -233 3 -3 12 -19 19 -37 11 -27 83
-147 108 -179 4 -5 24 -41 43 -80 19 -38 59 -113 89 -167 l55 -97 24 0 23 0
-6 10 c-3 5 -12 10 -18 10 -7 0 -24 21 -38 48 -80 148 -245 436 -339 592 -15
25 -45 77 -66 117 l-39 72 20 38 c11 21 33 61 49 88 33 57 57 99 87 153 12 20
28 46 35 57 17 23 18 35 4 35 -6 0 -18 -17 -28 -37z" />
    <path d="M780 1321 c0 -6 5 -13 10 -16 6 -3 10 -15 10 -26 0 -10 5 -19 10 -19
13 0 13 26 0 51 -11 20 -30 26 -30 10z" />
    <path d="M738 1158 c-120 -204 -200 -349 -194 -355 3 -4 8 -4 10 -2 9 10 106
186 106 192 0 5 8 16 18 27 9 10 35 54 57 96 22 43 46 84 53 92 11 12 17 42 8
42 -2 0 -28 -42 -58 -92z" />
    <path d="M1093 1058 c-29 -50 -53 -97 -53 -104 0 -8 -4 -14 -9 -14 -5 0 -13
-10 -17 -22 -3 -12 -13 -28 -20 -36 -13 -12 -20 -42 -10 -42 5 0 163 271 172
295 3 8 2 15 -2 15 -5 0 -33 -41 -61 -92z" />
    <path d="M1663 1008 c-6 -7 -39 -62 -73 -123 -35 -60 -66 -112 -70 -115 -8 -6
-90 -138 -90 -145 0 -3 4 -5 9 -5 5 0 27 28 47 63 21 34 46 71 56 81 10 11 18
28 18 38 0 10 4 18 8 18 5 0 14 10 20 23 36 69 82 142 91 142 10 0 49 -58 86
-127 11 -21 23 -38 27 -38 5 0 8 -4 8 -9 0 -5 16 -37 35 -71 19 -34 35 -66 35
-72 0 -6 -39 -78 -87 -162 -47 -83 -98 -172 -112 -198 l-26 -48 -532 0 -533 0
0 -10 0 -10 531 0 532 0 23 28 c13 15 24 30 24 34 0 4 16 32 35 62 19 30 35
58 35 61 0 3 11 24 26 46 14 22 34 56 45 75 10 19 28 50 39 69 11 20 20 42 20
50 0 16 -68 143 -86 163 -7 6 -16 22 -20 34 -10 31 -92 158 -103 158 -5 0 -13
-6 -18 -12z" />
    <path d="M903 727 c-29 -52 -53 -99 -53 -105 l0 -12 31 0 30 0 -6 10 c-3 5
-12 7 -20 3 -8 -3 -15 -2 -15 2 0 4 23 47 50 95 28 48 50 90 50 94 0 3 -3 6
-7 6 -5 0 -32 -42 -60 -93z" />
    <path d="M508 755 c-48 -76 -98 -163 -98 -169 0 -3 4 -6 9 -6 13 0 123 190
118 204 -2 6 -15 -7 -29 -29z" />
    <path d="M924 619 l-5 -9 111 0 111 0 -6 10 -7 11 -99 -2 c-54 -1 -102 -5
-105 -10z" />
    <path d="M1196 621 l-6 -9 98 -4 c102 -4 135 -1 127 12 -3 4 -52 8 -109 9
l-104 2 -6 -10z" />
    <path d="M369 514 c-112 -187 -141 -244 -135 -260 l5 -14 36 0 c19 0 35 5 35
10 0 6 -13 10 -30 10 -16 0 -30 2 -30 5 0 8 25 60 31 65 15 11 130 223 126
233 -2 6 -19 -16 -38 -49z" />
    <path d="M2900 431 c0 -6 5 -11 10 -11 l10 0 0 -164 0 -164 -12 -5 c-7 -2 -10
-7 -7 -11 3 -3 14 -4 23 0 l16 6 -2 177 -3 176 -17 3 c-10 2 -18 -1 -18 -7z" />
    <path d="M2595 70 c4 -6 11 -8 16 -5 14 9 11 15 -7 15 l-15 0 6 -10z" />
  </g>
  <g transform="translate(0.000000,260.000000) scale(0.100000,-0.100000)" fill="#dcf6fc" stroke="none">
    <path d="M510 2511 c0 -5 4 -11 9 -13 4 -1 47 -70 94 -153 78 -137 123 -207
115 -179 -2 5 -48 88 -103 182 -89 155 -115 191 -115 163z" />
    <path d="M107 2503 c-10 -9 -9 -331 1 -337 4 -2 8 74 7 170 0 96 0 174 -1 174
0 0 -4 -3 -7 -7z" />
    <path d="M1392 2283 c-35 -51 -154 -265 -149 -269 4 -4 77 109 77 120 0 4 16
32 35 62 19 30 35 58 35 62 0 4 9 14 20 22 21 15 26 30 11 30 -5 0 -18 -12
-29 -27z" />
    <path d="M2770 2300 c0 -5 6 -10 14 -10 l13 0 -5 -25 c-2 -14 -8 -25 -12 -25
-4 0 -14 -15 -21 -32 -7 -18 -19 -39 -26 -46 -7 -7 -13 -20 -13 -28 0 -8 -4
-14 -9 -14 -5 0 -15 -15 -22 -32 -7 -18 -19 -39 -26 -46 -7 -7 -13 -20 -13
-28 0 -8 -4 -14 -9 -14 -5 0 -15 -16 -22 -35 -7 -19 -16 -35 -20 -35 -9 0 -33
-59 -27 -66 5 -4 37 47 83 131 6 11 46 80 89 153 l78 133 -6 15 c-6 16 -46 20
-46 4z" />
    <path d="M352 2075 c28 -47 53 -84 55 -81 6 6 -87 166 -97 166 -4 0 15 -38 42
-85z" />
    <path d="M740 2135 c0 -11 63 -116 67 -111 2 2 -10 29 -27 60 -29 51 -40 65
-40 51z" />
    <path d="M1216 1981 c-4 -7 -5 -15 -2 -18 9 -9 19 4 14 18 l-4 13 -8 -13z" />
    <path d="M410 1971 c0 -5 5 -13 10 -16 6 -3 10 -2 10 4 0 5 -4 13 -10 16 -5 3
-10 2 -10 -4z" />
    <path d="M1628 1953 c-10 -2 -18 -11 -18 -19 0 -8 -3 -14 -8 -14 -11 0 -57
-88 -50 -95 3 -4 22 20 40 52 l34 58 272 3 272 2 0 10 0 10 -262 -1 c-145 -1
-271 -3 -280 -6z" />
    <path d="M1179 1916 l-11 -23 22 -43 c12 -23 24 -40 26 -37 3 3 -2 19 -11 37
l-16 31 6 30 c8 35 -1 38 -16 5z" />
    <path d="M2137 1827 c-37 -64 -67 -119 -67 -122 0 -3 4 -5 8 -5 12 0 134 218
130 231 -2 6 -34 -41 -71 -104z" />
    <path d="M440 1927 c0 -15 31 -69 37 -63 3 3 -4 20 -16 38 -11 18 -21 29 -21
25z" />
    <path d="M860 1925 c0 -7 156 -302 167 -314 1 -2 6 -2 9 1 3 4 -21 53 -54 110
-33 56 -71 127 -86 156 -23 46 -36 63 -36 47z" />
    <path d="M490 1831 c0 -5 5 -13 10 -16 6 -3 10 -2 10 4 0 5 -4 13 -10 16 -5 3
-10 2 -10 -4z" />
    <path d="M2443 1661 c-57 -98 -103 -183 -103 -189 0 -7 -4 -12 -8 -12 -5 0
-17 -19 -28 -42 -10 -24 -21 -45 -24 -48 -12 -11 -40 -60 -40 -70 0 -22 20 2
59 73 22 39 90 157 150 262 61 104 111 193 111 197 0 26 -26 -12 -117 -171z" />
    <path d="M1507 1777 c-11 -12 -26 -38 -35 -57 -10 -19 -21 -40 -27 -46 -5 -7
-22 -32 -37 -58 -27 -46 -48 -59 -48 -31 0 8 -4 15 -8 15 -4 0 -14 16 -21 35
-7 19 -17 35 -22 35 -15 0 -11 -11 23 -67 18 -29 38 -53 45 -53 12 0 59 68 98
143 11 21 30 49 42 64 13 14 23 30 23 35 0 14 -15 8 -33 -15z" />
    <path d="M520 1787 c0 -15 31 -69 37 -63 3 3 -4 20 -16 38 -11 18 -21 29 -21
25z" />
    <path d="M1230 1783 c0 -3 12 -27 27 -52 l26 -46 5 13 c2 7 -8 31 -22 52 -25
38 -36 48 -36 33z" />
    <path d="M580 1681 c0 -5 5 -13 10 -16 6 -3 10 -2 10 4 0 5 -4 13 -10 16 -5 3
-10 2 -10 -4z" />
    <path d="M2028 1633 c-38 -59 -88 -150 -88 -157 0 -3 4 -6 8 -6 4 0 24 30 43
68 18 37 37 69 40 72 3 3 12 16 18 28 21 40 4 36 -21 -5z" />
    <path d="M620 1616 c0 -11 43 -76 47 -72 3 3 -5 21 -17 40 -20 33 -30 43 -30
32z" />
    <path d="M1050 1581 c0 -13 97 -191 110 -201 3 -3 12 -20 19 -37 8 -18 17 -33
22 -33 12 0 11 -47 -1 -55 -5 -3 -10 -14 -10 -23 l1 -17 19 24 c11 13 20 29
20 36 0 12 -154 291 -171 310 l-9 9 0 -13z" />
    <path d="M680 1515 c0 -12 52 -96 57 -92 5 6 -36 85 -48 93 -5 3 -9 2 -9 -1z" />
    <path d="M1918 1440 c-54 -88 -88 -149 -88 -160 0 -13 89 -170 96 -170 9 0 3
30 -8 42 -7 8 -26 39 -42 70 l-30 57 25 48 c13 26 26 50 29 53 17 16 41 63 37
73 l-4 12 -15 -25z" />
    <path d="M750 1394 c0 -4 14 -32 31 -62 l30 -54 -69 -121 c-37 -67 -101 -178
-140 -246 -40 -69 -72 -126 -72 -128 0 -2 5 -3 10 -3 6 0 18 17 28 38 9 20 20
39 23 42 11 9 99 169 99 180 0 5 4 10 9 10 5 0 15 16 22 35 7 19 16 35 19 35
4 0 15 19 26 43 10 23 21 44 25 47 12 10 29 49 29 68 0 11 -12 40 -26 66 -24
43 -44 66 -44 50z" />
    <path d="M2240 1259 c0 -14 41 -83 52 -87 4 -2 8 -8 8 -14 0 -13 139 -258 156
-275 7 -7 29 -43 49 -80 44 -79 43 -78 51 -70 3 3 -14 38 -38 77 -52 86 -151
255 -213 367 -46 81 -65 106 -65 82z" />
    <path d="M1113 1102 c-35 -60 -63 -114 -63 -120 0 -5 -4 -12 -8 -14 -11 -4
-112 -182 -112 -197 0 -6 -3 -11 -8 -11 -12 0 -72 -115 -72 -139 l0 -21 297 2
297 3 29 47 c16 26 27 52 25 58 -2 7 -18 -10 -35 -38 l-31 -49 -28 -4 c-16 -2
-145 -2 -287 1 l-258 5 96 164 c52 90 95 165 95 167 0 1 29 52 65 113 72 121
81 141 69 141 -5 0 -37 -49 -71 -108z" />
    <path d="M1940 1082 c0 -5 7 -17 15 -28 15 -19 20 -8 9 20 -6 17 -24 22 -24 8z" />
    <path d="M1980 1016 c0 -10 39 -80 112 -202 26 -45 48 -84 48 -88 0 -3 21 -43
47 -87 26 -45 49 -77 51 -71 2 6 -8 28 -22 49 -14 21 -26 43 -26 49 0 6 -6 17
-14 23 -8 7 -17 24 -21 39 -4 15 -10 29 -13 32 -4 3 -17 25 -29 50 -55 110
-133 231 -133 206z" />
    <path d="M1645 970 c-27 -43 -29 -50 -16 -50 5 0 19 17 31 37 l22 37 8 -14 c5
-8 12 -11 16 -7 8 7 -14 37 -27 37 -5 0 -20 -18 -34 -40z" />
    <path d="M1720 942 c0 -19 19 -52 30 -52 15 0 12 12 -10 40 l-20 25 0 -13z" />
    <path d="M1584 864 c-16 -27 -36 -61 -43 -76 -8 -16 -18 -28 -23 -28 -4 0 -8
-4 -8 -10 0 -5 6 -10 13 -10 15 0 100 146 94 163 -2 6 -16 -12 -33 -39z" />
    <path d="M1760 866 c0 -8 7 -21 15 -30 8 -8 15 -18 15 -22 0 -4 18 -38 40 -76
l39 -69 -17 -37 c-9 -20 -22 -42 -28 -48 -6 -7 -24 -38 -40 -70 -16 -32 -34
-64 -39 -70 -6 -6 -22 -33 -35 -60 -14 -27 -27 -51 -30 -54 -3 -3 -16 -20 -29
-37 -12 -18 -29 -33 -37 -33 -8 0 -13 -4 -9 -10 l6 -9 22 8 c12 5 35 30 51 57
34 57 178 309 194 340 l11 21 -20 39 c-30 57 -101 174 -105 174 -2 0 -4 -6 -4
-14z" />
    <path d="M421 596 c-55 -96 -104 -182 -107 -190 -3 -9 -2 -16 3 -16 5 0 25 30
44 67 18 37 40 73 46 81 7 7 16 24 19 38 3 13 10 24 14 24 5 0 12 10 16 22 3
12 13 28 20 36 8 7 14 20 14 28 0 8 4 14 9 14 10 0 36 58 29 66 -3 2 -51 -74
-107 -170z" />
    <path d="M2560 716 c0 -9 41 -97 50 -106 3 -3 20 -35 38 -71 38 -78 58 -106
67 -98 3 4 -17 46 -45 95 -28 48 -57 102 -65 119 -15 34 -44 75 -45 61z" />
    <path d="M2250 531 c0 -5 5 -13 10 -16 6 -3 10 -2 10 4 0 5 -4 13 -10 16 -5 3
-10 2 -10 -4z" />
    <path d="M2280 484 c0 -8 191 -334 196 -334 9 0 3 29 -8 42 -7 8 -26 39 -43
71 -16 31 -32 57 -36 57 -4 0 -10 11 -13 24 -3 14 -12 31 -19 38 -7 7 -26 34
-41 61 -26 44 -36 55 -36 41z" />
    <path d="M2730 430 l0 -10 90 0 90 0 0 -10 c0 -5 5 -10 10 -10 16 0 11 27 -6
34 -9 3 -54 6 -100 6 l-84 0 0 -10z" />
    <path d="M267 329 c-28 -47 -35 -79 -17 -79 6 0 10 7 10 16 0 9 9 32 21 50 11
19 19 40 17 46 -3 7 -17 -8 -31 -33z" />
    <path d="M274 251 l6 -9 154 -1 154 -2 7 11 6 10 -166 0 -166 0 5 -9z" />
    <path d="M2490 120 c0 -5 9 -19 20 -30 l20 -20 184 0 c101 0 191 3 200 6 17 7
22 34 6 34 -5 0 -10 -4 -10 -10 l0 -10 -190 0 -190 0 -12 20 c-14 21 -28 27
-28 10z" />
  </g>
  <g transform="translate(0.000000,260.000000) scale(0.100000,-0.100000)" fill="#c3f0fc" stroke="none">
    <path d="M115 2509 c-11 -17 -2 -18 19 -3 l20 14 -16 0 c-9 0 -20 -5 -23 -11z" />
    <path d="M511 2501 c13 -11 26 -18 28 -15 7 7 -21 34 -36 34 l-15 0 23 -19z" />
    <path d="M566 2427 c3 -10 9 -15 12 -12 3 3 0 11 -7 18 l-12 12 7 -18z" />
    <path d="M590 2381 c0 -5 5 -13 10 -16 6 -3 10 -2 10 4 0 5 -4 13 -10 16 -5 3
-10 2 -10 -4z" />
    <path d="M641 2300 c14 -31 19 -36 19 -24 0 6 -7 19 -16 30 l-15 19 12 -25z" />
    <path d="M1406 2294 c-21 -20 -39 -54 -33 -61 3 -3 13 9 22 26 8 17 21 32 28
32 6 1 317 0 691 -1 l678 -2 -6 11 -7 11 -679 0 -679 0 -15 -16z" />
    <path d="M2746 2196 c-20 -35 -36 -69 -36 -75 0 -6 -4 -11 -9 -11 -5 0 -15
-15 -22 -32 -7 -18 -19 -39 -26 -46 -7 -7 -13 -20 -13 -28 0 -8 -4 -14 -9 -14
-5 0 -16 -17 -25 -37 -25 -56 -59 -115 -78 -137 -10 -11 -18 -28 -18 -38 0
-10 -4 -18 -9 -18 -5 0 -14 -12 -20 -27 -7 -16 -23 -46 -36 -68 -14 -22 -28
-48 -31 -57 -4 -10 -10 -18 -14 -18 -4 0 -13 -15 -21 -32 -7 -18 -16 -35 -20
-38 -15 -11 -110 -191 -107 -202 3 -7 19 15 38 48 44 79 278 484 407 707 57
98 103 180 103 183 0 2 -4 4 -9 4 -5 0 -25 -29 -45 -64z" />
    <path d="M670 2245 c0 -3 18 -34 40 -67 22 -34 40 -66 40 -72 0 -5 3 -6 6 -3
4 3 -12 38 -36 77 -39 65 -50 79 -50 65z" />
    <path d="M1306 2129 c-26 -45 -45 -84 -42 -86 2 -2 25 33 50 78 26 45 45 84
42 86 -2 2 -25 -33 -50 -78z" />
    <path d="M110 2169 c0 -11 25 -22 39 -17 6 1 -1 8 -14 15 l-25 11 0 -9z" />
    <path d="M320 2147 c0 -10 61 -117 66 -117 3 0 -3 14 -12 31 -24 48 -54 95
-54 86z" />
    <path d="M784 2053 c29 -56 98 -167 92 -148 -9 24 -96 175 -102 175 -3 0 2
-12 10 -27z" />
    <path d="M1210 1965 c-18 -31 -30 -58 -27 -61 2 -3 19 20 36 52 18 31 30 58
28 61 -3 2 -19 -21 -37 -52z" />
    <path d="M400 2001 c0 -6 4 -13 10 -16 l10 -6 -6 15 c-7 18 -14 21 -14 7z" />
    <path d="M420 1961 c0 -6 4 -13 10 -16 l10 -6 -6 15 c-7 18 -14 21 -14 7z" />
    <path d="M1612 1937 c-22 -23 -68 -99 -78 -129 -4 -10 -10 -18 -14 -18 -8 0
-30 -35 -78 -120 -13 -25 -31 -52 -38 -61 -8 -8 -14 -21 -14 -27 l0 -12 -19
12 c-11 7 -22 19 -25 28 -7 21 -43 81 -56 94 l-10 10 0 -9 c1 -16 84 -148 95
-152 6 -2 37 42 70 97 32 55 66 110 76 121 10 11 37 54 60 95 23 41 48 74 55
74 7 0 16 5 19 10 12 20 -22 10 -43 -13z" />
    <path d="M2155 1951 c3 -6 15 -11 27 -11 l20 0 -5 -12 c-3 -7 -9 -22 -13 -33
l-8 -20 18 14 17 14 -3 26 -3 26 -29 3 -28 4 7 -11z" />
    <path d="M470 1877 c0 -10 50 -97 56 -97 5 0 -28 64 -45 90 -6 8 -11 11 -11 7z" />
    <path d="M896 1847 c3 -10 9 -15 12 -12 3 3 0 11 -7 18 l-12 12 7 -18z" />
    <path d="M2136 1816 c-14 -24 -26 -47 -26 -50 0 -3 4 -6 10 -6 5 0 12 11 16
25 3 14 10 25 14 25 8 0 22 42 16 48 -2 1 -15 -17 -30 -42z" />
    <path d="M1210 1824 c0 -11 53 -95 57 -90 3 2 -7 25 -22 50 -25 43 -35 54 -35
40z" />
    <path d="M920 1804 c0 -5 7 -19 15 -30 8 -10 15 -14 15 -8 0 5 -7 19 -15 30
-8 10 -15 14 -15 8z" />
    <path d="M540 1757 c0 -12 103 -178 107 -173 2 2 -15 35 -38 72 -52 86 -69
111 -69 101z" />
    <path d="M960 1733 c0 -5 9 -21 20 -38 24 -36 26 -26 5 15 -15 29 -25 38 -25
23z" />
    <path d="M2072 1706 c-25 -42 -26 -46 -12 -46 12 0 42 58 38 72 -2 6 -14 -5
-26 -26z" />
    <path d="M1010 1646 c0 -11 53 -96 57 -92 6 5 -44 96 -52 96 -3 0 -5 -2 -5 -4z" />
    <path d="M2017 1609 c-29 -49 -32 -59 -18 -59 5 0 14 15 22 33 7 17 17 35 22
38 5 4 7 13 5 20 l-5 14 -26 -46z" />
    <path d="M660 1554 c0 -5 7 -19 15 -30 8 -10 15 -14 15 -8 0 5 -7 19 -15 30
-8 10 -15 14 -15 8z" />
    <path d="M1080 1525 c0 -13 32 -66 36 -62 6 6 -23 67 -31 67 -3 0 -5 -2 -5 -5z" />
    <path d="M1951 1495 c-24 -41 -25 -45 -11 -45 6 0 10 7 10 15 0 8 4 15 9 15
11 0 26 39 18 46 -2 3 -14 -11 -26 -31z" />
    <path d="M700 1481 c0 -5 5 -13 10 -16 6 -3 10 -2 10 4 0 5 -4 13 -10 16 -5 3
-10 2 -10 -4z" />
    <path d="M730 1434 c0 -5 7 -19 15 -30 8 -10 15 -14 15 -8 0 5 -7 19 -15 30
-8 10 -15 14 -15 8z" />
    <path d="M1130 1433 c1 -5 14 -30 31 -58 16 -27 32 -58 36 -67 3 -10 9 -18 14
-18 5 0 9 2 9 4 0 7 -82 146 -86 146 -2 0 -4 -3 -4 -7z" />
    <path d="M1896 1396 c-28 -49 -31 -56 -17 -56 5 0 13 10 17 22 3 12 13 28 20
36 13 12 20 42 10 42 -2 0 -16 -20 -30 -44z" />
    <path d="M770 1364 c0 -11 42 -75 47 -71 2 3 -6 21 -18 41 -20 34 -29 44 -29
30z" />
    <path d="M1841 1298 l-9 -23 31 -55 c16 -30 34 -59 39 -64 l8 -10 0 16 c0 9
-4 19 -9 22 -5 3 -18 25 -29 50 l-21 43 6 22 c7 28 -5 27 -16 -1z" />
    <path d="M2230 1278 c0 -21 33 -85 49 -98 4 -3 15 -24 25 -47 11 -24 23 -43
28 -43 4 0 8 -6 8 -14 0 -8 6 -21 14 -28 7 -8 16 -24 20 -36 4 -12 13 -28 19
-35 7 -7 21 -30 32 -52 11 -22 25 -43 32 -48 7 -4 24 -30 39 -57 15 -28 29
-48 32 -45 2 2 -16 37 -40 77 -104 168 -238 409 -238 428 0 11 -4 20 -10 20
-5 0 -10 -10 -10 -22z" />
    <path d="M807 1263 c-4 -3 -7 -11 -7 -17 l0 -10 12 12 c6 6 9 14 7 17 -3 3 -9
2 -12 -2z" />
    <path d="M1200 1254 l0 -15 10 6 c6 3 10 10 10 16 0 5 -4 9 -10 9 -5 0 -10 -7
-10 -16z" />
    <path d="M1177 1223 c-4 -3 -7 -13 -7 -21 l0 -14 15 12 c8 7 15 16 15 21 0 11
-14 12 -23 2z" />
    <path d="M770 1200 c-6 -12 -9 -24 -7 -27 3 -2 11 5 17 17 6 12 9 24 7 27 -3
2 -11 -5 -17 -17z" />
    <path d="M1150 1165 c0 -8 -4 -15 -10 -15 -5 0 -12 -11 -16 -25 -3 -14 -10
-25 -14 -25 -10 0 -34 -59 -27 -66 2 -3 22 26 43 63 49 85 48 83 35 83 -6 0
-11 -7 -11 -15z" />
    <path d="M720 1110 c-6 -12 -9 -24 -7 -27 3 -2 11 5 17 17 6 12 9 24 7 27 -3
2 -11 -5 -17 -17z" />
    <path d="M1920 1122 c0 -5 7 -17 15 -28 15 -19 20 -8 9 20 -6 17 -24 22 -24 8z" />
    <path d="M687 1053 c-4 -3 -7 -11 -7 -17 l0 -10 12 12 c6 6 9 14 7 17 -3 3 -9
2 -12 -2z" />
    <path d="M1960 1054 c0 -3 12 -26 27 -51 l27 -46 4 12 c2 7 -3 20 -11 29 -8 9
-18 27 -21 40 -4 12 -12 22 -17 22 -5 0 -9 -3 -9 -6z" />
    <path d="M650 989 c-13 -24 -4 -41 10 -19 10 16 13 40 5 40 -2 0 -9 -9 -15
-21z" />
    <path d="M1046 994 c-11 -28 -6 -39 9 -20 8 11 15 23 15 28 0 14 -18 9 -24 -8z" />
    <path d="M1660 985 c-16 -19 -5 -34 12 -17 18 18 25 15 32 -13 4 -14 11 -25
16 -25 14 0 13 8 -7 41 -19 32 -34 36 -53 14z" />
    <path d="M1004 915 c-3 -14 -10 -25 -14 -25 -4 0 -13 -15 -21 -32 -7 -18 -22
-45 -32 -60 -11 -14 -17 -32 -15 -39 2 -6 27 29 56 79 29 51 52 94 52 97 0 3
-4 5 -10 5 -5 0 -12 -11 -16 -25z" />
    <path d="M1620 919 c-13 -24 -4 -41 10 -19 10 16 13 40 5 40 -2 0 -9 -9 -15
-21z" />
    <path d="M2030 933 c0 -14 52 -94 58 -88 7 7 -39 95 -50 95 -5 0 -8 -3 -8 -7z" />
    <path d="M607 913 c-4 -3 -7 -11 -7 -17 l0 -10 12 12 c6 6 9 14 7 17 -3 3 -9
2 -12 -2z" />
    <path d="M1740 902 c0 -16 22 -62 30 -62 3 0 12 -16 19 -35 7 -19 16 -35 21
-35 4 0 11 -11 14 -24 3 -14 12 -31 20 -39 8 -8 16 -20 17 -28 3 -16 -29 -87
-48 -107 -7 -7 -13 -20 -13 -28 0 -8 -3 -14 -7 -14 -5 0 -13 -10 -19 -23 -17
-36 -59 -112 -65 -117 -3 -3 -12 -21 -21 -40 -9 -20 -26 -46 -36 -58 l-19 -22
-212 0 -211 0 0 -10 0 -10 215 0 214 0 29 43 c43 64 212 361 212 374 0 11
-115 219 -132 238 l-8 9 0 -12z" />
    <path d="M571 852 c-7 -13 -11 -26 -8 -28 8 -8 29 25 25 38 l-5 13 -12 -23z" />
    <path d="M1576 841 c-18 -35 -19 -41 -7 -41 10 0 34 61 27 68 -3 2 -12 -10
-20 -27z" />
    <path d="M526 771 c-18 -35 -19 -41 -7 -41 11 0 36 59 28 66 -3 3 -13 -8 -21
-25z" />
    <path d="M2110 796 c0 -8 51 -106 55 -106 6 0 -13 62 -27 88 -6 12 -15 22 -20
22 -4 0 -8 -2 -8 -4z" />
    <path d="M1536 771 c-4 -7 -5 -15 -2 -18 9 -9 19 4 14 18 l-4 13 -8 -13z" />
    <path d="M1500 729 c-13 -24 -4 -41 10 -19 10 16 13 40 5 40 -2 0 -9 -9 -15
-21z" />
    <path d="M2542 745 c27 -63 89 -185 98 -190 5 -3 10 -3 10 0 0 10 -91 179
-102 190 l-10 10 4 -10z" />
    <path d="M890 714 l0 -15 10 6 c6 3 10 10 10 16 0 5 -4 9 -10 9 -5 0 -10 -7
-10 -16z" />
    <path d="M487 703 c-4 -3 -7 -11 -7 -17 l0 -10 12 12 c6 6 9 14 7 17 -3 3 -9
2 -12 -2z" />
    <path d="M1453 646 l-33 -46 15 0 c8 0 15 7 15 15 0 8 5 15 10 15 6 0 10 6 10
14 0 8 5 16 12 18 6 2 9 10 7 17 l-4 12 -32 -45z" />
    <path d="M851 649 c-13 -38 -13 -39 -2 -39 5 0 11 8 14 18 2 9 8 25 12 35 l7
17 -10 0 c-6 0 -15 -14 -21 -31z" />
    <path d="M2180 662 c0 -5 7 -17 16 -28 l15 -19 -10 21 c-6 12 -7 24 -4 28 3 3
1 6 -5 6 -7 0 -12 -4 -12 -8z" />
    <path d="M411 571 c-28 -48 -51 -91 -51 -95 0 -3 4 -6 9 -6 5 0 15 16 22 35 7
19 16 35 20 35 4 0 13 15 20 33 7 17 19 38 26 45 12 13 18 42 9 42 -3 0 -27
-40 -55 -89z" />
    <path d="M2220 594 c0 -11 62 -115 66 -111 2 2 -10 29 -27 60 -28 53 -39 67
-39 51z" />
    <path d="M2650 531 c0 -14 34 -71 43 -71 4 0 7 -6 7 -14 0 -8 9 -18 21 -21 28
-9 36 1 11 14 -11 6 -32 31 -46 56 -26 44 -36 54 -36 36z" />
    <path d="M2300 451 c0 -5 5 -13 10 -16 6 -3 10 -2 10 4 0 5 -4 13 -10 16 -5 3
-10 2 -10 -4z" />
    <path d="M290 360 c-28 -49 -49 -94 -45 -100 8 -13 55 -13 55 0 0 6 -9 10 -20
10 l-21 0 33 62 c18 34 39 68 46 76 11 13 17 42 8 42 -3 0 -28 -40 -56 -90z" />
    <path d="M2890 420 c0 -5 5 -10 10 -10 l10 0 0 -155 0 -155 -10 0 c-5 0 -10
-4 -10 -10 0 -16 27 -11 34 6 3 9 6 80 6 159 0 79 -3 150 -6 159 -7 17 -34 22
-34 6z" />
    <path d="M2330 406 c0 -6 169 -298 182 -313 12 -15 38 -17 38 -3 0 6 -6 10
-14 10 -8 0 -25 20 -37 45 -12 25 -25 45 -29 45 -3 0 -12 16 -19 35 -7 19 -17
35 -22 35 -5 0 -9 6 -9 14 0 8 -6 21 -14 28 -7 8 -16 23 -20 35 -6 19 -56 81
-56 69z" />
  </g>
  <g transform="translate(0.000000,260.000000) scale(0.100000,-0.100000)" fill="#ade9fb" stroke="none">
    <path d="M227 2513 c51 -2 135 -2 185 0 51 1 10 3 -92 3 -102 0 -143 -2 -93
-3z" />
    <path d="M532 2480 c12 -16 23 -30 25 -30 2 0 -4 14 -14 30 -9 17 -21 30 -25
30 -5 0 1 -13 14 -30z" />
    <path d="M595 2375 c15 -27 32 -54 38 -60 6 -5 -2 13 -18 40 -15 28 -32 55
-38 60 -6 6 2 -12 18 -40z" />
    <path d="M2770 2290 c0 -5 4 -10 9 -10 5 0 7 -10 4 -22 l-4 -23 15 19 c22 27
20 46 -4 46 -11 0 -20 -4 -20 -10z" />
    <path d="M1397 2283 c-4 -3 -7 -11 -7 -17 l0 -10 12 12 c6 6 9 14 7 17 -3 3
-9 2 -12 -2z" />
    <path d="M665 2250 c9 -16 18 -30 21 -30 2 0 -2 14 -11 30 -9 17 -18 30 -21
30 -2 0 2 -13 11 -30z" />
    <path d="M1360 2219 c-7 -11 -10 -23 -7 -25 2 -2 9 7 15 21 14 30 7 33 -8 4z" />
    <path d="M2740 2183 c-28 -47 -55 -94 -88 -153 -14 -25 -32 -56 -41 -70 -9
-14 -23 -38 -31 -55 -8 -16 -25 -47 -38 -68 -13 -22 -21 -41 -19 -44 3 -2 16
15 30 39 14 24 68 119 122 211 53 93 95 171 92 173 -2 3 -15 -12 -27 -33z" />
    <path d="M700 2191 c5 -11 15 -23 21 -27 6 -3 3 5 -6 20 -20 30 -30 35 -15 7z" />
    <path d="M1320 2149 c-7 -11 -10 -23 -7 -25 2 -2 9 7 15 21 14 30 7 33 -8 4z" />
    <path d="M193 2153 c26 -2 67 -2 90 0 23 2 2 3 -48 3 -50 0 -68 -1 -42 -3z" />
    <path d="M345 2100 c3 -5 8 -10 11 -10 3 0 2 5 -1 10 -3 6 -8 10 -11 10 -3 0
-2 -4 1 -10z" />
    <path d="M755 2100 c3 -5 8 -10 11 -10 3 0 2 5 -1 10 -3 6 -8 10 -11 10 -3 0
-2 -4 1 -10z" />
    <path d="M1255 2035 c-8 -14 -22 -37 -31 -51 -8 -14 -13 -28 -11 -30 3 -3 18
20 35 50 30 57 35 77 7 31z" />
    <path d="M390 2020 c6 -11 13 -20 16 -20 2 0 0 9 -6 20 -6 11 -13 20 -16 20
-2 0 0 -9 6 -20z" />
    <path d="M796 2027 c3 -10 9 -15 12 -12 3 3 0 11 -7 18 l-12 12 7 -18z" />
    <path d="M410 1981 c0 -6 4 -13 10 -16 l10 -6 -6 15 c-7 18 -14 21 -14 7z" />
    <path d="M830 1970 c6 -11 13 -20 16 -20 2 0 0 9 -6 20 -6 11 -13 20 -16 20
-2 0 0 -9 6 -20z" />
    <path d="M1616 1944 c-23 -23 -20 -30 4 -9 11 10 20 20 20 22 0 7 -9 2 -24
-13z" />
    <path d="M430 1941 c0 -6 4 -13 10 -16 l10 -6 -6 15 c-7 18 -14 21 -14 7z" />
    <path d="M2200 1934 l0 -15 10 6 c6 4 8 11 5 16 -9 14 -15 11 -15 -7z" />
    <path d="M1183 1903 l-6 -16 29 -55 c16 -29 33 -56 38 -59 5 -4 -5 19 -23 51
l-33 57 5 20 c6 23 -1 25 -10 2z" />
    <path d="M460 1890 c6 -11 13 -20 16 -20 2 0 0 9 -6 20 -6 11 -13 20 -16 20
-2 0 0 -9 6 -20z" />
    <path d="M875 1890 c3 -5 8 -10 11 -10 3 0 2 5 -1 10 -3 6 -8 10 -11 10 -3 0
-2 -4 1 -10z" />
    <path d="M1551 1844 c-18 -31 -31 -58 -28 -60 2 -3 19 20 36 52 18 31 31 58
29 60 -2 2 -19 -22 -37 -52z" />
    <path d="M2131 1801 c-29 -51 -51 -95 -48 -98 7 -6 67 86 67 103 0 6 9 23 21
38 11 14 19 31 17 37 -2 7 -28 -30 -57 -80z" />
    <path d="M890 1860 c0 -7 3 -10 7 -7 3 4 3 10 0 14 -4 3 -7 0 -7 -7z" />
    <path d="M490 1841 c0 -6 4 -13 10 -16 l10 -6 -6 15 c-7 18 -14 21 -14 7z" />
    <path d="M911 1820 c14 -31 19 -36 19 -24 0 6 -7 19 -16 30 l-15 19 12 -25z" />
    <path d="M2482 1738 c-12 -24 -36 -67 -53 -97 -16 -29 -28 -55 -26 -58 3 -2
29 38 58 89 64 109 63 108 52 108 -5 0 -19 -19 -31 -42z" />
    <path d="M535 1760 c3 -5 8 -10 11 -10 3 0 2 5 -1 10 -3 6 -8 10 -11 10 -3 0
-2 -4 1 -10z" />
    <path d="M957 1735 c9 -19 18 -33 21 -31 4 5 -26 66 -33 66 -3 0 3 -16 12 -35z" />
    <path d="M1465 1715 c-15 -26 -25 -49 -22 -51 3 -3 17 16 31 42 14 26 25 49
22 51 -2 2 -16 -17 -31 -42z" />
    <path d="M1260 1744 c0 -11 53 -95 57 -90 3 2 -7 25 -22 50 -25 43 -35 54 -35
40z" />
    <path d="M580 1691 c0 -6 4 -13 10 -16 l10 -6 -6 15 c-7 18 -14 21 -14 7z" />
    <path d="M1016 1630 c15 -28 29 -48 31 -46 5 5 -46 96 -54 96 -2 0 8 -23 23
-50z" />
    <path d="M1991 1557 c-39 -68 -71 -127 -71 -131 0 -3 4 -6 9 -6 5 0 12 11 15
24 3 14 12 31 19 38 7 7 20 27 29 43 9 17 30 57 47 89 56 108 25 70 -48 -57z" />
    <path d="M610 1641 c0 -6 4 -13 10 -16 l10 -6 -6 15 c-7 18 -14 21 -14 7z" />
    <path d="M1401 1610 c-12 -17 -25 -30 -30 -30 -4 0 -13 12 -20 26 -6 15 -15
24 -18 20 -8 -7 28 -58 44 -63 10 -4 58 66 50 73 -2 2 -13 -10 -26 -26z" />
    <path d="M640 1594 c0 -6 7 -19 16 -30 l15 -19 -12 25 c-14 31 -19 36 -19 24z" />
    <path d="M1060 1553 c0 -5 9 -21 20 -38 24 -36 26 -26 5 15 -15 29 -25 38 -25
23z" />
    <path d="M2364 1538 c-3 -12 -13 -28 -20 -36 -13 -12 -20 -42 -10 -42 5 0 56
86 56 94 0 3 -4 6 -9 6 -5 0 -13 -10 -17 -22z" />
    <path d="M680 1527 c0 -10 50 -97 56 -97 5 0 -28 64 -45 90 -6 8 -11 11 -11 7z" />
    <path d="M1111 1465 c0 -5 6 -19 14 -29 8 -11 15 -15 15 -10 0 6 -7 19 -15 30
-8 10 -14 15 -14 9z" />
    <path d="M2294 1408 c-9 -18 -20 -35 -24 -38 -10 -7 -41 -82 -36 -87 2 -2 23
30 46 72 23 42 39 79 36 82 -2 3 -12 -10 -22 -29z" />
    <path d="M750 1407 c0 -10 50 -97 56 -97 5 0 -28 64 -45 90 -6 8 -11 11 -11 7z" />
    <path d="M1150 1394 c0 -5 7 -19 15 -30 8 -10 15 -14 15 -8 0 5 -7 19 -15 30
-8 10 -15 14 -15 8z" />
    <path d="M1871 1346 c-17 -29 -31 -59 -31 -66 0 -13 148 -280 155 -280 9 0
-16 63 -37 92 -13 18 -28 42 -34 53 -49 88 -64 119 -64 136 0 20 16 54 38 77
11 13 17 42 8 42 -3 0 -18 -24 -35 -54z" />
    <path d="M1197 1302 l6 -33 -13 -25 c-7 -13 -11 -27 -7 -30 7 -7 37 49 37 69
0 7 -7 22 -15 33 l-15 19 7 -33z" />
    <path d="M812 1280 c0 -14 2 -19 5 -12 2 6 2 18 0 25 -3 6 -5 1 -5 -13z" />
    <path d="M790 1230 c-6 -12 -9 -24 -7 -27 3 -2 11 5 17 17 6 12 9 24 7 27 -3
2 -11 -5 -17 -17z" />
    <path d="M2260 1211 c0 -16 50 -104 65 -113 5 -3 19 -27 30 -52 11 -25 23 -46
28 -46 4 0 7 2 7 5 0 7 -110 198 -121 210 l-9 9 0 -13z" />
    <path d="M1136 1149 c-15 -28 -25 -53 -23 -55 4 -4 67 92 67 102 0 2 -4 4 -8
4 -4 0 -20 -23 -36 -51z" />
    <path d="M745 1150 c-9 -18 -14 -34 -11 -37 2 -3 12 9 21 27 9 18 14 34 11 37
-2 3 -12 -9 -21 -27z" />
    <path d="M620 930 c-51 -89 -90 -163 -87 -166 2 -2 46 68 96 157 51 89 90 163
88 166 -3 2 -46 -68 -97 -157z" />
    <path d="M1076 1046 c-9 -14 -16 -30 -16 -35 0 -5 -4 -11 -9 -13 -5 -1 -23
-30 -40 -63 -17 -33 -44 -82 -61 -110 -17 -27 -36 -61 -43 -75 -6 -14 -14 -27
-18 -30 -11 -9 -31 -52 -26 -56 2 -3 9 1 14 8 24 30 225 390 220 394 -2 3 -12
-7 -21 -20z" />
    <path d="M1653 966 c-32 -48 -73 -122 -73 -131 0 -15 37 34 55 75 10 22 22 40
27 40 4 0 8 7 8 17 l0 16 20 -18 c11 -10 20 -23 20 -28 0 -6 6 -18 14 -26 7
-9 26 -41 42 -71 16 -30 32 -57 35 -60 4 -3 14 -22 23 -43 8 -21 22 -45 31
-53 8 -9 12 -20 9 -26 l-7 -11 11 7 11 7 -7 17 c-19 47 -174 310 -185 315
l-13 5 -21 -32z" />
    <path d="M2010 974 c0 -10 52 -95 56 -91 6 6 -40 97 -48 97 -5 0 -8 -3 -8 -6z" />
    <path d="M2400 966 c0 -14 39 -67 40 -53 0 11 -29 67 -35 67 -3 0 -5 -6 -5
-14z" />
    <path d="M2465 870 c3 -5 8 -10 11 -10 3 0 2 5 -1 10 -3 6 -8 10 -11 10 -3 0
-2 -4 1 -10z" />
    <path d="M2080 852 c0 -4 13 -28 28 -53 16 -24 32 -53 37 -64 l8 -20 5 19 c2
10 0 21 -5 25 -6 3 -22 27 -37 54 -27 46 -36 55 -36 39z" />
    <path d="M2496 817 c3 -10 9 -15 12 -12 3 3 0 11 -7 18 l-12 12 7 -18z" />
    <path d="M1545 781 c-8 -17 -19 -31 -23 -31 -4 0 -20 -24 -35 -52 -16 -29 -34
-61 -41 -71 l-13 -17 -289 2 -289 3 3 20 2 20 -11 -19 -12 -19 19 -14 18 -13
273 0 274 0 24 16 c13 9 29 30 35 48 6 18 26 51 45 72 35 39 51 71 42 81 -3 3
-13 -9 -22 -26z" />
    <path d="M2531 760 c14 -31 19 -36 19 -24 0 6 -7 19 -16 30 l-15 19 12 -25z" />
    <path d="M487 697 c-30 -51 -34 -65 -12 -47 8 7 15 17 15 23 0 6 7 18 16 28 9
10 14 23 12 30 l-4 12 -27 -46z" />
    <path d="M2170 681 c0 -5 5 -13 10 -16 6 -3 10 -2 10 4 0 5 -4 13 -10 16 -5 3
-10 2 -10 -4z" />
    <path d="M2571 685 c0 -5 6 -19 14 -29 8 -11 15 -15 15 -10 0 6 -7 19 -15 30
-8 10 -14 15 -14 9z" />
    <path d="M1831 609 c-18 -40 -7 -49 13 -10 18 34 19 41 8 41 -4 0 -13 -14 -21
-31z" />
    <path d="M437 608 c-34 -54 -97 -167 -97 -173 0 -4 7 -2 15 5 8 7 15 16 15 21
0 5 20 43 45 85 25 42 44 79 41 81 -2 3 -11 -6 -19 -19z" />
    <path d="M2210 611 c0 -6 4 -13 10 -16 l10 -6 -6 15 c-7 18 -14 21 -14 7z" />
    <path d="M2610 601 c0 -5 5 -13 10 -16 6 -3 10 -2 10 4 0 5 -4 13 -10 16 -5 3
-10 2 -10 -4z" />
    <path d="M2240 564 c0 -6 7 -19 16 -30 l15 -19 -12 25 c-14 31 -19 36 -19 24z" />
    <path d="M2640 551 c0 -5 5 -13 10 -16 6 -3 10 -2 10 4 0 5 -4 13 -10 16 -5 3
-10 2 -10 -4z" />
    <path d="M1790 534 l0 -15 10 6 c6 3 10 10 10 16 0 5 -4 9 -10 9 -5 0 -10 -7
-10 -16z" />
    <path d="M1760 486 c-6 -9 -10 -21 -8 -28 l5 -13 12 23 c15 28 9 39 -9 18z" />
    <path d="M2280 496 c0 -10 51 -96 57 -96 3 0 -7 21 -23 48 -31 54 -34 58 -34
48z" />
    <path d="M2690 456 c0 -9 5 -16 10 -16 6 0 10 4 10 9 0 6 -4 13 -10 16 l-10 6
0 -15z" />
    <path d="M1720 410 c-6 -12 -9 -24 -7 -27 3 -2 11 5 17 17 6 12 9 24 7 27 -3
2 -11 -5 -17 -17z" />
    <path d="M2900 410 c0 -5 5 -10 10 -10 6 0 10 5 10 10 0 6 -4 10 -10 10 -5 0
-10 -4 -10 -10z" />
    <path d="M311 392 c-7 -13 -11 -26 -8 -28 8 -8 29 25 25 38 l-5 13 -12 -23z" />
    <path d="M2382 319 c22 -38 42 -68 45 -65 8 7 -67 136 -79 136 -4 0 11 -32 34
-71z" />
    <path d="M1666 320 c-10 -22 -22 -40 -27 -40 -5 0 -9 -4 -9 -10 0 -21 16 -8
43 34 28 45 32 56 19 56 -5 0 -16 -18 -26 -40z" />
    <path d="M261 302 c-13 -25 -14 -42 -2 -42 10 0 25 50 17 57 -2 3 -9 -4 -15
-15z" />
    <path d="M285 260 l6 -10 464 0 464 0 6 10 6 10 -476 0 -476 0 6 -10z" />
    <path d="M1495 260 c4 -6 11 -8 16 -5 14 9 11 15 -7 15 l-15 0 6 -10z" />
    <path d="M1595 260 c4 -6 11 -8 16 -5 14 9 11 15 -7 15 l-15 0 6 -10z" />
    <path d="M2450 201 c0 -6 5 -13 10 -16 l10 -6 0 15 c0 9 -4 16 -10 16 -5 0
-10 -4 -10 -9z" />
    <path d="M2480 151 c0 -5 5 -13 10 -16 6 -3 10 -2 10 4 0 5 -4 13 -10 16 -5 3
-10 2 -10 -4z" />
    <path d="M2510 99 c0 -3 10 -9 23 -13 30 -8 37 -7 37 3 0 5 -13 11 -30 13 -16
3 -30 1 -30 -3z" />
    <path d="M2838 103 c-38 -2 -68 -8 -68 -13 l0 -10 59 0 c63 0 91 6 91 21 0 5
-3 8 -7 7 -5 -1 -38 -3 -75 -5z" />
  </g>
  <g transform="translate(0.000000,260.000000) scale(0.100000,-0.100000)" fill="#80d5fb" stroke="none">
    <path d="M114 2496 c-3 -8 -4 -23 -2 -33 l4 -18 5 33 c6 34 2 42 -7 18z" />
    <path d="M510 2506 c0 -2 8 -10 18 -17 l17 -14 -14 18 c-13 16 -21 21 -21 13z" />
    <path d="M595 2370 c3 -5 8 -10 11 -10 3 0 2 5 -1 10 -3 6 -8 10 -11 10 -3 0
-2 -4 1 -10z" />
    <path d="M2005 2290 c220 -3 404 -2 409 2 6 5 -174 7 -400 6 l-409 -2 400 -6z" />
    <path d="M2665 2289 l8 -11 39 5 38 5 15 -14 14 -15 -11 -25 -11 -25 -10 13
-9 13 6 -19 c4 -10 1 -25 -5 -33 -7 -7 -10 -16 -7 -19 3 -3 18 16 32 41 l27
46 -3 22 -3 22 -63 3 -64 3 7 -12z" />
    <path d="M112 2270 c0 -14 2 -19 5 -12 2 6 2 18 0 25 -3 6 -5 1 -5 -13z" />
    <path d="M1386 2258 l-18 -33 21 25 c18 22 26 40 18 40 -1 0 -11 -15 -21 -32z" />
    <path d="M110 2196 c0 -14 4 -27 8 -30 5 -3 6 8 4 25 -5 35 -12 38 -12 5z" />
    <path d="M1344 2188 l-7 -11 11 7 c12 7 16 16 8 16 -3 0 -8 -5 -12 -12z" />
    <path d="M705 2180 c3 -5 8 -10 11 -10 3 0 2 5 -1 10 -3 6 -8 10 -11 10 -3 0
-2 -4 1 -10z" />
    <path d="M315 2150 c3 -5 8 -10 11 -10 3 0 2 5 -1 10 -3 6 -8 10 -11 10 -3 0
-2 -4 1 -10z" />
    <path d="M2700 2120 c-6 -12 -9 -24 -7 -27 3 -2 11 5 17 17 6 12 9 24 7 27 -3
2 -11 -5 -17 -17z" />
    <path d="M1300 2110 c-6 -11 -8 -20 -6 -20 3 0 10 9 16 20 6 11 8 20 6 20 -3
0 -10 -9 -16 -20z" />
    <path d="M1270 2060 c0 -7 3 -10 7 -7 3 4 3 10 0 14 -4 3 -7 0 -7 -7z" />
    <path d="M2657 2043 c-4 -3 -7 -11 -7 -17 l0 -10 12 12 c6 6 9 14 7 17 -3 3
-9 2 -12 -2z" />
    <path d="M805 2010 c3 -5 8 -10 11 -10 3 0 2 5 -1 10 -3 6 -8 10 -11 10 -3 0
-2 -4 1 -10z" />
    <path d="M1210 1954 c-12 -19 -21 -37 -18 -39 2 -2 14 14 26 36 28 49 22 52
-8 3z" />
    <path d="M2055 1960 l-6 -10 56 0 56 0 -6 10 c-3 6 -26 10 -50 10 -24 0 -47
-4 -50 -10z" />
    <path d="M1643 1953 c9 -2 25 -2 35 0 9 3 1 5 -18 5 -19 0 -27 -2 -17 -5z" />
    <path d="M2193 1949 l17 -10 -10 -20 -11 -19 9 0 c6 0 12 9 15 19 5 20 -9 41
-27 41 -6 0 -3 -5 7 -11z" />
    <path d="M2591 1941 l-14 -9 8 -12 8 -13 9 17 c12 21 7 28 -11 17z" />
    <path d="M1590 1915 c-7 -9 -10 -18 -7 -21 3 -3 10 4 17 15 13 25 8 27 -10 6z" />
    <path d="M1560 1860 c-6 -11 -8 -20 -6 -20 3 0 10 9 16 20 6 11 8 20 6 20 -3
0 -10 -9 -16 -20z" />
    <path d="M2177 1873 c-4 -3 -7 -11 -7 -17 l0 -10 12 12 c6 6 9 14 7 17 -3 3
-9 2 -12 -2z" />
    <path d="M485 1850 c3 -5 8 -10 11 -10 3 0 2 5 -1 10 -3 6 -8 10 -11 10 -3 0
-2 -4 1 -10z" />
    <path d="M1215 1820 c3 -5 8 -10 11 -10 3 0 2 5 -1 10 -3 6 -8 10 -11 10 -3 0
-2 -4 1 -10z" />
    <path d="M1530 1813 c-9 -10 -26 -36 -39 -58 -12 -22 -15 -31 -7 -20 9 11 23
28 30 37 16 18 39 58 34 58 -2 0 -10 -8 -18 -17z" />
    <path d="M2106 1749 c-26 -45 -46 -83 -43 -85 5 -5 89 125 95 148 2 10 2 18 0
18 -3 0 -26 -36 -52 -81z" />
    <path d="M930 1780 c6 -11 13 -20 16 -20 2 0 0 9 -6 20 -6 11 -13 20 -16 20
-2 0 0 -9 6 -20z" />
    <path d="M1252 1758 c8 -13 36 -60 62 -105 26 -46 54 -83 61 -83 13 0 52 53
79 110 17 37 8 25 -36 -46 -15 -24 -31 -44 -35 -44 -18 1 -33 19 -82 103 -29
48 -54 87 -58 87 -3 0 1 -10 9 -22z" />
    <path d="M555 1730 c3 -5 8 -10 11 -10 3 0 2 5 -1 10 -3 6 -8 10 -11 10 -3 0
-2 -4 1 -10z" />
    <path d="M575 1700 c3 -5 8 -10 11 -10 3 0 2 5 -1 10 -3 6 -8 10 -11 10 -3 0
-2 -4 1 -10z" />
    <path d="M975 1700 c3 -5 8 -10 11 -10 3 0 2 5 -1 10 -3 6 -8 10 -11 10 -3 0
-2 -4 1 -10z" />
    <path d="M605 1650 c3 -5 8 -10 11 -10 3 0 2 5 -1 10 -3 6 -8 10 -11 10 -3 0
-2 -4 1 -10z" />
    <path d="M1020 1620 c6 -11 13 -20 16 -20 2 0 0 9 -6 20 -6 11 -13 20 -16 20
-2 0 0 -9 6 -20z" />
    <path d="M2016 1591 c-15 -28 -24 -51 -22 -51 9 0 59 91 53 96 -3 3 -17 -17
-31 -45z" />
    <path d="M635 1600 c3 -5 8 -10 11 -10 3 0 2 5 -1 10 -3 6 -8 10 -11 10 -3 0
-2 -4 1 -10z" />
    <path d="M1060 1550 c11 -22 23 -40 25 -40 3 0 -4 18 -15 40 -11 22 -23 40
-25 40 -3 0 4 -18 15 -40z" />
    <path d="M670 1540 c6 -11 13 -20 16 -20 2 0 0 9 -6 20 -6 11 -13 20 -16 20
-2 0 0 -9 6 -20z" />
    <path d="M1967 1506 c-10 -14 -13 -26 -8 -26 13 0 33 28 29 41 l-4 12 -17 -27z" />
    <path d="M2340 1504 l0 -15 10 6 c6 3 10 10 10 16 0 5 -4 9 -10 9 -5 0 -10 -7
-10 -16z" />
    <path d="M700 1490 c6 -11 13 -20 16 -20 2 0 0 9 -6 20 -6 11 -13 20 -16 20
-2 0 0 -9 6 -20z" />
    <path d="M1105 1470 c9 -16 18 -30 21 -30 2 0 -2 14 -11 30 -9 17 -18 30 -21
30 -2 0 2 -13 11 -30z" />
    <path d="M1902 1394 c-18 -31 -30 -59 -28 -62 8 -8 36 19 36 35 0 7 7 25 16
38 9 13 14 29 12 35 -2 6 -18 -15 -36 -46z" />
    <path d="M740 1420 c6 -11 13 -20 16 -20 2 0 0 9 -6 20 -6 11 -13 20 -16 20
-2 0 0 -9 6 -20z" />
    <path d="M1163 1368 c21 -36 37 -75 37 -86 0 -11 -32 -76 -71 -144 -40 -67
-91 -157 -114 -198 -23 -41 -54 -95 -69 -120 -77 -132 -98 -172 -93 -176 3 -3
11 7 19 23 8 15 77 136 153 268 76 132 152 263 167 291 l28 52 -36 68 c-20 38
-41 74 -47 79 -5 6 6 -20 26 -57z" />
    <path d="M770 1370 c6 -11 13 -20 16 -20 2 0 0 9 -6 20 -6 11 -13 20 -16 20
-2 0 0 -9 6 -20z" />
    <path d="M806 1307 c3 -10 9 -15 12 -12 3 3 0 11 -7 18 l-12 12 7 -18z" />
    <path d="M650 977 c-91 -160 -177 -311 -191 -336 -14 -25 -67 -117 -117 -205
-50 -87 -89 -162 -86 -167 l5 -9 161 0 c89 0 158 3 155 6 -4 4 -64 6 -134 6
-70 -1 -136 1 -145 4 -10 3 -18 12 -18 20 0 8 16 40 35 70 19 30 35 56 35 58
0 3 28 53 62 113 34 59 68 120 75 136 8 15 19 27 24 27 5 0 9 6 9 13 0 12 32
71 204 375 54 95 96 175 95 176 -2 2 -78 -127 -169 -287z" />
    <path d="M1860 1241 c0 -5 5 -13 10 -16 6 -3 10 -2 10 4 0 5 -4 13 -10 16 -5
3 -10 2 -10 -4z" />
    <path d="M1915 1230 c-3 -5 -1 -10 4 -10 6 0 11 5 11 10 0 6 -2 10 -4 10 -3 0
-8 -4 -11 -10z" />
    <path d="M1916 1147 c3 -10 9 -15 12 -12 3 3 0 11 -7 18 l-12 12 7 -18z" />
    <path d="M1660 965 l0 -14 15 5 c8 4 15 10 15 15 0 5 -7 9 -15 9 -8 0 -15 -7
-15 -15z" />
    <path d="M1710 931 c0 -5 5 -13 10 -16 6 -3 10 -2 10 4 0 5 -4 13 -10 16 -5 3
-10 2 -10 -4z" />
    <path d="M1576 814 c-9 -23 -8 -24 14 -24 23 0 26 13 6 29 l-14 12 -6 -17z" />
    <path d="M840 621 c0 -6 4 -13 10 -16 l10 -6 -6 15 c-7 18 -14 21 -14 7z" />
    <path d="M893 593 c15 -2 37 -2 50 0 12 2 0 4 -28 4 -27 0 -38 -2 -22 -4z" />
    <path d="M815 270 l-6 -10 56 0 56 0 -6 10 c-3 6 -26 10 -50 10 -24 0 -47 -4
-50 -10z" />
    <path d="M955 270 l-6 -10 56 0 56 0 -6 10 c-3 6 -26 10 -50 10 -24 0 -47 -4
-50 -10z" />
    <path d="M1085 270 l-6 -10 21 0 21 0 -6 10 c-3 6 -10 10 -15 10 -5 0 -12 -4
-15 -10z" />
  </g>
  <g transform="translate(0.000000,260.000000) scale(0.100000,-0.100000)" fill="#87e5fb" stroke="none">
    <path d="M2780 2269 c0 -11 -5 -29 -10 -40 -6 -10 -8 -19 -6 -19 7 0 36 56 36
70 0 5 -4 10 -10 10 -5 0 -10 -9 -10 -21z" />
    <path d="M2730 2164 c-12 -19 -21 -37 -18 -39 2 -2 14 14 26 36 28 49 22 52
-8 3z" />
    <path d="M2677 2080 c-9 -11 -17 -26 -17 -33 0 -7 -4 -17 -9 -22 -14 -15 -82
-137 -78 -141 3 -3 39 57 105 174 13 23 22 42 20 42 -2 0 -11 -9 -21 -20z" />
    <path d="M2177 1875 c-9 -19 -15 -35 -13 -35 2 0 13 16 25 35 11 19 17 35 13
35 -5 0 -16 -16 -25 -35z" />
    <path d="M2538 1832 c-14 -21 -37 -60 -52 -87 -29 -55 -35 -66 -82 -141 -34
-54 -114 -194 -151 -267 -12 -23 -22 -50 -23 -60 0 -10 7 -31 15 -47 9 -17 12
-30 9 -30 -4 0 2 -10 13 -22 11 -13 28 -38 37 -55 9 -18 20 -33 25 -33 5 0
-11 35 -35 78 -25 42 -47 87 -51 100 l-5 23 145 252 c79 139 155 269 167 290
12 20 20 37 17 37 -2 0 -16 -17 -29 -38z" />
    <path d="M2131 1793 l-11 -28 15 19 c8 11 15 23 15 28 0 15 -7 8 -19 -19z" />
    <path d="M2061 1673 l-11 -28 15 19 c8 11 15 23 15 28 0 15 -7 8 -19 -19z" />
    <path d="M2020 1600 c-11 -22 -18 -40 -15 -40 2 0 14 18 25 40 11 22 18 40 15
40 -2 0 -14 -18 -25 -40z" />
    <path d="M1942 1465 c-6 -14 -10 -25 -8 -25 2 0 11 11 20 25 9 14 13 25 8 25
-5 0 -14 -11 -20 -25z" />
    <path d="M1896 1383 l-7 -18 12 12 c7 7 10 15 7 18 -3 3 -9 -2 -12 -12z" />
    <path d="M1857 1314 l-17 -35 15 -29 c9 -17 18 -30 21 -30 2 0 0 9 -6 19 -15
28 -12 62 6 82 l15 17 -9 6 c-5 3 -16 -11 -25 -30z" />
    <path d="M1900 1170 c6 -11 13 -20 16 -20 2 0 0 9 -6 20 -6 11 -13 20 -16 20
-2 0 0 -9 6 -20z" />
    <path d="M1920 1138 c0 -4 16 -33 35 -65 l35 -58 0 18 c0 10 -12 35 -27 55
-35 49 -43 57 -43 50z" />
    <path d="M2340 1075 c0 -6 7 -20 15 -31 8 -12 12 -24 9 -27 -3 -3 2 -14 11
-24 9 -10 27 -35 40 -55 l24 -37 -15 -12 c-8 -6 -14 -15 -14 -20 0 -13 19 -11
34 3 l13 13 -30 55 c-49 87 -87 146 -87 135z" />
    <path d="M2007 980 c100 -166 143 -244 144 -258 1 -10 4 -3 8 13 l7 30 -16 6
c-13 5 -35 40 -104 170 -13 25 -32 52 -42 60 l-18 14 21 -35z" />
    <path d="M1646 948 c-10 -18 -28 -48 -38 -65 -11 -18 -15 -33 -10 -33 5 0 17
18 27 40 23 51 46 78 63 73 7 -3 32 -39 55 -81 23 -42 47 -86 54 -97 6 -11 19
-35 27 -53 14 -30 46 -71 46 -58 0 2 -39 72 -86 155 l-86 151 -17 0 c-9 0 -25
-15 -35 -32z" />
    <path d="M1557 793 c-15 -29 -31 -53 -36 -53 -4 0 -13 -12 -20 -27 l-12 -27
23 24 c14 14 37 42 52 62 l28 37 -4 18 -4 18 -27 -52z" />
    <path d="M2505 800 c3 -5 8 -10 11 -10 3 0 2 5 -1 10 -3 6 -8 10 -11 10 -3 0
-2 -4 1 -10z" />
    <path d="M925 779 c-4 -6 -5 -12 -2 -15 2 -3 7 2 10 11 7 17 1 20 -8 4z" />
    <path d="M904 738 c-4 -7 -14 -24 -22 -38 l-14 -25 17 20 c20 24 37 55 31 55
-3 0 -8 -6 -12 -12z" />
    <path d="M2177 674 c3 -7 9 -14 14 -14 14 0 10 17 -5 23 l-15 6 6 -15z" />
    <path d="M1459 642 l-24 -37 -245 -5 -245 -6 238 -2 238 -2 20 10 c19 10 54
68 46 76 -2 2 -15 -13 -28 -34z" />
    <path d="M860 660 c0 -7 3 -10 7 -7 3 4 3 10 0 14 -4 3 -7 0 -7 -7z" />
    <path d="M1852 648 c-7 -7 -12 -16 -12 -20 0 -5 -9 -19 -21 -31 -21 -22 -39
-59 -39 -80 l0 -11 9 10 c14 14 82 136 78 140 -2 2 -9 -2 -15 -8z" />
    <path d="M923 593 c4 -3 10 -3 14 0 3 4 0 7 -7 7 -7 0 -10 -3 -7 -7z" />
    <path d="M2227 585 c3 -8 9 -12 14 -9 12 7 11 11 -5 17 l-15 6 6 -14z" />
    <path d="M1763 488 c-5 -7 -18 -30 -28 -52 -11 -21 -26 -40 -32 -43 -7 -3 -10
-9 -7 -14 3 -5 -2 -16 -10 -25 -9 -8 -16 -22 -16 -29 0 -31 -88 -66 -115 -46
-5 4 -59 4 -120 0 -60 -4 -278 -7 -484 -8 -206 -1 -377 -4 -380 -6 -2 -3 237
-5 532 -5 l537 0 34 53 c44 70 109 187 103 187 -2 0 -9 -6 -14 -12z" />
    <path d="M364 478 l-7 -11 11 7 c7 4 12 9 12 12 0 8 -9 4 -16 -8z" />
  </g>
  <g transform="translate(0.000000,260.000000) scale(0.100000,-0.100000)" fill="#94defb" stroke="none">
    <path d="M1405 2290 l-6 -10 15 6 c18 7 21 14 7 14 -6 0 -13 -4 -16 -10z" />
    <path d="M2575 2293 l200 -3 13 -17 12 -17 0 16 c0 9 -7 19 -16 22 -9 3 -104
5 -212 4 l-197 -3 200 -2z" />
    <path d="M110 2180 c0 -7 3 -10 7 -7 3 4 3 10 0 14 -4 3 -7 0 -7 -7z" />
    <path d="M2694 2098 l-7 -11 11 7 c12 7 16 16 8 16 -3 0 -8 -5 -12 -12z" />
    <path d="M1274 2068 l-7 -11 11 7 c12 7 16 16 8 16 -3 0 -8 -5 -12 -12z" />
    <path d="M1204 1948 l-7 -11 11 7 c12 7 16 16 8 16 -3 0 -8 -5 -12 -12z" />
    <path d="M1802 1953 c70 -2 187 -2 260 0 73 1 16 3 -127 3 -143 0 -203 -2
-133 -3z" />
    <path d="M1584 1898 l-7 -11 11 7 c12 7 16 16 8 16 -3 0 -8 -5 -12 -12z" />
    <path d="M1180 1890 c0 -7 3 -10 7 -7 3 4 3 10 0 14 -4 3 -7 0 -7 -7z" />
    <path d="M2534 1818 l-7 -11 11 7 c7 4 12 9 12 12 0 8 -9 4 -16 -8z" />
    <path d="M1513 1783 c4 -3 10 -3 14 0 3 4 0 7 -7 7 -7 0 -10 -3 -7 -7z" />
    <path d="M1494 1758 l-7 -11 11 7 c7 4 12 9 12 12 0 8 -9 4 -16 -8z" />
    <path d="M2104 1748 l-7 -11 11 7 c12 7 16 16 8 16 -3 0 -8 -5 -12 -12z" />
    <path d="M2074 1698 l-7 -11 11 7 c7 4 12 9 12 12 0 8 -9 4 -16 -8z" />
    <path d="M1424 1638 l-7 -11 11 7 c12 7 16 16 8 16 -3 0 -8 -5 -12 -12z" />
    <path d="M2424 1628 l-7 -11 11 7 c12 7 16 16 8 16 -3 0 -8 -5 -12 -12z" />
    <path d="M1357 1578 c2 -5 10 -8 18 -8 8 0 16 3 18 8 3 4 -5 7 -18 7 -13 0
-21 -3 -18 -7z" />
    <path d="M2384 1558 l-7 -11 11 7 c7 4 12 9 12 12 0 8 -9 4 -16 -8z" />
    <path d="M2354 1508 l-7 -11 11 7 c7 4 12 9 12 12 0 8 -9 4 -16 -8z" />
    <path d="M1910 1410 c-6 -11 -8 -20 -6 -20 3 0 10 9 16 20 6 11 8 20 6 20 -3
0 -10 -9 -16 -20z" />
    <path d="M1175 1350 c3 -5 8 -10 11 -10 3 0 2 5 -1 10 -3 6 -8 10 -11 10 -3 0
-2 -4 1 -10z" />
    <path d="M1874 1348 l-7 -11 11 7 c7 4 12 9 12 12 0 8 -9 4 -16 -8z" />
    <path d="M1840 1280 c0 -7 3 -10 7 -7 3 4 3 10 0 14 -4 3 -7 0 -7 -7z" />
    <path d="M774 1198 l-7 -11 11 7 c7 4 12 9 12 12 0 8 -9 4 -16 -8z" />
    <path d="M1164 1188 l-7 -11 11 7 c7 4 12 9 12 12 0 8 -9 4 -16 -8z" />
    <path d="M1920 1131 c0 -6 4 -13 10 -16 l10 -6 -6 15 c-7 18 -14 21 -14 7z" />
    <path d="M1094 1068 l-7 -11 11 7 c12 7 16 16 8 16 -3 0 -8 -5 -12 -12z" />
    <path d="M1955 1070 c3 -5 8 -10 11 -10 3 0 2 5 -1 10 -3 6 -8 10 -11 10 -3 0
-2 -4 1 -10z" />
    <path d="M2385 1000 c3 -5 8 -10 11 -10 3 0 2 5 -1 10 -3 6 -8 10 -11 10 -3 0
-2 -4 1 -10z" />
    <path d="M1666 981 c-3 -5 5 -11 19 -13 l25 -5 -11 13 c-13 16 -25 18 -33 5z" />
    <path d="M2005 980 c3 -5 8 -10 11 -10 3 0 2 5 -1 10 -3 6 -8 10 -11 10 -3 0
-2 -4 1 -10z" />
    <path d="M1024 948 l-7 -11 11 7 c12 7 16 16 8 16 -3 0 -8 -5 -12 -12z" />
    <path d="M2410 950 c0 -7 3 -10 7 -7 3 4 3 10 0 14 -4 3 -7 0 -7 -7z" />
    <path d="M2075 860 c3 -5 8 -10 11 -10 3 0 2 5 -1 10 -3 6 -8 10 -11 10 -3 0
-2 -4 1 -10z" />
    <path d="M1570 820 c-6 -11 -8 -20 -6 -20 3 0 10 9 16 20 6 11 8 20 6 20 -3 0
-10 -9 -16 -20z" />
    <path d="M1513 733 c4 -3 10 -3 14 0 3 4 0 7 -7 7 -7 0 -10 -3 -7 -7z" />
    <path d="M894 718 l-7 -11 11 7 c12 7 16 16 8 16 -3 0 -8 -5 -12 -12z" />
    <path d="M484 688 l-7 -11 11 7 c12 7 16 16 8 16 -3 0 -8 -5 -12 -12z" />
    <path d="M854 648 l-7 -11 11 7 c7 4 12 9 12 12 0 8 -9 4 -16 -8z" />
    <path d="M454 638 l-7 -11 11 7 c12 7 16 16 8 16 -3 0 -8 -5 -12 -12z" />
    <path d="M1854 638 l-7 -11 11 7 c7 4 12 9 12 12 0 8 -9 4 -16 -8z" />
    <path d="M1814 568 l-7 -11 11 7 c12 7 16 16 8 16 -3 0 -8 -5 -12 -12z" />
    <path d="M404 548 l-7 -11 11 7 c7 4 12 9 12 12 0 8 -9 4 -16 -8z" />
    <path d="M334 428 l-7 -11 11 7 c12 7 16 16 8 16 -3 0 -8 -5 -12 -12z" />
    <path d="M294 358 l-7 -11 11 7 c7 4 12 9 12 12 0 8 -9 4 -16 -8z" />
    <path d="M1639 273 l-14 -18 18 14 c16 13 21 21 13 21 -2 0 -10 -8 -17 -17z" />
    <path d="M255 270 c3 -5 14 -10 23 -10 l17 0 -15 10 c-20 13 -33 13 -25 0z" />
    <path d="M1533 263 c4 -3 10 -3 14 0 3 4 0 7 -7 7 -7 0 -10 -3 -7 -7z" />
  </g>
  <g transform="translate(0.000000,260.000000) scale(0.100000,-0.100000)" fill="#96f9fc" stroke="none">
    <path d="M2355 1050 c3 -5 8 -10 11 -10 3 0 2 5 -1 10 -3 6 -8 10 -11 10 -3 0
-2 -4 1 -10z" />
    <path d="M2415 940 c3 -5 8 -10 11 -10 3 0 2 5 -1 10 -3 6 -8 10 -11 10 -3 0
-2 -4 1 -10z" />
    <path d="M2440 901 c5 -11 15 -23 21 -27 6 -3 3 5 -6 20 -20 30 -30 35 -15 7z" />
    <path d="M2545 730 c3 -5 8 -10 11 -10 3 0 2 5 -1 10 -3 6 -8 10 -11 10 -3 0
-2 -4 1 -10z" />
    <path d="M1855 690 c3 -5 8 -10 11 -10 3 0 2 5 -1 10 -3 6 -8 10 -11 10 -3 0
-2 -4 1 -10z" />
    <path d="M2165 690 c3 -5 8 -10 11 -10 3 0 2 5 -1 10 -3 6 -8 10 -11 10 -3 0
-2 -4 1 -10z" />
    <path d="M2570 681 c0 -6 4 -13 10 -16 l10 -6 -6 15 c-7 18 -14 21 -14 7z" />
    <path d="M2205 620 c3 -5 8 -10 11 -10 3 0 2 5 -1 10 -3 6 -8 10 -11 10 -3 0
-2 -4 1 -10z" />
    <path d="M2600 628 c0 -15 92 -184 107 -195 l17 -13 60 0 c34 0 71 -3 83 -6
l22 -6 12 -36 12 -36 -7 -105 -6 -105 -13 -13 -12 -12 -130 -1 c-71 -1 -151
-1 -177 -1 l-46 1 -29 55 c-44 86 -135 237 -139 232 -6 -5 142 -266 162 -287
l15 -15 179 1 c99 1 186 4 195 8 l15 5 0 154 0 153 -12 12 -12 12 -88 0 -88 0
-26 43 c-14 23 -41 69 -59 102 -19 33 -35 57 -35 53z" />
    <path d="M2235 570 c3 -5 8 -10 11 -10 3 0 2 5 -1 10 -3 6 -8 10 -11 10 -3 0
-2 -4 1 -10z" />
    <path d="M1806 553 l-7 -18 12 12 c7 7 10 15 7 18 -3 3 -9 -2 -12 -12z" />
    <path d="M1780 510 c-6 -11 -8 -20 -6 -20 3 0 10 9 16 20 6 11 8 20 6 20 -3 0
-10 -9 -16 -20z" />
    <path d="M2275 500 c3 -5 8 -10 11 -10 3 0 2 5 -1 10 -3 6 -8 10 -11 10 -3 0
-2 -4 1 -10z" />
    <path d="M2305 450 c3 -5 8 -10 11 -10 3 0 2 5 -1 10 -3 6 -8 10 -11 10 -3 0
-2 -4 1 -10z" />
    <path d="M1664 308 l-7 -11 11 7 c7 4 12 9 12 12 0 8 -9 4 -16 -8z" />
    <path d="M1563 263 c4 -3 10 -3 14 0 3 4 0 7 -7 7 -7 0 -10 -3 -7 -7z" />
    <path d="M1618 263 c7 -3 16 -2 19 1 4 3 -2 6 -13 5 l-19 -1 13 -5z" />
  </g>
</svg>